{"glyphs":{"0":{"ha":1051,"x_min":94,"x_max":957,"o":"m 575 810 q 772 758 685 810 q 908 619 860 707 q 957 422 957 531 q 882 206 957 307 q 694 46 807 106 q 476 -14 581 -14 q 280 38 367 -14 q 144 177 193 89 q 94 374 94 265 q 169 590 94 489 q 358 750 244 690 q 575 810 471 810 m 494 686 q 289 440 289 686 q 319 275 289 350 q 409 155 349 200 q 557 110 469 110 q 763 357 763 110 q 733 522 763 447 q 642 642 703 597 q 494 686 582 686 z "},"1":{"ha":690,"x_min":104,"x_max":586,"o":"m 554 0 l 119 0 l 119 50 l 254 156 l 254 685 l 104 733 l 136 796 l 569 796 l 569 746 l 435 640 l 435 111 l 586 63 l 554 0 z "},"2":{"ha":838,"x_min":61,"x_max":767,"o":"m 767 -26 l 683 -1 l 61 -1 l 61 49 q 329 280 238 193 q 457 421 421 367 q 493 522 493 475 q 446 635 493 592 q 322 679 399 679 q 103 579 233 679 l 61 638 l 260 794 q 361 808 306 808 q 535 783 460 808 q 650 710 610 757 q 690 601 690 663 q 606 436 690 540 q 340 182 522 332 l 674 182 l 718 296 l 767 279 l 767 -26 z "},"3":{"ha":778,"x_min":35,"x_max":688,"o":"m 468 360 q 639 236 590 290 q 688 117 688 182 q 541 -146 688 -31 q 72 -367 394 -261 l 50 -293 q 324 -178 231 -228 q 454 -76 417 -128 q 492 51 492 -24 q 475 121 492 90 q 419 183 458 151 q 306 260 379 215 l 306 301 q 408 432 382 388 q 433 524 433 476 q 392 638 433 593 q 288 682 351 682 q 76 582 208 682 l 35 640 l 235 799 q 296 810 265 810 q 463 782 386 810 q 584 706 539 754 q 629 603 629 658 q 588 495 625 550 q 467 360 551 440 l 468 360 z "},"4":{"ha":976,"x_min":42,"x_max":949,"o":"m 736 82 l 736 -215 l 556 -297 l 556 82 l 42 82 l 42 132 l 556 754 l 736 836 l 736 188 l 949 188 l 900 82 l 736 82 m 556 608 l 215 188 l 556 188 l 556 608 z "},"5":{"ha":869,"x_min":64,"x_max":706,"o":"m 192 507 q 509 356 399 421 q 663 235 619 290 q 706 114 706 179 q 617 -99 706 -8 q 397 -250 528 -190 q 88 -367 267 -310 l 64 -293 q 349 -174 254 -225 q 476 -74 443 -124 q 510 49 510 -24 q 478 147 510 104 q 359 240 447 189 q 96 364 271 290 l 186 796 l 592 796 l 638 910 l 686 894 l 686 589 l 603 614 l 213 614 l 192 508 l 192 507 z "},"6":{"ha":1025,"x_min":122,"x_max":931,"o":"m 822 1163 q 435 819 554 986 q 317 479 317 653 q 345 295 317 379 q 431 160 374 211 q 571 110 488 110 q 735 328 735 110 q 656 542 735 454 q 456 671 578 629 l 501 740 q 719 695 621 740 q 874 571 818 650 q 931 396 931 492 q 866 201 931 297 q 699 46 801 106 q 489 -14 596 -14 q 299 42 383 -14 q 169 197 215 99 q 122 417 122 296 q 178 699 122 569 q 380 960 235 829 q 786 1226 525 1092 l 822 1163 z "},"7":{"ha":914,"x_min":96,"x_max":839,"o":"m 839 736 l 278 -367 l 204 -333 l 692 614 l 188 614 l 144 511 l 96 526 l 96 821 l 179 796 l 839 796 l 839 736 z "},"8":{"ha":1026,"x_min":96,"x_max":933,"o":"m 650 675 q 798 578 740 621 q 894 478 856 535 q 933 353 933 422 q 869 191 933 278 q 714 45 806 104 q 547 -14 622 -14 q 315 30 418 -14 q 153 149 211 74 q 96 317 96 225 q 157 457 96 386 q 360 632 218 528 q 219 757 269 693 q 168 901 168 821 q 228 1044 168 968 q 374 1174 288 1121 q 532 1226 460 1226 q 698 1192 625 1226 q 812 1101 771 1158 q 853 975 853 1043 q 805 848 847 914 q 649 675 763 782 l 650 675 m 503 1124 q 401 1079 442 1124 q 361 967 361 1035 q 419 837 361 894 q 585 714 476 779 q 658 825 642 788 q 674 910 674 863 q 625 1061 674 1000 q 503 1122 576 1122 l 503 1124 m 554 92 q 652 119 610 92 q 717 193 694 147 q 740 290 740 239 q 705 389 740 343 q 617 472 669 435 q 476 561 565 508 q 448 578 461 571 q 424 593 435 586 q 316 480 342 524 q 290 385 290 436 q 327 241 290 308 q 425 133 364 174 q 554 92 486 92 z "},"9":{"ha":1025,"x_min":94,"x_max":903,"o":"m 535 810 q 724 758 640 810 q 856 615 808 706 q 903 415 903 525 q 847 141 903 267 q 645 -110 790 15 q 240 -367 500 -236 l 204 -303 q 590 28 472 -131 q 707 353 707 186 q 679 519 707 443 q 594 640 651 594 q 454 686 536 686 q 331 631 372 686 q 289 467 289 575 q 364 253 289 340 q 557 125 439 165 l 511 56 q 299 101 394 56 q 149 225 204 146 q 94 400 94 304 q 159 594 94 499 q 326 750 224 690 q 535 810 429 810 z "}," ":{"ha":388,"x_min":0,"x_max":0,"o":""},"A":{"ha":1221,"x_min":-4,"x_max":1222,"o":"m 1192 0 l 750 0 l 750 50 l 886 149 l 783 396 l 322 396 l 217 150 l 456 63 l 424 0 l -4 0 l -4 50 l 131 154 l 517 1047 l 681 1118 l 1083 143 l 1222 63 l 1192 0 m 558 942 l 354 468 l 754 468 l 558 942 z "},"Á":{"ha":1221,"x_min":-4,"x_max":1222,"o":"m 1192 0 l 750 0 l 750 50 l 886 149 l 783 396 l 322 396 l 217 150 l 456 63 l 424 0 l -4 0 l -4 50 l 131 154 l 517 1047 l 681 1118 l 1083 143 l 1222 63 l 1192 0 m 558 942 l 354 468 l 754 468 l 558 942 m 896 1525 l 581 1290 l 519 1319 l 668 1592 l 868 1565 l 896 1525 z "},"Ă":{"ha":1221,"x_min":-4,"x_max":1222,"o":"m 1192 0 l 750 0 l 750 50 l 886 149 l 783 396 l 322 396 l 217 150 l 456 63 l 424 0 l -4 0 l -4 50 l 131 154 l 517 1047 l 681 1118 l 1083 143 l 1222 63 l 1192 0 m 558 942 l 354 468 l 754 468 l 558 942 m 907 1568 q 857 1451 904 1511 q 739 1353 810 1392 q 601 1314 668 1314 q 440 1347 518 1314 q 324 1451 361 1381 l 472 1568 q 548 1447 507 1482 q 639 1411 589 1411 q 711 1434 683 1411 q 740 1490 739 1457 l 907 1568 z "},"Â":{"ha":1221,"x_min":-4,"x_max":1222,"o":"m 1192 0 l 750 0 l 750 50 l 886 149 l 783 396 l 322 396 l 217 150 l 456 63 l 424 0 l -4 0 l -4 50 l 131 154 l 517 1047 l 681 1118 l 1083 143 l 1222 63 l 1192 0 m 558 942 l 354 468 l 754 468 l 558 942 m 901 1297 l 714 1271 l 561 1453 l 336 1282 l 292 1340 l 604 1581 l 929 1338 l 901 1297 z "},"Ä":{"ha":1221,"x_min":-4,"x_max":1222,"o":"m 375 1306 q 308 1336 335 1306 q 281 1411 281 1367 q 299 1472 281 1443 q 347 1517 318 1500 q 403 1533 376 1533 q 470 1503 444 1533 q 496 1426 496 1472 q 477 1367 496 1394 q 430 1322 458 1339 q 375 1306 401 1306 m 817 1306 q 749 1336 776 1306 q 722 1411 722 1367 q 741 1472 722 1443 q 789 1517 760 1500 q 844 1533 818 1533 q 912 1503 886 1533 q 938 1426 938 1472 q 919 1367 938 1394 q 872 1322 900 1339 q 817 1306 843 1306 m 1192 0 l 750 0 l 750 50 l 886 149 l 783 396 l 322 396 l 217 150 l 456 63 l 424 0 l -4 0 l -4 50 l 131 154 l 517 1047 l 681 1118 l 1083 143 l 1222 63 l 1192 0 m 558 942 l 354 468 l 754 468 l 558 942 z "},"À":{"ha":1221,"x_min":-4,"x_max":1222,"o":"m 1192 0 l 750 0 l 750 50 l 886 149 l 783 396 l 322 396 l 217 150 l 456 63 l 424 0 l -4 0 l -4 50 l 131 154 l 517 1047 l 681 1118 l 1083 143 l 1222 63 l 1192 0 m 558 942 l 354 468 l 754 468 l 558 942 m 642 1290 l 325 1525 l 353 1565 l 553 1592 l 701 1319 l 642 1290 z "},"Ā":{"ha":1221,"x_min":-4,"x_max":1222,"o":"m 1192 0 l 750 0 l 750 50 l 886 149 l 783 396 l 322 396 l 217 150 l 456 63 l 424 0 l -4 0 l -4 50 l 131 154 l 517 1047 l 681 1118 l 1083 143 l 1222 63 l 1192 0 m 558 942 l 354 468 l 754 468 l 558 942 m 285 1460 l 935 1460 l 935 1393 l 285 1393 l 285 1460 z "},"Ą":{"ha":1221,"x_min":-4,"x_max":1222,"o":"m 1193 0 q 1111 -92 1136 -56 q 1086 -158 1086 -129 q 1101 -197 1086 -183 q 1150 -217 1117 -211 l 1150 -276 l 1036 -367 q 900 -210 900 -322 q 911 -154 900 -179 l 1107 0 l 750 0 l 750 50 l 886 149 l 783 396 l 322 396 l 217 150 l 456 63 l 424 0 l -4 0 l -4 50 l 131 154 l 517 1047 l 681 1118 l 1083 143 l 1222 63 l 1192 1 l 1193 0 m 557 942 l 353 468 l 753 468 l 557 942 z "},"Å":{"ha":1221,"x_min":-4,"x_max":1222,"o":"m 1192 0 l 750 0 l 750 50 l 886 149 l 783 396 l 322 396 l 217 150 l 456 63 l 424 0 l -4 0 l -4 50 l 131 154 l 517 1047 l 681 1118 l 1083 143 l 1222 63 l 1192 0 m 558 942 l 354 468 l 754 468 l 558 942 m 658 1581 q 772 1541 726 1581 q 818 1443 818 1501 q 778 1351 818 1394 q 678 1283 739 1308 q 560 1257 618 1257 q 446 1297 492 1257 q 400 1394 400 1338 q 440 1486 400 1443 q 540 1555 479 1529 q 658 1581 600 1581 m 578 1515 q 526 1501 544 1515 q 508 1460 508 1486 q 543 1362 508 1400 q 640 1324 578 1324 q 692 1338 674 1324 q 711 1379 711 1353 q 676 1476 711 1438 q 578 1515 642 1515 z "},"Ã":{"ha":1221,"x_min":-4,"x_max":1222,"o":"m 1192 0 l 750 0 l 750 50 l 886 149 l 783 396 l 322 396 l 217 150 l 456 63 l 424 0 l -4 0 l -4 50 l 131 154 l 517 1047 l 681 1118 l 1083 143 l 1222 63 l 1192 0 m 558 942 l 354 468 l 754 468 l 558 942 m 544 1585 q 735 1478 650 1478 q 817 1506 778 1478 l 868 1543 l 913 1485 l 672 1303 q 483 1410 567 1410 q 399 1381 438 1410 l 350 1344 l 306 1403 l 544 1585 z "},"Æ":{"ha":1533,"x_min":-3,"x_max":1404,"o":"m 1324 -1 l 525 -1 l 525 49 l 656 151 l 656 521 l 414 521 l 210 149 l 413 61 l 382 -1 l -3 -1 l -3 49 l 110 136 l 565 969 l 388 1029 l 418 1092 l 1308 1092 l 1389 1117 l 1389 790 l 1340 774 l 1174 1021 l 844 1021 l 844 593 l 1007 593 l 1110 767 l 1160 767 l 1160 349 l 1097 317 l 1008 522 l 844 522 l 844 71 l 1168 71 l 1354 347 l 1403 329 l 1404 -26 l 1324 -1 m 656 961 l 453 592 l 656 592 l 656 961 z "},"B":{"ha":1097,"x_min":64,"x_max":1024,"o":"m 799 589 q 963 484 903 557 q 1024 318 1024 411 q 952 153 1024 231 q 774 31 881 76 q 572 -15 668 -15 q 436 -8 503 -15 q 264 -1 325 -1 l 81 -1 l 81 49 l 211 151 l 211 983 l 64 1029 l 96 1092 l 263 1092 q 511 1100 389 1092 q 650 1106 606 1106 q 817 1069 744 1106 q 928 972 889 1033 q 968 833 968 910 q 922 700 968 764 q 799 590 875 636 l 799 589 m 764 765 q 708 940 764 872 q 542 1008 651 1008 q 400 965 465 1008 l 400 599 l 590 599 q 718 642 672 599 q 764 765 764 685 m 611 93 q 763 142 707 93 q 819 272 819 190 q 758 443 819 378 q 578 513 697 508 q 551 511 568 511 l 400 511 l 400 129 q 611 94 489 94 l 611 93 z "},"C":{"ha":1143,"x_min":94,"x_max":1063,"o":"m 699 1119 q 872 1099 774 1119 q 1017 1054 971 1078 l 1017 779 l 947 779 q 618 994 824 994 q 456 942 529 994 q 341 796 383 889 q 299 588 299 703 q 340 344 299 454 q 465 169 381 235 q 675 103 550 103 q 1018 272 796 103 l 1063 201 l 807 3 q 704 -22 754 -15 q 597 -28 654 -28 q 335 43 450 -28 q 158 238 221 114 q 94 521 94 363 q 190 822 94 683 q 428 1040 286 960 q 699 1119 569 1119 z "},"Ć":{"ha":1143,"x_min":94,"x_max":1063,"o":"m 699 1119 q 872 1099 774 1119 q 1017 1054 971 1078 l 1017 779 l 947 779 q 618 994 824 994 q 456 942 529 994 q 341 796 383 889 q 299 588 299 703 q 340 344 299 454 q 465 169 381 235 q 675 103 550 103 q 1018 272 796 103 l 1063 201 l 807 3 q 704 -22 754 -15 q 597 -28 654 -28 q 335 43 450 -28 q 158 238 221 114 q 94 521 94 363 q 190 822 94 683 q 428 1040 286 960 q 699 1119 569 1119 m 894 1525 l 579 1290 l 518 1319 l 667 1592 l 867 1565 l 894 1525 z "},"Č":{"ha":1143,"x_min":94,"x_max":1063,"o":"m 699 1119 q 872 1099 774 1119 q 1017 1054 971 1078 l 1017 779 l 947 779 q 618 994 824 994 q 456 942 529 994 q 341 796 383 889 q 299 588 299 703 q 340 344 299 454 q 465 169 381 235 q 675 103 550 103 q 1018 272 796 103 l 1063 201 l 807 3 q 704 -22 754 -15 q 597 -28 654 -28 q 335 43 450 -28 q 158 238 221 114 q 94 521 94 363 q 190 822 94 683 q 428 1040 286 960 q 699 1119 569 1119 m 614 1282 l 289 1525 l 317 1565 l 504 1592 l 657 1410 l 882 1581 l 926 1522 l 614 1282 z "},"Ç":{"ha":1143,"x_min":94,"x_max":1063,"o":"m 807 4 q 694 -22 750 -15 l 640 -67 q 733 -153 708 -118 q 758 -226 758 -187 q 692 -325 758 -290 q 485 -367 625 -360 l 485 -317 q 607 -201 607 -278 q 587 -147 607 -171 q 518 -93 567 -124 l 597 -28 q 335 43 450 -28 q 158 238 221 114 q 94 521 94 363 q 190 822 94 683 q 428 1040 286 960 q 699 1119 569 1119 q 872 1099 774 1119 q 1017 1054 971 1078 l 1017 779 l 947 779 q 618 994 824 994 q 456 942 529 994 q 341 796 383 889 q 299 588 299 703 q 340 344 299 454 q 465 169 381 235 q 675 103 550 103 q 1018 272 796 103 l 1063 201 l 807 3 l 807 4 z "},"Ċ":{"ha":1143,"x_min":94,"x_max":1063,"o":"m 699 1119 q 872 1099 774 1119 q 1017 1054 971 1078 l 1017 779 l 947 779 q 618 994 824 994 q 456 942 529 994 q 341 796 383 889 q 299 588 299 703 q 340 344 299 454 q 465 169 381 235 q 675 103 550 103 q 1018 272 796 103 l 1063 201 l 807 3 q 704 -22 754 -15 q 597 -28 654 -28 q 335 43 450 -28 q 158 238 221 114 q 94 521 94 363 q 190 822 94 683 q 428 1040 286 960 q 699 1119 569 1119 m 622 1536 q 697 1503 668 1536 q 726 1424 726 1471 q 706 1360 726 1390 q 653 1313 685 1331 q 590 1296 621 1296 q 517 1328 546 1296 q 488 1408 488 1360 q 508 1472 488 1442 q 561 1519 529 1501 q 622 1536 593 1536 z "},"D":{"ha":1243,"x_min":64,"x_max":1150,"o":"m 657 1104 q 915 1035 803 1104 q 1088 844 1026 967 q 1150 568 1150 722 q 1056 276 1150 410 q 824 63 963 142 q 558 -15 685 -15 q 429 -8 492 -15 q 265 -1 321 -1 l 81 -1 l 81 49 l 211 151 l 211 982 l 64 1029 l 96 1092 l 264 1092 q 519 1100 394 1092 q 657 1106 614 1106 l 657 1104 m 597 94 q 774 147 694 94 q 899 294 853 200 q 944 504 944 388 q 901 759 944 644 q 769 942 858 874 q 549 1010 681 1010 q 400 963 467 1010 l 400 126 q 597 93 485 93 l 597 94 z "},"Ð":{"ha":1243,"x_min":64,"x_max":1150,"o":"m 657 1104 q 915 1035 803 1104 q 1088 844 1026 967 q 1150 568 1150 722 q 1056 276 1150 410 q 824 63 963 142 q 558 -15 685 -15 q 429 -8 492 -15 q 265 -1 321 -1 l 81 -1 l 81 49 l 211 151 l 211 982 l 64 1029 l 96 1092 l 264 1092 q 519 1100 394 1092 q 657 1106 614 1106 l 657 1104 m 597 94 q 774 147 694 94 q 899 294 853 200 q 944 504 944 388 q 901 759 944 644 q 769 942 858 874 q 549 1010 681 1010 q 400 963 467 1010 l 400 126 q 597 93 485 93 l 597 94 z "},"Ď":{"ha":1243,"x_min":64,"x_max":1150,"o":"m 657 1104 q 915 1035 803 1104 q 1088 844 1026 967 q 1150 568 1150 722 q 1056 276 1150 410 q 824 63 963 142 q 558 -15 685 -15 q 429 -8 492 -15 q 265 -1 321 -1 l 81 -1 l 81 49 l 211 151 l 211 982 l 64 1029 l 96 1092 l 264 1092 q 519 1100 394 1092 q 657 1106 614 1106 l 657 1104 m 597 94 q 774 147 694 94 q 899 294 853 200 q 944 504 944 388 q 901 759 944 644 q 769 942 858 874 q 549 1010 681 1010 q 400 963 467 1010 l 400 126 q 597 93 485 93 l 597 94 m 572 1282 l 247 1525 l 275 1565 l 463 1592 l 615 1410 l 840 1581 l 885 1522 l 572 1282 z "},"Đ":{"ha":1243,"x_min":64,"x_max":1150,"o":"m 657 1104 q 915 1035 803 1104 q 1088 844 1026 967 q 1150 568 1150 722 q 1056 276 1150 410 q 824 63 963 142 q 558 -15 685 -15 q 429 -8 492 -15 q 265 -1 321 -1 l 81 -1 l 81 49 l 211 151 l 211 982 l 64 1029 l 96 1092 l 264 1092 q 519 1100 394 1092 q 657 1106 614 1106 l 657 1104 m 597 94 q 774 147 694 94 q 899 294 853 200 q 944 504 944 388 q 901 759 944 644 q 769 942 858 874 q 549 1010 681 1010 q 400 963 467 1010 l 400 126 q 597 93 485 93 l 597 94 z "},"E":{"ha":1132,"x_min":64,"x_max":1003,"o":"m 922 -1 l 81 -1 l 81 49 l 211 151 l 211 981 l 64 1029 l 96 1092 l 908 1092 l 989 1117 l 989 790 l 940 774 l 774 1021 l 400 1021 l 400 593 l 607 593 l 708 767 l 758 767 l 758 349 l 696 317 l 608 522 l 400 522 l 400 71 l 767 71 l 954 347 l 1003 329 l 1003 -26 l 922 -1 z "},"É":{"ha":1132,"x_min":64,"x_max":1003,"o":"m 922 -1 l 81 -1 l 81 49 l 211 151 l 211 981 l 64 1029 l 96 1092 l 908 1092 l 989 1117 l 989 790 l 940 774 l 774 1021 l 400 1021 l 400 593 l 607 593 l 708 767 l 758 767 l 758 349 l 696 317 l 608 522 l 400 522 l 400 71 l 767 71 l 954 347 l 1003 329 l 1003 -26 l 922 -1 m 856 1525 l 540 1290 l 479 1319 l 628 1592 l 828 1565 l 856 1525 z "},"Ě":{"ha":1132,"x_min":64,"x_max":1003,"o":"m 922 -1 l 81 -1 l 81 49 l 211 151 l 211 981 l 64 1029 l 96 1092 l 908 1092 l 989 1117 l 989 790 l 940 774 l 774 1021 l 400 1021 l 400 593 l 607 593 l 708 767 l 758 767 l 758 349 l 696 317 l 608 522 l 400 522 l 400 71 l 767 71 l 954 347 l 1003 329 l 1003 -26 l 922 -1 m 575 1282 l 250 1525 l 278 1565 l 465 1592 l 618 1410 l 843 1581 l 888 1522 l 575 1282 z "},"Ê":{"ha":1132,"x_min":64,"x_max":1003,"o":"m 922 -1 l 81 -1 l 81 49 l 211 151 l 211 981 l 64 1029 l 96 1092 l 908 1092 l 989 1117 l 989 790 l 940 774 l 774 1021 l 400 1021 l 400 593 l 607 593 l 708 767 l 758 767 l 758 349 l 696 317 l 608 522 l 400 522 l 400 71 l 767 71 l 954 347 l 1003 329 l 1003 -26 l 922 -1 m 861 1297 l 674 1271 l 521 1453 l 296 1282 l 251 1340 l 564 1581 l 889 1338 l 861 1297 z "},"Ë":{"ha":1132,"x_min":64,"x_max":1003,"o":"m 333 1306 q 266 1336 293 1306 q 239 1411 239 1367 q 258 1472 239 1443 q 306 1517 276 1500 q 361 1533 335 1533 q 428 1503 403 1533 q 454 1426 454 1472 q 435 1367 454 1394 q 388 1322 417 1339 q 333 1306 360 1306 m 775 1306 q 708 1336 735 1306 q 681 1411 681 1367 q 699 1472 681 1443 q 747 1517 718 1500 q 803 1533 776 1533 q 870 1503 844 1533 q 896 1426 896 1472 q 877 1367 896 1394 q 830 1322 858 1339 q 775 1306 801 1306 m 922 -1 l 81 -1 l 81 49 l 211 151 l 211 981 l 64 1029 l 96 1092 l 908 1092 l 989 1117 l 989 790 l 940 774 l 774 1021 l 400 1021 l 400 593 l 607 593 l 708 767 l 758 767 l 758 349 l 696 317 l 608 522 l 400 522 l 400 71 l 767 71 l 954 347 l 1003 329 l 1003 -26 l 922 -1 z "},"Ė":{"ha":1132,"x_min":64,"x_max":1003,"o":"m 922 -1 l 81 -1 l 81 49 l 211 151 l 211 981 l 64 1029 l 96 1092 l 908 1092 l 989 1117 l 989 790 l 940 774 l 774 1021 l 400 1021 l 400 593 l 607 593 l 708 767 l 758 767 l 758 349 l 696 317 l 608 522 l 400 522 l 400 71 l 767 71 l 954 347 l 1003 329 l 1003 -26 l 922 -1 m 583 1536 q 658 1503 629 1536 q 688 1424 688 1471 q 667 1360 688 1390 q 614 1313 646 1331 q 551 1296 582 1296 q 478 1328 507 1296 q 449 1408 449 1360 q 469 1472 449 1442 q 522 1519 490 1501 q 583 1536 554 1536 z "},"È":{"ha":1132,"x_min":64,"x_max":1003,"o":"m 922 -1 l 81 -1 l 81 49 l 211 151 l 211 981 l 64 1029 l 96 1092 l 908 1092 l 989 1117 l 989 790 l 940 774 l 774 1021 l 400 1021 l 400 593 l 607 593 l 708 767 l 758 767 l 758 349 l 696 317 l 608 522 l 400 522 l 400 71 l 767 71 l 954 347 l 1003 329 l 1003 -26 l 922 -1 m 601 1290 l 285 1525 l 313 1565 l 513 1592 l 661 1319 l 601 1290 z "},"Ē":{"ha":1132,"x_min":64,"x_max":1003,"o":"m 922 -1 l 81 -1 l 81 49 l 211 151 l 211 981 l 64 1029 l 96 1092 l 908 1092 l 989 1117 l 989 790 l 940 774 l 774 1021 l 400 1021 l 400 593 l 607 593 l 708 767 l 758 767 l 758 349 l 696 317 l 608 522 l 400 522 l 400 71 l 767 71 l 954 347 l 1003 329 l 1003 -26 l 922 -1 m 244 1460 l 894 1460 l 894 1393 l 244 1393 l 244 1460 z "},"Ę":{"ha":1132,"x_min":64,"x_max":1003,"o":"m 968 -17 q 898 -99 919 -65 q 876 -160 876 -132 q 892 -199 876 -185 q 940 -218 907 -212 l 940 -278 l 826 -368 q 690 -211 690 -324 q 701 -156 690 -181 l 897 -1 l 81 -1 l 81 49 l 211 151 l 211 981 l 64 1029 l 96 1092 l 908 1092 l 989 1117 l 989 790 l 940 774 l 774 1021 l 400 1021 l 400 593 l 607 593 l 708 767 l 758 767 l 758 349 l 696 317 l 608 522 l 400 522 l 400 71 l 767 71 l 954 347 l 1003 329 l 1003 -28 l 968 -17 z "},"F":{"ha":1076,"x_min":64,"x_max":989,"o":"m 989 789 l 940 772 l 772 1019 l 400 1019 l 400 592 l 607 592 l 708 765 l 758 765 l 758 379 l 696 349 l 611 521 l 400 521 l 400 119 l 621 61 l 589 -1 l 81 -1 l 81 49 l 211 151 l 211 981 l 64 1029 l 96 1092 l 908 1092 l 989 1115 l 989 789 z "},"G":{"ha":1272,"x_min":96,"x_max":1214,"o":"m 1083 225 l 1121 160 l 865 3 q 748 -22 804 -15 q 628 -28 692 -28 q 350 43 471 -28 q 163 238 229 114 q 96 521 96 363 q 196 822 96 683 q 445 1040 296 960 q 729 1119 594 1119 q 917 1099 810 1119 q 1075 1054 1025 1078 l 1075 772 l 1007 772 q 649 994 869 994 q 472 942 551 994 q 346 796 392 889 q 300 588 300 703 q 344 343 300 454 q 480 165 389 232 q 706 99 571 99 q 801 102 763 99 q 893 124 840 106 l 893 443 l 676 501 l 708 564 l 1214 564 l 1214 514 l 1083 410 l 1083 225 z "},"Ğ":{"ha":1272,"x_min":96,"x_max":1214,"o":"m 1083 225 l 1121 160 l 865 3 q 748 -22 804 -15 q 628 -28 692 -28 q 350 43 471 -28 q 163 238 229 114 q 96 521 96 363 q 196 822 96 683 q 445 1040 296 960 q 729 1119 594 1119 q 917 1099 810 1119 q 1075 1054 1025 1078 l 1075 772 l 1007 772 q 649 994 869 994 q 472 942 551 994 q 346 796 392 889 q 300 588 300 703 q 344 343 300 454 q 480 165 389 232 q 706 99 571 99 q 801 102 763 99 q 893 124 840 106 l 893 443 l 676 501 l 708 564 l 1214 564 l 1214 514 l 1083 410 l 1083 225 m 956 1568 q 906 1451 953 1511 q 788 1353 858 1392 q 650 1314 717 1314 q 488 1347 567 1314 q 372 1451 410 1381 l 521 1568 q 597 1447 556 1482 q 688 1411 638 1411 q 760 1434 732 1411 q 789 1490 788 1457 l 956 1568 z "},"Ģ":{"ha":1272,"x_min":96,"x_max":1214,"o":"m 1083 225 l 1121 160 l 865 3 q 748 -22 804 -15 q 628 -28 692 -28 q 350 43 471 -28 q 163 238 229 114 q 96 521 96 363 q 196 822 96 683 q 445 1040 296 960 q 729 1119 594 1119 q 917 1099 810 1119 q 1075 1054 1025 1078 l 1075 772 l 1007 772 q 649 994 869 994 q 472 942 551 994 q 346 796 392 889 q 300 588 300 703 q 344 343 300 454 q 480 165 389 232 q 706 99 571 99 q 801 102 763 99 q 893 124 840 106 l 893 443 l 676 501 l 708 564 l 1214 564 l 1214 514 l 1083 410 l 1083 225 m 844 -165 l 667 -422 l 600 -422 l 636 -254 l 526 -178 l 557 -115 l 844 -115 l 844 -165 z "},"Ġ":{"ha":1272,"x_min":96,"x_max":1214,"o":"m 1083 225 l 1121 160 l 865 3 q 748 -22 804 -15 q 628 -28 692 -28 q 350 43 471 -28 q 163 238 229 114 q 96 521 96 363 q 196 822 96 683 q 445 1040 296 960 q 729 1119 594 1119 q 917 1099 810 1119 q 1075 1054 1025 1078 l 1075 772 l 1007 772 q 649 994 869 994 q 472 942 551 994 q 346 796 392 889 q 300 588 300 703 q 344 343 300 454 q 480 165 389 232 q 706 99 571 99 q 801 102 763 99 q 893 124 840 106 l 893 443 l 676 501 l 708 564 l 1214 564 l 1214 514 l 1083 410 l 1083 225 m 672 1536 q 747 1503 718 1536 q 776 1424 776 1471 q 756 1360 776 1390 q 703 1313 735 1331 q 640 1296 671 1296 q 567 1328 596 1296 q 538 1408 538 1360 q 558 1472 538 1442 q 611 1519 579 1501 q 672 1536 643 1536 z "},"H":{"ha":1333,"x_min":64,"x_max":1269,"o":"m 1239 1 l 803 1 l 803 51 l 933 154 l 933 510 l 400 510 l 400 113 l 547 64 l 517 1 l 81 1 l 81 51 l 211 154 l 211 982 l 64 1029 l 96 1092 l 532 1092 l 532 1042 l 400 938 l 400 579 l 933 579 l 933 982 l 786 1029 l 818 1092 l 1254 1092 l 1254 1042 l 1122 938 l 1122 111 l 1269 64 l 1239 1 z "},"Ħ":{"ha":1333,"x_min":0,"x_max":1333,"o":"m 1122 111 l 1269 63 l 1239 0 l 803 0 l 803 50 l 933 153 l 933 508 l 400 508 l 400 111 l 547 63 l 517 0 l 81 0 l 81 50 l 211 153 l 211 757 l 0 757 l 0 828 l 211 828 l 211 982 l 64 1029 l 96 1092 l 532 1092 l 532 1042 l 400 938 l 400 828 l 933 828 l 933 982 l 786 1029 l 818 1092 l 1254 1092 l 1254 1042 l 1122 938 l 1122 828 l 1333 828 l 1333 757 l 1122 757 l 1122 111 m 400 757 l 400 579 l 933 579 l 933 757 l 400 757 z "},"I":{"ha":611,"x_min":64,"x_max":547,"o":"m 517 1 l 81 1 l 81 51 l 211 154 l 211 982 l 64 1029 l 96 1092 l 532 1092 l 532 1042 l 400 938 l 400 111 l 547 64 l 517 1 z "},"Ĳ":{"ha":1204,"x_min":64,"x_max":1139,"o":"m 517 1 l 81 1 l 81 51 l 211 154 l 211 982 l 64 1029 l 96 1092 l 532 1092 l 532 1042 l 400 938 l 400 111 l 547 64 l 517 1 m 1007 138 q 1010 35 1007 82 q 1019 -28 1014 -11 l 743 -367 l 683 -319 q 790 -151 763 -221 q 818 21 818 -81 l 818 978 l 644 1029 l 675 1092 l 1139 1092 l 1139 1042 l 1007 939 l 1007 138 z "},"Í":{"ha":611,"x_min":64,"x_max":592,"o":"m 517 1 l 81 1 l 81 51 l 211 154 l 211 982 l 64 1029 l 96 1092 l 532 1092 l 532 1042 l 400 938 l 400 111 l 547 64 l 517 1 m 592 1525 l 276 1290 l 215 1319 l 364 1592 l 564 1565 l 592 1525 z "},"Î":{"ha":611,"x_min":-12,"x_max":625,"o":"m 517 1 l 81 1 l 81 51 l 211 154 l 211 982 l 64 1029 l 96 1092 l 532 1092 l 532 1042 l 400 938 l 400 111 l 547 64 l 517 1 m 597 1297 l 410 1271 l 257 1453 l 32 1282 l -12 1340 l 300 1581 l 625 1338 l 597 1297 z "},"Ï":{"ha":611,"x_min":7,"x_max":603,"o":"m 517 1 l 81 1 l 81 51 l 211 154 l 211 982 l 64 1029 l 96 1092 l 532 1092 l 532 1042 l 400 938 l 400 111 l 547 64 l 517 1 m 128 1532 q 195 1501 169 1532 q 221 1426 221 1470 q 202 1366 221 1394 q 155 1321 183 1338 q 99 1305 126 1305 q 33 1336 59 1305 q 7 1411 7 1367 q 26 1471 7 1443 q 73 1515 44 1499 q 128 1532 102 1532 m 510 1532 q 577 1501 551 1532 q 603 1426 603 1470 q 584 1366 603 1394 q 537 1321 565 1338 q 481 1305 508 1305 q 415 1336 441 1305 q 389 1411 389 1367 q 408 1471 389 1443 q 455 1515 426 1499 q 510 1532 483 1532 z "},"İ":{"ha":611,"x_min":64,"x_max":547,"o":"m 517 1 l 81 1 l 81 51 l 211 154 l 211 982 l 64 1029 l 96 1092 l 532 1092 l 532 1042 l 400 938 l 400 111 l 547 64 l 517 1 m 321 1536 q 396 1503 367 1536 q 425 1424 425 1471 q 404 1360 425 1390 q 351 1313 383 1331 q 289 1296 319 1296 q 215 1328 244 1296 q 186 1408 186 1360 q 207 1472 186 1442 q 260 1519 228 1501 q 321 1536 292 1536 z "},"Ì":{"ha":611,"x_min":21,"x_max":547,"o":"m 517 1 l 81 1 l 81 51 l 211 154 l 211 982 l 64 1029 l 96 1092 l 532 1092 l 532 1042 l 400 938 l 400 111 l 547 64 l 517 1 m 338 1290 l 21 1525 l 49 1565 l 249 1592 l 397 1319 l 338 1290 z "},"Ī":{"ha":611,"x_min":-19,"x_max":631,"o":"m 517 1 l 81 1 l 81 51 l 211 154 l 211 982 l 64 1029 l 96 1092 l 532 1092 l 532 1042 l 400 938 l 400 111 l 547 64 l 517 1 m -19 1460 l 631 1460 l 631 1393 l -19 1393 l -19 1460 z "},"Į":{"ha":611,"x_min":64,"x_max":547,"o":"m 517 1 l 515 1 q 433 -91 458 -54 q 408 -157 408 -128 q 424 -196 408 -182 q 472 -215 439 -210 l 472 -275 l 358 -365 q 222 -208 222 -321 q 233 -153 222 -178 l 429 1 l 81 1 l 81 51 l 211 154 l 211 982 l 64 1029 l 96 1092 l 532 1092 l 532 1042 l 400 938 l 400 111 l 547 64 l 517 1 z "},"J":{"ha":593,"x_min":33,"x_max":528,"o":"m 396 138 q 399 35 396 82 q 408 -28 403 -11 l 132 -367 l 72 -319 q 179 -151 151 -221 q 207 21 207 -81 l 207 978 l 33 1029 l 64 1092 l 528 1092 l 528 1042 l 396 939 l 396 138 z "},"K":{"ha":1207,"x_min":64,"x_max":1190,"o":"m 547 64 l 517 1 l 81 1 l 81 51 l 211 154 l 211 982 l 64 1029 l 96 1092 l 532 1092 l 532 1042 l 400 938 l 400 113 l 547 64 m 1158 3 l 899 3 l 475 550 l 896 918 l 735 1032 l 767 1094 l 1149 1094 l 1149 1044 l 658 615 l 1031 142 l 1190 65 l 1158 3 z "},"Ķ":{"ha":1207,"x_min":64,"x_max":1190,"o":"m 547 64 l 517 1 l 81 1 l 81 51 l 211 154 l 211 982 l 64 1029 l 96 1092 l 532 1092 l 532 1042 l 400 938 l 400 113 l 547 64 m 1158 3 l 899 3 l 475 550 l 896 918 l 735 1032 l 767 1094 l 1149 1094 l 1149 1044 l 658 615 l 1031 142 l 1190 65 l 1158 3 m 811 -165 l 633 -422 l 567 -422 l 603 -254 l 493 -178 l 524 -115 l 811 -115 l 811 -165 z "},"L":{"ha":1093,"x_min":64,"x_max":1004,"o":"m 924 0 l 81 0 l 81 50 l 211 153 l 211 982 l 64 1029 l 96 1092 l 532 1092 l 532 1042 l 400 939 l 400 71 l 749 71 l 956 375 l 1004 357 l 1004 -25 l 924 0 z "},"Ĺ":{"ha":1093,"x_min":64,"x_max":1004,"o":"m 924 0 l 81 0 l 81 50 l 211 153 l 211 982 l 64 1029 l 96 1092 l 532 1092 l 532 1042 l 400 939 l 400 71 l 749 71 l 956 375 l 1004 357 l 1004 -25 l 924 0 m 615 1525 l 300 1290 l 239 1319 l 388 1592 l 588 1565 l 615 1525 z "},"Ľ":{"ha":1093,"x_min":64,"x_max":1004,"o":"m 924 0 l 81 0 l 81 50 l 211 153 l 211 982 l 64 1029 l 96 1092 l 532 1092 l 532 1042 l 400 939 l 400 71 l 749 71 l 956 375 l 1004 357 l 1004 -25 l 924 0 m 854 878 l 690 672 l 629 719 q 679 825 663 771 q 693 926 696 879 l 633 978 l 633 1028 l 796 1092 l 854 1092 l 854 878 z "},"Ļ":{"ha":1093,"x_min":64,"x_max":1004,"o":"m 924 0 l 81 0 l 81 50 l 211 153 l 211 982 l 64 1029 l 96 1092 l 532 1092 l 532 1042 l 400 939 l 400 71 l 749 71 l 956 375 l 1004 357 l 1004 -25 l 924 0 m 722 -165 l 544 -422 l 478 -422 l 514 -254 l 404 -178 l 435 -115 l 722 -115 l 722 -165 z "},"Ŀ":{"ha":1093,"x_min":64,"x_max":1004,"o":"m 924 0 l 81 0 l 81 50 l 211 153 l 211 982 l 64 1029 l 96 1092 l 532 1092 l 532 1042 l 400 939 l 400 71 l 749 71 l 956 375 l 1004 357 l 1004 -25 l 924 0 m 869 832 q 944 800 915 832 q 974 721 974 768 q 953 656 974 686 q 900 609 932 626 q 838 592 868 592 q 764 624 793 592 q 735 704 735 657 q 756 767 735 738 q 808 815 776 797 q 869 832 840 832 z "},"Ł":{"ha":1089,"x_min":0,"x_max":1004,"o":"m 924 -1 l 81 -1 l 81 49 l 211 151 l 211 385 l 0 218 l 0 297 l 211 464 l 211 982 l 64 1029 l 96 1092 l 532 1092 l 532 1042 l 400 939 l 400 553 l 772 846 l 772 767 l 400 474 l 400 71 l 749 71 l 956 375 l 1004 357 l 1004 -26 l 924 -1 z "},"M":{"ha":1513,"x_min":64,"x_max":1447,"o":"m 1417 -1 l 981 -1 l 981 49 l 1111 151 l 1111 899 l 746 -1 l 660 -1 l 296 908 l 296 132 l 443 61 l 413 -1 l 81 -1 l 81 49 l 211 151 l 211 954 l 64 1029 l 96 1092 l 415 1092 l 756 240 l 1096 1092 l 1432 1092 l 1432 1042 l 1300 939 l 1300 110 l 1447 61 l 1417 -1 z "},"N":{"ha":1221,"x_min":64,"x_max":1171,"o":"m 1039 938 l 1039 0 l 954 0 l 296 815 l 296 135 l 451 63 l 421 0 l 81 0 l 81 50 l 211 153 l 211 950 l 64 1029 l 96 1092 l 313 1092 l 954 296 l 954 957 l 799 1029 l 831 1092 l 1171 1092 l 1171 1042 l 1039 938 z "},"Ń":{"ha":1221,"x_min":64,"x_max":1171,"o":"m 1039 938 l 1039 0 l 954 0 l 296 815 l 296 135 l 451 63 l 421 0 l 81 0 l 81 50 l 211 153 l 211 950 l 64 1029 l 96 1092 l 313 1092 l 954 296 l 954 957 l 799 1029 l 831 1092 l 1171 1092 l 1171 1042 l 1039 938 m 897 1525 l 582 1290 l 521 1319 l 669 1592 l 869 1565 l 897 1525 z "},"Ň":{"ha":1221,"x_min":64,"x_max":1171,"o":"m 1039 938 l 1039 0 l 954 0 l 296 815 l 296 135 l 451 63 l 421 0 l 81 0 l 81 50 l 211 153 l 211 950 l 64 1029 l 96 1092 l 313 1092 l 954 296 l 954 957 l 799 1029 l 831 1092 l 1171 1092 l 1171 1042 l 1039 938 m 617 1282 l 292 1525 l 319 1565 l 507 1592 l 660 1410 l 885 1581 l 929 1522 l 617 1282 z "},"Ņ":{"ha":1221,"x_min":64,"x_max":1171,"o":"m 1039 938 l 1039 0 l 954 0 l 296 815 l 296 135 l 451 63 l 421 0 l 81 0 l 81 50 l 211 153 l 211 950 l 64 1029 l 96 1092 l 313 1092 l 954 296 l 954 957 l 799 1029 l 831 1092 l 1171 1092 l 1171 1042 l 1039 938 m 783 -165 l 606 -422 l 539 -422 l 575 -254 l 465 -178 l 496 -115 l 783 -115 l 783 -165 z "},"Ŋ":{"ha":1221,"x_min":64,"x_max":1171,"o":"m 1040 138 q 1044 35 1040 82 q 1053 -28 1047 -11 l 776 -367 l 717 -319 q 838 -153 799 -218 q 890 -41 878 -89 q 900 67 903 7 l 296 815 l 296 135 l 451 63 l 421 0 l 81 0 l 81 50 l 211 153 l 211 950 l 64 1029 l 96 1092 l 313 1092 l 954 296 l 954 957 l 799 1029 l 831 1092 l 1171 1092 l 1171 1042 l 1040 938 l 1040 138 z "},"Ñ":{"ha":1221,"x_min":64,"x_max":1171,"o":"m 1039 938 l 1039 0 l 954 0 l 296 815 l 296 135 l 451 63 l 421 0 l 81 0 l 81 50 l 211 153 l 211 950 l 64 1029 l 96 1092 l 313 1092 l 954 296 l 954 957 l 799 1029 l 831 1092 l 1171 1092 l 1171 1042 l 1039 938 m 546 1585 q 736 1478 651 1478 q 818 1506 779 1478 l 869 1543 l 914 1485 l 674 1303 q 485 1410 568 1410 q 400 1381 439 1410 l 351 1344 l 307 1403 l 546 1585 z "},"O":{"ha":1299,"x_min":94,"x_max":1206,"o":"m 699 1119 q 964 1049 849 1119 q 1142 853 1079 978 q 1206 569 1206 728 q 1110 269 1206 407 q 872 52 1014 132 q 600 -28 729 -28 q 336 42 451 -28 q 158 238 221 113 q 94 521 94 363 q 190 822 94 683 q 428 1040 286 960 q 699 1119 569 1119 m 618 994 q 456 942 529 994 q 341 796 383 889 q 299 588 299 703 q 340 342 299 453 q 468 164 382 231 q 681 97 554 97 q 842 150 769 97 q 958 296 915 203 q 1000 504 1000 389 q 958 751 1000 640 q 831 928 917 863 q 618 994 744 994 z "},"Ó":{"ha":1299,"x_min":94,"x_max":1206,"o":"m 699 1119 q 964 1049 849 1119 q 1142 853 1079 978 q 1206 569 1206 728 q 1110 269 1206 407 q 872 52 1014 132 q 600 -28 729 -28 q 336 42 451 -28 q 158 238 221 113 q 94 521 94 363 q 190 822 94 683 q 428 1040 286 960 q 699 1119 569 1119 m 618 994 q 456 942 529 994 q 341 796 383 889 q 299 588 299 703 q 340 342 299 453 q 468 164 382 231 q 681 97 554 97 q 842 150 769 97 q 958 296 915 203 q 1000 504 1000 389 q 958 751 1000 640 q 831 928 917 863 q 618 994 744 994 m 936 1525 l 621 1290 l 560 1319 l 708 1592 l 908 1565 l 936 1525 z "},"Ô":{"ha":1299,"x_min":94,"x_max":1206,"o":"m 699 1119 q 964 1049 849 1119 q 1142 853 1079 978 q 1206 569 1206 728 q 1110 269 1206 407 q 872 52 1014 132 q 600 -28 729 -28 q 336 42 451 -28 q 158 238 221 113 q 94 521 94 363 q 190 822 94 683 q 428 1040 286 960 q 699 1119 569 1119 m 618 994 q 456 942 529 994 q 341 796 383 889 q 299 588 299 703 q 340 342 299 453 q 468 164 382 231 q 681 97 554 97 q 842 150 769 97 q 958 296 915 203 q 1000 504 1000 389 q 958 751 1000 640 q 831 928 917 863 q 618 994 744 994 m 942 1297 l 754 1271 l 601 1453 l 376 1282 l 332 1340 l 644 1581 l 969 1338 l 942 1297 z "},"Ö":{"ha":1299,"x_min":94,"x_max":1206,"o":"m 443 1533 q 510 1503 485 1533 q 536 1426 536 1472 q 517 1367 536 1394 q 470 1322 499 1339 q 415 1306 442 1306 q 348 1336 375 1306 q 321 1411 321 1367 q 340 1472 321 1443 q 388 1517 358 1500 q 443 1533 417 1533 m 885 1533 q 952 1503 926 1533 q 978 1426 978 1472 q 959 1367 978 1394 q 912 1322 940 1339 q 857 1306 883 1306 q 790 1336 817 1306 q 763 1411 763 1367 q 781 1472 763 1443 q 829 1517 800 1500 q 885 1533 858 1533 m 699 1119 q 964 1049 849 1119 q 1142 853 1079 978 q 1206 569 1206 728 q 1110 269 1206 407 q 872 52 1014 132 q 600 -28 729 -28 q 336 42 451 -28 q 158 238 221 113 q 94 521 94 363 q 190 822 94 683 q 428 1040 286 960 q 699 1119 569 1119 m 618 994 q 456 942 529 994 q 341 796 383 889 q 299 588 299 703 q 340 342 299 453 q 468 164 382 231 q 681 97 554 97 q 842 150 769 97 q 958 296 915 203 q 1000 504 1000 389 q 958 751 1000 640 q 831 928 917 863 q 618 994 744 994 z "},"Ò":{"ha":1299,"x_min":94,"x_max":1206,"o":"m 699 1119 q 964 1049 849 1119 q 1142 853 1079 978 q 1206 569 1206 728 q 1110 269 1206 407 q 872 52 1014 132 q 600 -28 729 -28 q 336 42 451 -28 q 158 238 221 113 q 94 521 94 363 q 190 822 94 683 q 428 1040 286 960 q 699 1119 569 1119 m 618 994 q 456 942 529 994 q 341 796 383 889 q 299 588 299 703 q 340 342 299 453 q 468 164 382 231 q 681 97 554 97 q 842 150 769 97 q 958 296 915 203 q 1000 504 1000 389 q 958 751 1000 640 q 831 928 917 863 q 618 994 744 994 m 682 1290 l 365 1525 l 393 1565 l 593 1592 l 742 1319 l 682 1290 z "},"Ő":{"ha":1299,"x_min":94,"x_max":1206,"o":"m 699 1119 q 964 1049 849 1119 q 1142 853 1079 978 q 1206 569 1206 728 q 1110 269 1206 407 q 872 52 1014 132 q 600 -28 729 -28 q 336 42 451 -28 q 158 238 221 113 q 94 521 94 363 q 190 822 94 683 q 428 1040 286 960 q 699 1119 569 1119 m 618 994 q 456 942 529 994 q 341 796 383 889 q 299 588 299 703 q 340 342 299 453 q 468 164 382 231 q 681 97 554 97 q 842 150 769 97 q 958 296 915 203 q 1000 504 1000 389 q 958 751 1000 640 q 831 928 917 863 q 618 994 744 994 m 444 1315 l 358 1314 l 438 1558 l 603 1568 l 658 1536 l 444 1315 m 881 1315 l 794 1314 l 872 1558 l 1039 1568 l 1094 1536 l 881 1315 z "},"Ō":{"ha":1299,"x_min":94,"x_max":1206,"o":"m 699 1119 q 964 1049 849 1119 q 1142 853 1079 978 q 1206 569 1206 728 q 1110 269 1206 407 q 872 52 1014 132 q 600 -28 729 -28 q 336 42 451 -28 q 158 238 221 113 q 94 521 94 363 q 190 822 94 683 q 428 1040 286 960 q 699 1119 569 1119 m 618 994 q 456 942 529 994 q 341 796 383 889 q 299 588 299 703 q 340 342 299 453 q 468 164 382 231 q 681 97 554 97 q 842 150 769 97 q 958 296 915 203 q 1000 504 1000 389 q 958 751 1000 640 q 831 928 917 863 q 618 994 744 994 m 325 1460 l 975 1460 l 975 1393 l 325 1393 l 325 1460 z "},"Ø":{"ha":1299,"x_min":93,"x_max":1203,"o":"m 972 1042 q 1142 848 1082 971 q 1203 569 1203 725 q 1107 269 1203 407 q 869 52 1011 132 q 597 -28 726 -28 q 382 18 482 -28 l 251 -208 l 193 -175 l 324 50 q 153 243 214 121 q 93 519 93 365 q 189 820 93 682 q 426 1038 285 958 q 697 1118 568 1118 q 915 1072 815 1118 l 1047 1300 l 1106 1267 l 975 1040 l 972 1042 m 296 586 q 326 376 296 474 q 414 211 356 278 l 828 928 q 615 994 739 994 q 453 942 526 994 q 338 796 381 889 q 296 588 296 703 l 296 586 m 678 96 q 840 149 767 96 q 955 294 913 201 q 997 503 997 388 q 967 715 997 617 q 879 879 938 813 l 465 163 q 678 96 554 96 z "},"Õ":{"ha":1299,"x_min":94,"x_max":1206,"o":"m 699 1119 q 964 1049 849 1119 q 1142 853 1079 978 q 1206 569 1206 728 q 1110 269 1206 407 q 872 52 1014 132 q 600 -28 729 -28 q 336 42 451 -28 q 158 238 221 113 q 94 521 94 363 q 190 822 94 683 q 428 1040 286 960 q 699 1119 569 1119 m 618 994 q 456 942 529 994 q 341 796 383 889 q 299 588 299 703 q 340 342 299 453 q 468 164 382 231 q 681 97 554 97 q 842 150 769 97 q 958 296 915 203 q 1000 504 1000 389 q 958 751 1000 640 q 831 928 917 863 q 618 994 744 994 m 585 1585 q 775 1478 690 1478 q 857 1506 818 1478 l 908 1543 l 953 1485 l 713 1303 q 524 1410 607 1410 q 439 1381 478 1410 l 390 1344 l 346 1403 l 585 1585 z "},"Œ":{"ha":1722,"x_min":94,"x_max":1592,"o":"m 1511 0 l 956 0 q 700 -8 825 0 q 563 -14 606 -14 q 317 55 424 -14 q 153 246 211 124 q 94 522 94 368 q 184 815 94 681 q 407 1027 274 949 q 661 1106 540 1106 q 790 1099 728 1106 q 954 1092 899 1092 l 1497 1092 l 1578 1117 l 1578 790 l 1529 774 l 1363 1021 l 1008 1021 l 1008 593 l 1197 593 l 1300 767 l 1350 767 l 1350 349 l 1288 317 l 1199 522 l 1008 522 l 1008 71 l 1357 71 l 1543 347 l 1592 329 l 1592 -25 l 1511 0 m 299 588 q 340 334 299 449 q 464 151 381 219 q 671 82 547 82 q 819 129 753 82 l 819 964 q 622 997 735 997 q 458 944 532 997 q 342 798 385 892 q 299 588 299 704 z "},"P":{"ha":1086,"x_min":64,"x_max":1011,"o":"m 613 533 q 755 585 703 533 q 807 726 807 636 q 745 929 807 850 q 564 1008 683 1008 q 400 957 472 1008 l 400 119 l 621 61 l 589 -1 l 81 -1 l 81 49 l 211 151 l 211 982 l 64 1029 l 96 1092 l 271 1092 q 531 1100 403 1092 q 672 1106 628 1106 q 849 1064 772 1106 q 969 951 926 1022 q 1011 790 1011 879 q 939 606 1011 693 q 756 471 867 519 q 538 428 644 422 l 474 472 l 506 535 l 611 535 l 613 533 z "},"Þ":{"ha":1082,"x_min":63,"x_max":1007,"o":"m 672 844 q 847 808 771 844 q 965 710 924 772 q 1007 572 1007 647 q 935 411 1007 488 q 754 291 864 335 q 538 253 644 247 l 474 299 l 506 361 l 611 361 q 751 401 700 361 q 803 510 803 440 q 741 681 803 614 q 563 749 679 749 q 399 697 471 749 l 399 111 l 546 63 l 515 0 l 79 0 l 79 50 l 210 153 l 210 981 l 63 1028 l 94 1090 l 531 1090 l 531 1040 l 399 936 l 399 832 q 529 839 457 833 q 672 844 626 844 z "},"Q":{"ha":1299,"x_min":94,"x_max":1474,"o":"m 1474 -264 q 1163 -367 1247 -367 q 1010 -262 1113 -367 q 768 4 908 -158 q 600 -28 679 -28 q 336 42 451 -28 q 158 238 221 113 q 94 521 94 363 q 190 822 94 683 q 428 1040 286 960 q 699 1119 569 1119 q 964 1049 849 1119 q 1142 853 1079 978 q 1206 569 1206 728 q 1112 274 1206 410 q 876 56 1018 138 q 1119 -119 1008 -43 q 1254 -194 1231 -194 l 1442 -194 l 1474 -264 m 299 588 q 340 342 299 453 q 468 164 382 231 q 681 97 554 97 q 842 150 769 97 q 958 296 915 203 q 1000 504 1000 389 q 958 751 1000 640 q 831 928 917 863 q 618 994 744 994 q 456 942 529 994 q 341 796 383 889 q 299 588 299 703 z "},"R":{"ha":1135,"x_min":64,"x_max":1136,"o":"m 1104 1 l 838 1 l 540 492 l 475 538 l 499 585 l 574 585 q 717 632 665 585 q 769 763 769 679 q 710 941 769 871 q 538 1011 651 1011 q 400 965 464 1011 l 400 111 l 547 63 l 517 0 l 81 0 l 81 50 l 211 153 l 211 983 l 64 1029 l 96 1092 l 271 1092 q 517 1100 397 1092 q 647 1106 606 1106 q 818 1068 743 1106 q 934 966 893 1031 q 975 825 975 901 q 933 694 975 757 q 821 585 890 632 q 674 513 751 538 l 768 482 l 975 140 l 1136 64 l 1104 1 z "},"Ŕ":{"ha":1135,"x_min":64,"x_max":1136,"o":"m 1104 1 l 838 1 l 540 492 l 475 538 l 499 585 l 574 585 q 717 632 665 585 q 769 763 769 679 q 710 941 769 871 q 538 1011 651 1011 q 400 965 464 1011 l 400 111 l 547 63 l 517 0 l 81 0 l 81 50 l 211 153 l 211 983 l 64 1029 l 96 1092 l 271 1092 q 517 1100 397 1092 q 647 1106 606 1106 q 818 1068 743 1106 q 934 966 893 1031 q 975 825 975 901 q 933 694 975 757 q 821 585 890 632 q 674 513 751 538 l 768 482 l 975 140 l 1136 64 l 1104 1 m 821 1525 l 506 1290 l 444 1319 l 593 1592 l 793 1565 l 821 1525 z "},"Ř":{"ha":1135,"x_min":64,"x_max":1136,"o":"m 1104 1 l 838 1 l 540 492 l 475 538 l 499 585 l 574 585 q 717 632 665 585 q 769 763 769 679 q 710 941 769 871 q 538 1011 651 1011 q 400 965 464 1011 l 400 111 l 547 63 l 517 0 l 81 0 l 81 50 l 211 153 l 211 983 l 64 1029 l 96 1092 l 271 1092 q 517 1100 397 1092 q 647 1106 606 1106 q 818 1068 743 1106 q 934 966 893 1031 q 975 825 975 901 q 933 694 975 757 q 821 585 890 632 q 674 513 751 538 l 768 482 l 975 140 l 1136 64 l 1104 1 m 540 1282 l 215 1525 l 243 1565 l 431 1592 l 583 1410 l 808 1581 l 853 1522 l 540 1282 z "},"Ŗ":{"ha":1135,"x_min":64,"x_max":1136,"o":"m 1104 1 l 838 1 l 540 492 l 475 538 l 499 585 l 574 585 q 717 632 665 585 q 769 763 769 679 q 710 941 769 871 q 538 1011 651 1011 q 400 965 464 1011 l 400 111 l 547 63 l 517 0 l 81 0 l 81 50 l 211 153 l 211 983 l 64 1029 l 96 1092 l 271 1092 q 517 1100 397 1092 q 647 1106 606 1106 q 818 1068 743 1106 q 934 966 893 1031 q 975 825 975 901 q 933 694 975 757 q 821 585 890 632 q 674 513 751 538 l 768 482 l 975 140 l 1136 64 l 1104 1 m 789 -165 l 611 -422 l 544 -422 l 581 -254 l 471 -178 l 501 -115 l 789 -115 l 789 -165 z "},"S":{"ha":972,"x_min":97,"x_max":882,"o":"m 688 243 q 653 324 688 286 q 567 392 618 361 q 428 469 515 424 q 259 564 324 524 q 149 659 194 604 q 104 781 104 714 q 163 930 104 850 q 308 1065 222 1010 q 467 1119 394 1119 q 670 1099 554 1119 q 840 1054 786 1078 l 840 778 l 772 778 q 628 953 707 890 q 461 1015 549 1015 q 343 969 386 1015 q 300 849 300 922 q 335 763 300 803 q 424 692 371 724 q 565 614 476 660 q 733 519 671 558 q 838 428 794 481 q 882 310 882 375 q 819 160 882 240 q 664 26 756 81 q 497 -29 572 -29 q 279 -8 406 -29 q 97 36 153 13 l 97 313 l 165 313 q 323 138 235 200 q 504 75 411 75 q 601 99 560 75 q 665 160 643 122 q 688 243 688 199 z "},"Ś":{"ha":972,"x_min":97,"x_max":882,"o":"m 688 243 q 653 324 688 286 q 567 392 618 361 q 428 469 515 424 q 259 564 324 524 q 149 659 194 604 q 104 781 104 714 q 163 930 104 850 q 308 1065 222 1010 q 467 1119 394 1119 q 670 1099 554 1119 q 840 1054 786 1078 l 840 778 l 772 778 q 628 953 707 890 q 461 1015 549 1015 q 343 969 386 1015 q 300 849 300 922 q 335 763 300 803 q 424 692 371 724 q 565 614 476 660 q 733 519 671 558 q 838 428 794 481 q 882 310 882 375 q 819 160 882 240 q 664 26 756 81 q 497 -29 572 -29 q 279 -8 406 -29 q 97 36 153 13 l 97 313 l 165 313 q 323 138 235 200 q 504 75 411 75 q 601 99 560 75 q 665 160 643 122 q 688 243 688 199 m 758 1525 l 443 1290 l 382 1319 l 531 1592 l 731 1565 l 758 1525 z "},"Š":{"ha":972,"x_min":97,"x_max":882,"o":"m 688 243 q 653 324 688 286 q 567 392 618 361 q 428 469 515 424 q 259 564 324 524 q 149 659 194 604 q 104 781 104 714 q 163 930 104 850 q 308 1065 222 1010 q 467 1119 394 1119 q 670 1099 554 1119 q 840 1054 786 1078 l 840 778 l 772 778 q 628 953 707 890 q 461 1015 549 1015 q 343 969 386 1015 q 300 849 300 922 q 335 763 300 803 q 424 692 371 724 q 565 614 476 660 q 733 519 671 558 q 838 428 794 481 q 882 310 882 375 q 819 160 882 240 q 664 26 756 81 q 497 -29 572 -29 q 279 -8 406 -29 q 97 36 153 13 l 97 313 l 165 313 q 323 138 235 200 q 504 75 411 75 q 601 99 560 75 q 665 160 643 122 q 688 243 688 199 m 478 1282 l 153 1525 l 181 1565 l 368 1592 l 521 1410 l 746 1581 l 790 1522 l 478 1282 z "},"Ş":{"ha":972,"x_min":97,"x_max":885,"o":"m 885 311 q 839 185 885 253 q 721 63 793 118 q 578 -15 649 8 l 514 -67 q 607 -153 582 -118 q 632 -226 632 -187 q 565 -325 632 -290 q 358 -367 499 -360 l 358 -317 q 481 -201 481 -278 q 460 -147 481 -171 q 392 -93 440 -124 l 468 -28 q 262 -6 375 -25 q 97 36 149 14 l 97 313 l 165 313 q 323 138 235 200 q 504 75 411 75 q 601 99 560 75 q 665 160 643 122 q 688 243 688 199 q 653 324 688 286 q 567 392 618 361 q 428 469 515 424 q 259 564 324 524 q 149 659 194 604 q 104 781 104 714 q 163 930 104 850 q 308 1065 222 1010 q 467 1119 394 1119 q 670 1099 554 1119 q 840 1054 786 1078 l 840 778 l 772 778 q 628 953 707 890 q 461 1015 549 1015 q 343 969 386 1015 q 300 849 300 922 q 335 763 300 803 q 424 692 371 724 q 565 614 476 660 q 733 519 671 558 q 838 428 794 481 q 882 310 882 375 l 885 311 z "},"Ș":{"ha":972,"x_min":97,"x_max":882,"o":"m 688 243 q 653 324 688 286 q 567 392 618 361 q 428 469 515 424 q 259 564 324 524 q 149 659 194 604 q 104 781 104 714 q 163 930 104 850 q 308 1065 222 1010 q 467 1119 394 1119 q 670 1099 554 1119 q 840 1054 786 1078 l 840 778 l 772 778 q 628 953 707 890 q 461 1015 549 1015 q 343 969 386 1015 q 300 849 300 922 q 335 763 300 803 q 424 692 371 724 q 565 614 476 660 q 733 519 671 558 q 838 428 794 481 q 882 310 882 375 q 819 160 882 240 q 664 26 756 81 q 497 -29 572 -29 q 279 -8 406 -29 q 97 36 153 13 l 97 313 l 165 313 q 323 138 235 200 q 504 75 411 75 q 601 99 560 75 q 665 160 643 122 q 688 243 688 199 m 646 -165 l 468 -422 l 401 -422 l 438 -254 l 328 -178 l 358 -115 l 646 -115 l 646 -165 z "},"ẞ":{"ha":1254,"x_min":64,"x_max":1157,"o":"m 775 663 l 1156 663 l 1156 603 l 719 181 l 1031 181 l 1090 296 l 1139 281 l 1139 -25 l 1056 0 l 492 0 l 492 60 l 931 482 l 536 482 l 536 542 l 917 917 q 818 949 875 929 q 672 994 731 979 q 550 1008 613 1008 q 428 962 472 1008 q 385 842 385 915 l 385 0 l 64 0 l 64 50 l 194 153 l 194 781 q 253 930 194 850 q 399 1065 313 1010 q 557 1119 485 1119 q 799 1107 649 1119 q 970 1097 878 1101 q 1157 1092 1063 1092 l 1156 1040 l 775 663 z "},"T":{"ha":1160,"x_min":90,"x_max":1069,"o":"m 1069 763 l 1021 746 l 833 1021 l 672 1021 l 672 110 l 819 63 l 789 0 l 353 0 l 353 50 l 483 153 l 483 1021 l 326 1021 l 139 746 l 90 763 l 90 1117 l 171 1092 l 989 1092 l 1069 1117 l 1069 763 z "},"Ŧ":{"ha":1160,"x_min":90,"x_max":1069,"o":"m 1069 763 l 1021 746 l 833 1021 l 672 1021 l 672 579 l 936 579 l 936 508 l 672 508 l 672 110 l 819 63 l 789 0 l 353 0 l 353 50 l 483 153 l 483 508 l 222 508 l 222 579 l 483 579 l 483 1021 l 326 1021 l 139 746 l 90 763 l 90 1117 l 171 1092 l 989 1092 l 1069 1117 l 1069 763 z "},"Ť":{"ha":1160,"x_min":90,"x_max":1069,"o":"m 1069 763 l 1021 746 l 833 1021 l 672 1021 l 672 110 l 819 63 l 789 0 l 353 0 l 353 50 l 483 153 l 483 1021 l 326 1021 l 139 746 l 90 763 l 90 1117 l 171 1092 l 989 1092 l 1069 1117 l 1069 763 m 585 1282 l 260 1525 l 288 1565 l 475 1592 l 628 1410 l 853 1581 l 897 1522 l 585 1282 z "},"Ţ":{"ha":1160,"x_min":90,"x_max":1071,"o":"m 1071 765 l 1022 749 l 835 1024 l 674 1024 l 674 113 l 710 101 l 715 97 l 819 64 l 789 1 l 686 1 l 604 -67 q 697 -153 672 -118 q 722 -226 722 -187 q 656 -325 722 -290 q 449 -367 589 -360 l 449 -317 q 571 -201 571 -278 q 551 -147 571 -171 q 482 -93 531 -124 l 594 0 l 353 0 l 353 50 l 483 153 l 483 1021 l 326 1021 l 139 746 l 90 763 l 90 1117 l 171 1092 l 989 1092 l 1071 1119 l 1071 765 z "},"Ț":{"ha":1160,"x_min":90,"x_max":1069,"o":"m 1069 763 l 1021 746 l 833 1021 l 672 1021 l 672 110 l 819 63 l 789 0 l 353 0 l 353 50 l 483 153 l 483 1021 l 326 1021 l 139 746 l 90 763 l 90 1117 l 171 1092 l 989 1092 l 1069 1117 l 1069 763 m 738 -165 l 560 -422 l 493 -422 l 529 -254 l 419 -178 l 450 -115 l 738 -115 l 738 -165 z "},"U":{"ha":1247,"x_min":47,"x_max":1210,"o":"m 1078 939 l 1078 431 q 1007 181 1078 285 q 832 24 936 76 q 629 -28 728 -28 q 403 27 503 -28 q 249 178 304 82 q 193 396 193 275 l 193 982 l 47 1029 l 78 1092 l 514 1092 l 514 1042 l 382 939 l 382 460 q 467 193 382 289 q 724 97 551 97 q 849 138 788 97 q 951 258 911 179 q 992 446 992 338 l 992 960 l 844 1029 l 875 1092 l 1210 1092 l 1210 1042 l 1078 939 z "},"Ú":{"ha":1247,"x_min":47,"x_max":1210,"o":"m 1078 939 l 1078 431 q 1007 181 1078 285 q 832 24 936 76 q 629 -28 728 -28 q 403 27 503 -28 q 249 178 304 82 q 193 396 193 275 l 193 982 l 47 1029 l 78 1092 l 514 1092 l 514 1042 l 382 939 l 382 460 q 467 193 382 289 q 724 97 551 97 q 849 138 788 97 q 951 258 911 179 q 992 446 992 338 l 992 960 l 844 1029 l 875 1092 l 1210 1092 l 1210 1042 l 1078 939 m 928 1525 l 613 1290 l 551 1319 l 700 1592 l 900 1565 l 928 1525 z "},"Û":{"ha":1247,"x_min":47,"x_max":1210,"o":"m 1078 939 l 1078 431 q 1007 181 1078 285 q 832 24 936 76 q 629 -28 728 -28 q 403 27 503 -28 q 249 178 304 82 q 193 396 193 275 l 193 982 l 47 1029 l 78 1092 l 514 1092 l 514 1042 l 382 939 l 382 460 q 467 193 382 289 q 724 97 551 97 q 849 138 788 97 q 951 258 911 179 q 992 446 992 338 l 992 960 l 844 1029 l 875 1092 l 1210 1092 l 1210 1042 l 1078 939 m 933 1297 l 746 1271 l 593 1453 l 368 1282 l 324 1340 l 636 1581 l 961 1338 l 933 1297 z "},"Ü":{"ha":1247,"x_min":47,"x_max":1210,"o":"m 407 1306 q 340 1336 367 1306 q 313 1411 313 1367 q 331 1472 313 1443 q 379 1517 350 1500 q 435 1533 408 1533 q 502 1503 476 1533 q 528 1426 528 1472 q 509 1367 528 1394 q 462 1322 490 1339 q 407 1306 433 1306 m 849 1306 q 781 1336 808 1306 q 754 1411 754 1367 q 773 1472 754 1443 q 821 1517 792 1500 q 876 1533 850 1533 q 944 1503 918 1533 q 969 1426 969 1472 q 951 1367 969 1394 q 903 1322 932 1339 q 849 1306 875 1306 m 1078 939 l 1078 431 q 1007 181 1078 285 q 832 24 936 76 q 629 -28 728 -28 q 403 27 503 -28 q 249 178 304 82 q 193 396 193 275 l 193 982 l 47 1029 l 78 1092 l 514 1092 l 514 1042 l 382 939 l 382 460 q 467 193 382 289 q 724 97 551 97 q 849 138 788 97 q 951 258 911 179 q 992 446 992 338 l 992 960 l 844 1029 l 875 1092 l 1210 1092 l 1210 1042 l 1078 939 z "},"Ù":{"ha":1247,"x_min":47,"x_max":1210,"o":"m 1078 939 l 1078 431 q 1007 181 1078 285 q 832 24 936 76 q 629 -28 728 -28 q 403 27 503 -28 q 249 178 304 82 q 193 396 193 275 l 193 982 l 47 1029 l 78 1092 l 514 1092 l 514 1042 l 382 939 l 382 460 q 467 193 382 289 q 724 97 551 97 q 849 138 788 97 q 951 258 911 179 q 992 446 992 338 l 992 960 l 844 1029 l 875 1092 l 1210 1092 l 1210 1042 l 1078 939 m 674 1290 l 357 1525 l 385 1565 l 585 1592 l 733 1319 l 674 1290 z "},"Ű":{"ha":1247,"x_min":47,"x_max":1210,"o":"m 1078 939 l 1078 431 q 1007 181 1078 285 q 832 24 936 76 q 629 -28 728 -28 q 403 27 503 -28 q 249 178 304 82 q 193 396 193 275 l 193 982 l 47 1029 l 78 1092 l 514 1092 l 514 1042 l 382 939 l 382 460 q 467 193 382 289 q 724 97 551 97 q 849 138 788 97 q 951 258 911 179 q 992 446 992 338 l 992 960 l 844 1029 l 875 1092 l 1210 1092 l 1210 1042 l 1078 939 m 436 1315 l 350 1314 l 429 1558 l 594 1568 l 650 1536 l 436 1315 m 872 1315 l 786 1314 l 864 1558 l 1031 1568 l 1086 1536 l 872 1315 z "},"Ū":{"ha":1247,"x_min":47,"x_max":1210,"o":"m 1078 939 l 1078 431 q 1007 181 1078 285 q 832 24 936 76 q 629 -28 728 -28 q 403 27 503 -28 q 249 178 304 82 q 193 396 193 275 l 193 982 l 47 1029 l 78 1092 l 514 1092 l 514 1042 l 382 939 l 382 460 q 467 193 382 289 q 724 97 551 97 q 849 138 788 97 q 951 258 911 179 q 992 446 992 338 l 992 960 l 844 1029 l 875 1092 l 1210 1092 l 1210 1042 l 1078 939 m 317 1460 l 967 1460 l 967 1393 l 317 1393 l 317 1460 z "},"Ų":{"ha":1247,"x_min":47,"x_max":1211,"o":"m 1079 939 l 1079 431 q 1042 243 1079 326 q 940 100 1004 160 q 803 -64 833 -14 q 772 -146 772 -114 q 792 -194 772 -178 q 854 -217 811 -211 l 854 -276 l 740 -367 q 640 -312 675 -347 q 604 -229 604 -276 q 615 -154 604 -181 l 758 -7 q 629 -28 692 -28 q 403 27 503 -28 q 249 178 304 82 q 193 396 193 275 l 193 982 l 47 1029 l 78 1092 l 514 1092 l 514 1042 l 382 939 l 382 460 q 467 193 382 289 q 724 97 551 97 q 849 138 788 97 q 951 258 911 179 q 992 446 992 338 l 992 960 l 844 1029 l 875 1092 l 1210 1092 l 1211 1042 l 1079 939 z "},"Ů":{"ha":1247,"x_min":47,"x_max":1210,"o":"m 1078 939 l 1078 431 q 1007 181 1078 285 q 832 24 936 76 q 629 -28 728 -28 q 403 27 503 -28 q 249 178 304 82 q 193 396 193 275 l 193 982 l 47 1029 l 78 1092 l 514 1092 l 514 1042 l 382 939 l 382 460 q 467 193 382 289 q 724 97 551 97 q 849 138 788 97 q 951 258 911 179 q 992 446 992 338 l 992 960 l 844 1029 l 875 1092 l 1210 1092 l 1210 1042 l 1078 939 m 690 1581 q 804 1541 758 1581 q 850 1443 850 1501 q 810 1351 850 1394 q 710 1283 771 1308 q 592 1257 650 1257 q 478 1297 524 1257 q 432 1394 432 1338 q 472 1486 432 1443 q 572 1555 511 1529 q 690 1581 632 1581 m 610 1515 q 558 1501 576 1515 q 540 1460 540 1486 q 575 1362 540 1400 q 672 1324 610 1324 q 724 1338 706 1324 q 743 1379 743 1353 q 708 1476 743 1438 q 610 1515 674 1515 z "},"V":{"ha":1225,"x_min":-1,"x_max":1225,"o":"m 1090 938 l 704 44 l 542 -26 l 138 949 l -1 1029 l 29 1092 l 471 1092 l 471 1042 l 336 943 l 664 150 l 1004 942 l 767 1029 l 797 1092 l 1225 1092 l 1225 1042 l 1090 938 z "},"W":{"ha":1683,"x_min":-1,"x_max":1683,"o":"m 1560 946 l 1231 46 l 1067 -25 l 850 611 l 654 46 l 490 -25 l 131 954 l -1 1031 l 29 1093 l 424 1093 l 424 1043 l 324 968 l 611 169 l 808 732 l 732 954 l 604 1029 l 635 1092 l 1058 1092 l 1058 1042 l 932 949 l 1189 171 l 1467 942 l 1225 1029 l 1257 1092 l 1683 1092 l 1683 1043 l 1560 946 z "},"Ẃ":{"ha":1683,"x_min":-1,"x_max":1683,"o":"m 1560 946 l 1231 46 l 1067 -25 l 850 611 l 654 46 l 490 -25 l 131 954 l -1 1031 l 29 1093 l 424 1093 l 424 1043 l 324 968 l 611 169 l 808 732 l 732 954 l 604 1029 l 635 1092 l 1058 1092 l 1058 1042 l 932 949 l 1189 171 l 1467 942 l 1225 1029 l 1257 1092 l 1683 1092 l 1683 1043 l 1560 946 m 1167 1525 l 851 1290 l 790 1319 l 939 1592 l 1139 1565 l 1167 1525 z "},"Ŵ":{"ha":1683,"x_min":-1,"x_max":1683,"o":"m 1560 946 l 1231 46 l 1067 -25 l 850 611 l 654 46 l 490 -25 l 131 954 l -1 1031 l 29 1093 l 424 1093 l 424 1043 l 324 968 l 611 169 l 808 732 l 732 954 l 604 1029 l 635 1092 l 1058 1092 l 1058 1042 l 932 949 l 1189 171 l 1467 942 l 1225 1029 l 1257 1092 l 1683 1092 l 1683 1043 l 1560 946 m 1172 1297 l 985 1271 l 832 1453 l 607 1282 l 563 1340 l 875 1581 l 1200 1338 l 1172 1297 z "},"Ẅ":{"ha":1683,"x_min":-1,"x_max":1683,"o":"m 646 1306 q 578 1336 606 1306 q 551 1411 551 1367 q 570 1472 551 1443 q 618 1517 589 1500 q 674 1533 647 1533 q 741 1503 715 1533 q 767 1426 767 1472 q 748 1367 767 1394 q 701 1322 729 1339 q 646 1306 672 1306 m 1088 1306 q 1020 1336 1047 1306 q 993 1411 993 1367 q 1012 1472 993 1443 q 1060 1517 1031 1500 q 1115 1533 1089 1533 q 1183 1503 1157 1533 q 1208 1426 1208 1472 q 1190 1367 1208 1394 q 1142 1322 1171 1339 q 1088 1306 1114 1306 m 1560 946 l 1231 46 l 1067 -25 l 850 611 l 654 46 l 490 -25 l 131 954 l -1 1031 l 29 1093 l 424 1093 l 424 1043 l 324 968 l 611 169 l 808 732 l 732 954 l 604 1029 l 635 1092 l 1058 1092 l 1058 1042 l 932 949 l 1189 171 l 1467 942 l 1225 1029 l 1257 1092 l 1683 1092 l 1683 1043 l 1560 946 z "},"Ẁ":{"ha":1683,"x_min":-1,"x_max":1683,"o":"m 1560 946 l 1231 46 l 1067 -25 l 850 611 l 654 46 l 490 -25 l 131 954 l -1 1031 l 29 1093 l 424 1093 l 424 1043 l 324 968 l 611 169 l 808 732 l 732 954 l 604 1029 l 635 1092 l 1058 1092 l 1058 1042 l 932 949 l 1189 171 l 1467 942 l 1225 1029 l 1257 1092 l 1683 1092 l 1683 1043 l 1560 946 m 913 1290 l 596 1525 l 624 1565 l 824 1592 l 972 1319 l 913 1290 z "},"X":{"ha":1217,"x_min":25,"x_max":1179,"o":"m 1149 -1 l 714 -1 l 714 49 l 824 131 l 567 451 l 289 143 l 483 63 l 451 0 l 25 0 l 25 50 l 179 146 l 515 515 l 172 947 l 36 1029 l 68 1092 l 503 1092 l 503 1042 l 392 961 l 647 642 l 901 946 l 706 1028 l 736 1090 l 1164 1090 l 1164 1040 l 1018 950 l 700 578 l 1049 139 l 1179 61 l 1149 -1 z "},"Y":{"ha":1128,"x_min":-3,"x_max":1128,"o":"m 653 110 l 800 63 l 769 0 l 335 0 l 335 50 l 465 153 l 465 389 l 106 967 l -3 1029 l 25 1092 l 457 1092 l 457 1042 l 333 946 l 606 507 l 886 939 l 669 1029 l 700 1092 l 1128 1092 l 1128 1042 l 1010 967 l 653 417 l 653 110 z "},"Ý":{"ha":1128,"x_min":-3,"x_max":1128,"o":"m 653 110 l 800 63 l 769 0 l 335 0 l 335 50 l 465 153 l 465 389 l 106 967 l -3 1029 l 25 1092 l 457 1092 l 457 1042 l 333 946 l 606 507 l 886 939 l 669 1029 l 700 1092 l 1128 1092 l 1128 1042 l 1010 967 l 653 417 l 653 110 m 851 1525 l 536 1290 l 475 1319 l 624 1592 l 824 1565 l 851 1525 z "},"Ŷ":{"ha":1128,"x_min":-3,"x_max":1128,"o":"m 653 110 l 800 63 l 769 0 l 335 0 l 335 50 l 465 153 l 465 389 l 106 967 l -3 1029 l 25 1092 l 457 1092 l 457 1042 l 333 946 l 606 507 l 886 939 l 669 1029 l 700 1092 l 1128 1092 l 1128 1042 l 1010 967 l 653 417 l 653 110 m 857 1297 l 669 1271 l 517 1453 l 292 1282 l 247 1340 l 560 1581 l 885 1338 l 857 1297 z "},"Ÿ":{"ha":1128,"x_min":-3,"x_max":1128,"o":"m 331 1306 q 263 1336 290 1306 q 236 1411 236 1367 q 255 1472 236 1443 q 303 1517 274 1500 q 358 1533 332 1533 q 426 1503 400 1533 q 451 1426 451 1472 q 433 1367 451 1394 q 385 1322 414 1339 q 331 1306 357 1306 m 772 1306 q 705 1336 732 1306 q 678 1411 678 1367 q 697 1472 678 1443 q 744 1517 715 1500 q 800 1533 774 1533 q 867 1503 842 1533 q 893 1426 893 1472 q 874 1367 893 1394 q 827 1322 856 1339 q 772 1306 799 1306 m 653 110 l 800 63 l 769 0 l 335 0 l 335 50 l 465 153 l 465 389 l 106 967 l -3 1029 l 25 1092 l 457 1092 l 457 1042 l 333 946 l 606 507 l 886 939 l 669 1029 l 700 1092 l 1128 1092 l 1128 1042 l 1010 967 l 653 417 l 653 110 z "},"Ỳ":{"ha":1128,"x_min":-3,"x_max":1128,"o":"m 653 110 l 800 63 l 769 0 l 335 0 l 335 50 l 465 153 l 465 389 l 106 967 l -3 1029 l 25 1092 l 457 1092 l 457 1042 l 333 946 l 606 507 l 886 939 l 669 1029 l 700 1092 l 1128 1092 l 1128 1042 l 1010 967 l 653 417 l 653 110 m 597 1290 l 281 1525 l 308 1565 l 508 1592 l 657 1319 l 597 1290 z "},"Z":{"ha":1097,"x_min":89,"x_max":1001,"o":"m 746 71 l 939 361 l 988 343 l 988 -25 l 907 0 l 89 0 l 89 71 l 781 1021 l 356 1021 l 181 760 l 132 776 l 132 1117 l 213 1092 l 1001 1092 l 1001 1021 l 310 71 l 746 71 z "},"Ź":{"ha":1097,"x_min":89,"x_max":1001,"o":"m 746 71 l 939 361 l 988 343 l 988 -25 l 907 0 l 89 0 l 89 71 l 781 1021 l 356 1021 l 181 760 l 132 776 l 132 1117 l 213 1092 l 1001 1092 l 1001 1021 l 310 71 l 746 71 m 835 1525 l 519 1290 l 458 1319 l 607 1592 l 807 1565 l 835 1525 z "},"Ž":{"ha":1097,"x_min":89,"x_max":1001,"o":"m 746 71 l 939 361 l 988 343 l 988 -25 l 907 0 l 89 0 l 89 71 l 781 1021 l 356 1021 l 181 760 l 132 776 l 132 1117 l 213 1092 l 1001 1092 l 1001 1021 l 310 71 l 746 71 m 554 1282 l 229 1525 l 257 1565 l 444 1592 l 597 1410 l 822 1581 l 867 1522 l 554 1282 z "},"Ż":{"ha":1097,"x_min":89,"x_max":1001,"o":"m 746 71 l 939 361 l 988 343 l 988 -25 l 907 0 l 89 0 l 89 71 l 781 1021 l 356 1021 l 181 760 l 132 776 l 132 1117 l 213 1092 l 1001 1092 l 1001 1021 l 310 71 l 746 71 m 564 1536 q 639 1503 610 1536 q 668 1424 668 1471 q 647 1360 668 1390 q 594 1313 626 1331 q 532 1296 563 1296 q 458 1328 488 1296 q 429 1408 429 1360 q 450 1472 429 1442 q 503 1519 471 1501 q 564 1536 535 1536 z "},"a":{"ha":875,"x_min":81,"x_max":843,"o":"m 813 0 l 538 0 l 538 121 l 381 -3 q 311 -14 353 -14 q 135 47 189 -14 q 81 193 81 107 q 115 292 81 243 q 217 386 150 342 l 538 386 l 538 461 q 364 624 538 624 q 144 525 276 624 l 103 583 l 301 740 q 440 754 365 754 q 645 690 572 754 q 718 506 718 626 l 718 111 l 843 63 l 813 0 m 361 118 q 538 192 443 118 l 538 322 l 296 322 q 272 281 279 301 q 265 235 265 260 q 292 152 265 186 q 361 118 318 118 z "},"á":{"ha":875,"x_min":81,"x_max":843,"o":"m 813 0 l 538 0 l 538 121 l 381 -3 q 311 -14 353 -14 q 135 47 189 -14 q 81 193 81 107 q 115 292 81 243 q 217 386 150 342 l 538 386 l 538 461 q 364 624 538 624 q 144 525 276 624 l 103 583 l 301 740 q 440 754 365 754 q 645 690 572 754 q 718 506 718 626 l 718 111 l 843 63 l 813 0 m 361 118 q 538 192 443 118 l 538 322 l 296 322 q 272 281 279 301 q 265 235 265 260 q 292 152 265 186 q 361 118 318 118 m 706 1172 l 390 938 l 329 967 l 478 1239 l 678 1213 l 706 1172 z "},"ă":{"ha":875,"x_min":81,"x_max":843,"o":"m 813 0 l 538 0 l 538 121 l 381 -3 q 311 -14 353 -14 q 135 47 189 -14 q 81 193 81 107 q 115 292 81 243 q 217 386 150 342 l 538 386 l 538 461 q 364 624 538 624 q 144 525 276 624 l 103 583 l 301 740 q 440 754 365 754 q 645 690 572 754 q 718 506 718 626 l 718 111 l 843 63 l 813 0 m 361 118 q 538 192 443 118 l 538 322 l 296 322 q 272 281 279 301 q 265 235 265 260 q 292 152 265 186 q 361 118 318 118 m 717 1215 q 667 1099 714 1158 q 549 1000 619 1039 q 411 961 478 961 q 249 994 328 961 q 133 1099 171 1028 l 282 1215 q 358 1094 317 1129 q 449 1058 399 1058 q 521 1081 493 1058 q 550 1138 549 1104 l 717 1215 z "},"â":{"ha":875,"x_min":81,"x_max":843,"o":"m 813 0 l 538 0 l 538 121 l 381 -3 q 311 -14 353 -14 q 135 47 189 -14 q 81 193 81 107 q 115 292 81 243 q 217 386 150 342 l 538 386 l 538 461 q 364 624 538 624 q 144 525 276 624 l 103 583 l 301 740 q 440 754 365 754 q 645 690 572 754 q 718 506 718 626 l 718 111 l 843 63 l 813 0 m 361 118 q 538 192 443 118 l 538 322 l 296 322 q 272 281 279 301 q 265 235 265 260 q 292 152 265 186 q 361 118 318 118 m 711 944 l 524 918 l 371 1100 l 146 929 l 101 988 l 414 1228 l 739 985 l 711 944 z "},"ä":{"ha":875,"x_min":81,"x_max":843,"o":"m 214 953 q 147 983 174 953 q 121 1058 121 1014 q 140 1118 121 1090 q 187 1163 158 1146 q 242 1179 215 1179 q 308 1149 282 1179 q 335 1074 335 1118 q 316 1014 335 1042 q 269 969 297 986 q 214 953 240 953 m 596 953 q 529 983 556 953 q 503 1058 503 1014 q 522 1118 503 1090 q 569 1163 540 1146 q 624 1179 597 1179 q 690 1149 664 1179 q 717 1074 717 1118 q 698 1014 717 1042 q 651 969 679 986 q 596 953 622 953 m 813 0 l 538 0 l 538 121 l 381 -3 q 311 -14 353 -14 q 135 47 189 -14 q 81 193 81 107 q 115 292 81 243 q 217 386 150 342 l 538 386 l 538 461 q 364 624 538 624 q 144 525 276 624 l 103 583 l 301 740 q 440 754 365 754 q 645 690 572 754 q 718 506 718 626 l 718 111 l 843 63 l 813 0 m 361 118 q 538 192 443 118 l 538 322 l 296 322 q 272 281 279 301 q 265 235 265 260 q 292 152 265 186 q 361 118 318 118 z "},"à":{"ha":875,"x_min":81,"x_max":843,"o":"m 813 0 l 538 0 l 538 121 l 381 -3 q 311 -14 353 -14 q 135 47 189 -14 q 81 193 81 107 q 115 292 81 243 q 217 386 150 342 l 538 386 l 538 461 q 364 624 538 624 q 144 525 276 624 l 103 583 l 301 740 q 440 754 365 754 q 645 690 572 754 q 718 506 718 626 l 718 111 l 843 63 l 813 0 m 361 118 q 538 192 443 118 l 538 322 l 296 322 q 272 281 279 301 q 265 235 265 260 q 292 152 265 186 q 361 118 318 118 m 451 938 l 135 1172 l 163 1213 l 363 1239 l 511 967 l 451 938 z "},"ā":{"ha":875,"x_min":81,"x_max":843,"o":"m 813 0 l 538 0 l 538 121 l 381 -3 q 311 -14 353 -14 q 135 47 189 -14 q 81 193 81 107 q 115 292 81 243 q 217 386 150 342 l 538 386 l 538 461 q 364 624 538 624 q 144 525 276 624 l 103 583 l 301 740 q 440 754 365 754 q 645 690 572 754 q 718 506 718 626 l 718 111 l 843 63 l 813 0 m 361 118 q 538 192 443 118 l 538 322 l 296 322 q 272 281 279 301 q 265 235 265 260 q 292 152 265 186 q 361 118 318 118 m 122 1107 l 717 1107 l 717 1038 l 122 1038 l 122 1107 z "},"ą":{"ha":875,"x_min":81,"x_max":843,"o":"m 813 0 l 811 0 q 729 -92 754 -56 q 704 -158 704 -129 q 719 -197 704 -183 q 768 -217 735 -211 l 768 -276 l 654 -367 q 518 -210 518 -322 q 529 -154 518 -179 l 725 0 l 538 0 l 538 121 l 381 -3 q 311 -14 353 -14 q 135 47 189 -14 q 81 193 81 107 q 115 292 81 243 q 217 386 150 342 l 538 386 l 538 461 q 364 624 538 624 q 144 525 276 624 l 103 583 l 301 740 q 440 754 365 754 q 645 690 572 754 q 718 506 718 626 l 718 111 l 843 63 l 813 0 m 361 118 q 538 192 443 118 l 538 322 l 296 322 q 272 281 279 301 q 265 235 265 260 q 292 152 265 186 q 361 118 318 118 z "},"å":{"ha":875,"x_min":81,"x_max":843,"o":"m 813 0 l 538 0 l 538 121 l 381 -3 q 311 -14 353 -14 q 135 47 189 -14 q 81 193 81 107 q 115 292 81 243 q 217 386 150 342 l 538 386 l 538 461 q 364 624 538 624 q 144 525 276 624 l 103 583 l 301 740 q 440 754 365 754 q 645 690 572 754 q 718 506 718 626 l 718 111 l 843 63 l 813 0 m 361 118 q 538 192 443 118 l 538 322 l 296 322 q 272 281 279 301 q 265 235 265 260 q 292 152 265 186 q 361 118 318 118 m 468 1228 q 582 1188 536 1228 q 628 1090 628 1149 q 588 999 628 1042 q 488 930 549 956 q 369 904 428 904 q 256 944 301 904 q 210 1042 210 985 q 249 1133 210 1090 q 349 1202 289 1176 q 468 1228 410 1228 m 388 1163 q 336 1148 354 1163 q 318 1107 318 1133 q 353 1009 318 1047 q 450 971 388 971 q 502 985 483 971 q 521 1026 521 1000 q 486 1124 521 1085 q 388 1163 451 1163 z "},"ã":{"ha":875,"x_min":81,"x_max":843,"o":"m 813 0 l 538 0 l 538 121 l 381 -3 q 311 -14 353 -14 q 135 47 189 -14 q 81 193 81 107 q 115 292 81 243 q 217 386 150 342 l 538 386 l 538 461 q 364 624 538 624 q 144 525 276 624 l 103 583 l 301 740 q 440 754 365 754 q 645 690 572 754 q 718 506 718 626 l 718 111 l 843 63 l 813 0 m 361 118 q 538 192 443 118 l 538 322 l 296 322 q 272 281 279 301 q 265 235 265 260 q 292 152 265 186 q 361 118 318 118 m 354 1232 q 544 1125 460 1125 q 626 1153 588 1125 l 678 1190 l 722 1132 l 482 950 q 293 1057 376 1057 q 208 1028 247 1057 l 160 992 l 115 1050 l 354 1232 z "},"æ":{"ha":1281,"x_min":81,"x_max":1188,"o":"m 906 115 q 1143 229 990 115 l 1185 171 l 969 -1 q 825 -14 910 -14 q 687 24 750 -14 q 582 126 624 61 l 426 -3 q 311 -14 381 -14 q 135 47 189 -14 q 81 193 81 107 q 217 385 81 294 l 522 385 l 522 461 q 363 624 522 624 q 144 525 274 624 l 103 583 l 301 740 q 439 754 364 754 q 580 726 521 754 q 669 644 639 699 q 797 725 728 696 q 931 754 867 754 q 1120 649 1053 754 q 1188 367 1188 543 l 715 367 q 773 186 724 257 q 906 115 822 115 m 850 628 q 714 431 721 628 l 988 431 q 967 540 978 501 q 928 603 956 579 q 850 628 901 628 m 374 117 q 549 190 456 117 q 521 322 525 253 l 296 322 q 272 281 279 301 q 265 235 265 260 q 295 150 265 185 q 375 115 325 115 l 374 117 z "},"b":{"ha":986,"x_min":32,"x_max":894,"o":"m 624 754 q 763 706 700 754 q 860 576 825 658 q 894 394 894 493 q 828 192 894 286 q 663 42 763 99 q 469 -14 563 -14 q 363 10 413 -14 q 276 79 314 35 l 215 0 l 156 0 l 156 983 l 32 1069 l 32 1119 l 276 1213 l 336 1213 l 336 600 l 515 743 q 622 754 560 754 l 624 754 m 550 111 q 663 166 625 111 q 700 328 700 221 q 660 538 700 453 q 549 624 621 624 q 449 605 497 624 q 338 532 401 586 l 338 285 q 392 161 338 211 q 550 111 447 111 z "},"c":{"ha":858,"x_min":94,"x_max":775,"o":"m 492 754 q 628 738 550 754 q 740 703 706 722 l 740 479 l 681 479 q 557 588 626 549 q 413 628 488 628 q 320 573 351 628 q 289 413 289 518 q 344 200 289 285 q 501 115 399 115 q 733 224 582 115 l 775 165 l 564 -1 q 421 -14 504 -14 q 253 34 328 -14 q 137 164 179 82 q 94 346 94 246 q 156 548 94 454 q 311 698 218 642 q 492 754 404 754 z "},"ć":{"ha":858,"x_min":94,"x_max":775,"o":"m 492 754 q 628 738 550 754 q 740 703 706 722 l 740 479 l 681 479 q 557 588 626 549 q 413 628 488 628 q 320 573 351 628 q 289 413 289 518 q 344 200 289 285 q 501 115 399 115 q 733 224 582 115 l 775 165 l 564 -1 q 421 -14 504 -14 q 253 34 328 -14 q 137 164 179 82 q 94 346 94 246 q 156 548 94 454 q 311 698 218 642 q 492 754 404 754 m 731 1172 l 415 938 l 354 967 l 503 1239 l 703 1213 l 731 1172 z "},"č":{"ha":858,"x_min":94,"x_max":775,"o":"m 492 754 q 628 738 550 754 q 740 703 706 722 l 740 479 l 681 479 q 557 588 626 549 q 413 628 488 628 q 320 573 351 628 q 289 413 289 518 q 344 200 289 285 q 501 115 399 115 q 733 224 582 115 l 775 165 l 564 -1 q 421 -14 504 -14 q 253 34 328 -14 q 137 164 179 82 q 94 346 94 246 q 156 548 94 454 q 311 698 218 642 q 492 754 404 754 m 450 929 l 125 1172 l 153 1213 l 340 1239 l 493 1057 l 718 1228 l 763 1169 l 450 929 z "},"ç":{"ha":858,"x_min":96,"x_max":776,"o":"m 488 -67 q 581 -153 556 -118 q 606 -226 606 -187 q 539 -325 606 -290 q 332 -367 472 -360 l 332 -317 q 454 -201 454 -278 q 434 -147 454 -171 q 365 -93 414 -124 l 461 -12 l 422 -12 q 255 35 329 -12 q 138 165 181 83 q 96 347 96 247 q 158 549 96 456 q 313 699 219 643 q 493 756 406 756 q 629 740 551 756 q 742 704 707 724 l 742 481 l 682 481 q 558 590 628 550 q 414 629 489 629 q 322 574 353 629 q 290 414 290 519 q 345 201 290 286 q 503 117 400 117 q 735 225 583 117 l 776 167 l 574 7 l 485 -67 l 488 -67 z "},"ċ":{"ha":858,"x_min":94,"x_max":775,"o":"m 492 754 q 628 738 550 754 q 740 703 706 722 l 740 479 l 681 479 q 557 588 626 549 q 413 628 488 628 q 320 573 351 628 q 289 413 289 518 q 344 200 289 285 q 501 115 399 115 q 733 224 582 115 l 775 165 l 564 -1 q 421 -14 504 -14 q 253 34 328 -14 q 137 164 179 82 q 94 346 94 246 q 156 548 94 454 q 311 698 218 642 q 492 754 404 754 m 458 1183 q 533 1151 504 1183 q 563 1071 563 1118 q 542 1008 563 1038 q 489 960 521 978 q 426 943 457 943 q 353 975 382 943 q 324 1056 324 1007 q 344 1119 324 1089 q 397 1166 365 1149 q 458 1183 429 1183 z "},"d":{"ha":986,"x_min":94,"x_max":956,"o":"m 924 0 l 650 0 l 650 100 l 519 -3 q 414 -14 475 -14 q 249 34 322 -14 q 135 164 176 82 q 94 346 94 246 q 160 548 94 454 q 326 698 226 642 q 519 754 426 754 q 650 713 590 754 l 650 983 l 526 1069 l 526 1119 l 771 1213 l 831 1213 l 831 108 l 956 63 l 924 0 m 489 118 q 568 129 531 118 q 651 171 606 140 l 651 478 q 588 586 643 544 q 439 628 533 628 q 289 413 289 628 q 340 202 289 286 q 488 118 392 118 l 489 118 z "},"ð":{"ha":932,"x_min":78,"x_max":843,"o":"m 567 1039 q 768 772 693 922 q 843 476 843 622 q 784 235 843 349 q 626 54 725 122 q 417 -14 528 -14 q 250 33 325 -14 q 132 163 175 81 q 89 346 89 244 q 151 540 89 444 q 313 694 214 635 q 515 754 413 754 q 557 751 526 754 q 401 942 497 857 l 153 794 l 125 844 l 354 981 q 78 1117 228 1076 l 78 1167 l 253 1226 q 519 1079 393 1182 l 767 1226 l 797 1176 l 565 1039 l 567 1039 m 499 111 q 617 180 579 111 q 656 397 656 249 q 617 628 656 514 l 436 628 q 286 413 286 628 q 344 194 286 276 q 499 111 403 111 z "},"ď":{"ha":986,"x_min":94,"x_max":1167,"o":"m 924 0 l 650 0 l 650 100 l 519 -3 q 414 -14 475 -14 q 249 34 322 -14 q 135 164 176 82 q 94 346 94 246 q 160 548 94 454 q 326 698 226 642 q 519 754 426 754 q 650 713 590 754 l 650 983 l 526 1069 l 526 1119 l 771 1213 l 831 1213 l 831 108 l 956 63 l 924 0 m 489 118 q 568 129 531 118 q 651 171 606 140 l 651 478 q 588 586 643 544 q 439 628 533 628 q 289 413 289 628 q 340 202 289 286 q 488 118 392 118 l 489 118 m 1167 999 l 1003 793 l 942 840 q 992 946 975 892 q 1006 1047 1008 1000 l 946 1099 l 946 1149 l 1108 1213 l 1167 1213 l 1167 999 z "},"đ":{"ha":986,"x_min":94,"x_max":986,"o":"m 831 108 l 956 63 l 924 0 l 650 0 l 650 100 l 519 -3 q 414 -14 475 -14 q 249 34 322 -14 q 135 164 176 82 q 94 346 94 246 q 160 548 94 454 q 326 698 226 642 q 519 754 426 754 q 650 713 590 754 l 650 932 l 392 932 l 392 996 l 650 996 l 650 1190 l 771 1238 l 831 1238 l 831 996 l 986 996 l 986 932 l 831 932 l 831 108 m 489 118 q 568 129 531 118 q 651 171 606 140 l 651 478 q 588 586 643 544 q 439 628 533 628 q 289 413 289 628 q 340 202 289 286 q 488 118 392 118 l 489 118 z "},"e":{"ha":899,"x_min":94,"x_max":804,"o":"m 565 -1 q 421 -14 506 -14 q 253 34 328 -14 q 137 164 179 82 q 94 346 94 246 q 160 548 94 454 q 326 698 226 642 q 519 754 426 754 q 728 649 654 754 q 801 367 803 543 l 290 367 q 354 185 300 256 q 501 115 408 115 q 763 246 593 115 l 804 189 l 565 -1 m 440 628 q 290 431 297 628 l 603 431 q 577 540 590 501 q 532 603 564 579 q 439 628 500 628 l 440 628 z "},"é":{"ha":899,"x_min":94,"x_max":804,"o":"m 565 -1 q 421 -14 506 -14 q 253 34 328 -14 q 137 164 179 82 q 94 346 94 246 q 160 548 94 454 q 326 698 226 642 q 519 754 426 754 q 728 649 654 754 q 801 367 803 543 l 290 367 q 354 185 300 256 q 501 115 408 115 q 763 246 593 115 l 804 189 l 565 -1 m 440 628 q 290 431 297 628 l 603 431 q 577 540 590 501 q 532 603 564 579 q 439 628 500 628 l 440 628 m 738 1172 l 422 938 l 361 967 l 510 1239 l 710 1213 l 738 1172 z "},"ě":{"ha":899,"x_min":94,"x_max":804,"o":"m 565 -1 q 421 -14 506 -14 q 253 34 328 -14 q 137 164 179 82 q 94 346 94 246 q 160 548 94 454 q 326 698 226 642 q 519 754 426 754 q 728 649 654 754 q 801 367 803 543 l 290 367 q 354 185 300 256 q 501 115 408 115 q 763 246 593 115 l 804 189 l 565 -1 m 440 628 q 290 431 297 628 l 603 431 q 577 540 590 501 q 532 603 564 579 q 439 628 500 628 l 440 628 m 457 929 l 132 1172 l 160 1213 l 347 1239 l 500 1057 l 725 1228 l 769 1169 l 457 929 z "},"ê":{"ha":899,"x_min":94,"x_max":804,"o":"m 565 -1 q 421 -14 506 -14 q 253 34 328 -14 q 137 164 179 82 q 94 346 94 246 q 160 548 94 454 q 326 698 226 642 q 519 754 426 754 q 728 649 654 754 q 801 367 803 543 l 290 367 q 354 185 300 256 q 501 115 408 115 q 763 246 593 115 l 804 189 l 565 -1 m 440 628 q 290 431 297 628 l 603 431 q 577 540 590 501 q 532 603 564 579 q 439 628 500 628 l 440 628 m 743 944 l 556 918 l 403 1100 l 178 929 l 133 988 l 446 1228 l 771 985 l 743 944 z "},"ë":{"ha":899,"x_min":94,"x_max":804,"o":"m 246 953 q 179 983 206 953 q 153 1058 153 1014 q 172 1118 153 1090 q 219 1163 190 1146 q 274 1179 247 1179 q 340 1149 314 1179 q 367 1074 367 1118 q 348 1014 367 1042 q 301 969 329 986 q 246 953 272 953 m 628 953 q 561 983 588 953 q 535 1058 535 1014 q 553 1118 535 1090 q 601 1163 572 1146 q 656 1179 629 1179 q 722 1149 696 1179 q 749 1074 749 1118 q 730 1014 749 1042 q 683 969 711 986 q 628 953 654 953 m 565 -1 q 421 -14 506 -14 q 253 34 328 -14 q 137 164 179 82 q 94 346 94 246 q 160 548 94 454 q 326 698 226 642 q 519 754 426 754 q 728 649 654 754 q 801 367 803 543 l 290 367 q 354 185 300 256 q 501 115 408 115 q 763 246 593 115 l 804 189 l 565 -1 m 440 628 q 290 431 297 628 l 603 431 q 577 540 590 501 q 532 603 564 579 q 439 628 500 628 l 440 628 z "},"ė":{"ha":899,"x_min":94,"x_max":804,"o":"m 565 -1 q 421 -14 506 -14 q 253 34 328 -14 q 137 164 179 82 q 94 346 94 246 q 160 548 94 454 q 326 698 226 642 q 519 754 426 754 q 728 649 654 754 q 801 367 803 543 l 290 367 q 354 185 300 256 q 501 115 408 115 q 763 246 593 115 l 804 189 l 565 -1 m 440 628 q 290 431 297 628 l 603 431 q 577 540 590 501 q 532 603 564 579 q 439 628 500 628 l 440 628 m 465 1183 q 540 1151 511 1183 q 569 1071 569 1118 q 549 1008 569 1038 q 496 960 528 978 q 433 943 464 943 q 360 975 389 943 q 331 1056 331 1007 q 351 1119 331 1089 q 404 1166 372 1149 q 465 1183 436 1183 z "},"è":{"ha":899,"x_min":94,"x_max":804,"o":"m 565 -1 q 421 -14 506 -14 q 253 34 328 -14 q 137 164 179 82 q 94 346 94 246 q 160 548 94 454 q 326 698 226 642 q 519 754 426 754 q 728 649 654 754 q 801 367 803 543 l 290 367 q 354 185 300 256 q 501 115 408 115 q 763 246 593 115 l 804 189 l 565 -1 m 440 628 q 290 431 297 628 l 603 431 q 577 540 590 501 q 532 603 564 579 q 439 628 500 628 l 440 628 m 483 938 l 167 1172 l 194 1213 l 394 1239 l 543 967 l 483 938 z "},"ē":{"ha":899,"x_min":94,"x_max":804,"o":"m 565 -1 q 421 -14 506 -14 q 253 34 328 -14 q 137 164 179 82 q 94 346 94 246 q 160 548 94 454 q 326 698 226 642 q 519 754 426 754 q 728 649 654 754 q 801 367 803 543 l 290 367 q 354 185 300 256 q 501 115 408 115 q 763 246 593 115 l 804 189 l 565 -1 m 440 628 q 290 431 297 628 l 603 431 q 577 540 590 501 q 532 603 564 579 q 439 628 500 628 l 440 628 m 154 1107 l 749 1107 l 749 1038 l 154 1038 l 154 1107 z "},"ę":{"ha":899,"x_min":94,"x_max":804,"o":"m 565 -1 q 490 -90 508 -53 q 471 -158 471 -126 q 487 -197 471 -183 q 540 -217 503 -211 l 540 -276 l 426 -367 q 343 -312 372 -347 q 314 -229 314 -276 q 325 -154 314 -181 l 469 -12 q 421 -14 453 -14 q 253 34 328 -14 q 137 164 179 82 q 94 346 94 246 q 160 548 94 454 q 326 698 226 642 q 519 754 426 754 q 728 649 654 754 q 801 367 803 543 l 290 367 q 354 185 300 256 q 501 115 408 115 q 763 246 593 115 l 804 189 l 565 -1 m 440 628 q 290 431 297 628 l 603 431 q 577 540 590 501 q 532 603 564 579 q 439 628 500 628 l 440 628 z "},"f":{"ha":624,"x_min":35,"x_max":747,"o":"m 579 1226 q 672 1218 619 1226 q 747 1200 724 1210 l 747 979 l 688 979 q 603 1069 653 1036 q 501 1101 553 1101 q 409 1047 440 1101 q 378 889 378 993 l 378 699 l 624 699 l 624 635 l 378 635 l 378 121 l 575 63 l 544 0 l 74 0 l 74 50 l 197 149 l 197 635 l 35 635 l 35 699 l 197 699 l 197 818 q 256 1020 197 926 q 405 1170 315 1114 q 579 1226 494 1226 z "},"g":{"ha":889,"x_min":78,"x_max":854,"o":"m 693 633 q 731 515 731 578 q 657 344 731 425 q 478 228 583 263 q 442 147 442 189 q 475 106 442 125 q 582 57 508 88 q 733 -15 679 18 q 788 -96 788 -49 q 733 -204 788 -139 q 599 -318 679 -269 q 446 -367 519 -367 q 258 -340 365 -367 q 78 -287 150 -314 l 78 -67 l 138 -67 q 292 -212 214 -162 q 468 -261 369 -261 q 535 -247 506 -261 q 582 -212 565 -233 q 599 -171 599 -190 q 556 -108 599 -135 q 426 -43 514 -82 q 299 20 342 -7 q 256 82 256 47 q 301 150 256 115 q 408 211 346 185 q 363 208 378 208 q 224 241 288 208 q 124 328 161 274 q 88 447 88 383 q 142 595 88 524 q 282 710 196 667 q 457 754 368 754 q 633 699 558 754 l 854 699 l 851 633 l 693 633 m 440 332 q 530 361 499 332 q 561 449 561 390 q 510 578 561 529 q 374 626 458 626 q 254 514 254 626 q 306 382 254 432 q 440 332 357 332 z "},"ğ":{"ha":889,"x_min":78,"x_max":854,"o":"m 693 633 q 731 515 731 578 q 657 344 731 425 q 478 228 583 263 q 442 147 442 189 q 475 106 442 125 q 582 57 508 88 q 733 -15 679 18 q 788 -96 788 -49 q 733 -204 788 -139 q 599 -318 679 -269 q 446 -367 519 -367 q 258 -340 365 -367 q 78 -287 150 -314 l 78 -67 l 138 -67 q 292 -212 214 -162 q 468 -261 369 -261 q 535 -247 506 -261 q 582 -212 565 -233 q 599 -171 599 -190 q 556 -108 599 -135 q 426 -43 514 -82 q 299 20 342 -7 q 256 82 256 47 q 301 150 256 115 q 408 211 346 185 q 363 208 378 208 q 224 241 288 208 q 124 328 161 274 q 88 447 88 383 q 142 595 88 524 q 282 710 196 667 q 457 754 368 754 q 633 699 558 754 l 854 699 l 851 633 l 693 633 m 440 332 q 530 361 499 332 q 561 449 561 390 q 510 578 561 529 q 374 626 458 626 q 254 514 254 626 q 306 382 254 432 q 440 332 357 332 m 721 1215 q 671 1099 718 1158 q 553 1000 624 1039 q 415 961 482 961 q 253 994 332 961 q 138 1099 175 1028 l 286 1215 q 362 1094 321 1129 q 453 1058 403 1058 q 525 1081 497 1058 q 554 1138 553 1104 l 721 1215 z "},"ģ":{"ha":889,"x_min":78,"x_max":854,"o":"m 693 633 q 731 515 731 578 q 657 344 731 425 q 478 228 583 263 q 442 147 442 189 q 475 106 442 125 q 582 57 508 88 q 733 -15 679 18 q 788 -96 788 -49 q 733 -204 788 -139 q 599 -318 679 -269 q 446 -367 519 -367 q 258 -340 365 -367 q 78 -287 150 -314 l 78 -67 l 138 -67 q 292 -212 214 -162 q 468 -261 369 -261 q 535 -247 506 -261 q 582 -212 565 -233 q 599 -171 599 -190 q 556 -108 599 -135 q 426 -43 514 -82 q 299 20 342 -7 q 256 82 256 47 q 301 150 256 115 q 408 211 346 185 q 363 208 378 208 q 224 241 288 208 q 124 328 161 274 q 88 447 88 383 q 142 595 88 524 q 282 710 196 667 q 457 754 368 754 q 633 699 558 754 l 854 699 l 851 633 l 693 633 m 440 332 q 530 361 499 332 q 561 449 561 390 q 510 578 561 529 q 374 626 458 626 q 254 514 254 626 q 306 382 254 432 q 440 332 357 332 m 264 1025 l 442 1282 l 508 1282 l 472 1114 l 582 1038 l 551 975 l 264 975 l 264 1025 z "},"ġ":{"ha":889,"x_min":78,"x_max":854,"o":"m 693 633 q 731 515 731 578 q 657 344 731 425 q 478 228 583 263 q 442 147 442 189 q 475 106 442 125 q 582 57 508 88 q 733 -15 679 18 q 788 -96 788 -49 q 733 -204 788 -139 q 599 -318 679 -269 q 446 -367 519 -367 q 258 -340 365 -367 q 78 -287 150 -314 l 78 -67 l 138 -67 q 292 -212 214 -162 q 468 -261 369 -261 q 535 -247 506 -261 q 582 -212 565 -233 q 599 -171 599 -190 q 556 -108 599 -135 q 426 -43 514 -82 q 299 20 342 -7 q 256 82 256 47 q 301 150 256 115 q 408 211 346 185 q 363 208 378 208 q 224 241 288 208 q 124 328 161 274 q 88 447 88 383 q 142 595 88 524 q 282 710 196 667 q 457 754 368 754 q 633 699 558 754 l 854 699 l 851 633 l 693 633 m 440 332 q 530 361 499 332 q 561 449 561 390 q 510 578 561 529 q 374 626 458 626 q 254 514 254 626 q 306 382 254 432 q 440 332 357 332 m 439 1183 q 514 1151 485 1183 q 543 1071 543 1118 q 522 1008 543 1038 q 469 960 501 978 q 407 943 438 943 q 333 975 363 943 q 304 1056 304 1007 q 325 1119 304 1089 q 378 1166 346 1149 q 439 1183 410 1183 z "},"h":{"ha":978,"x_min":46,"x_max":947,"o":"m 915 -1 l 642 -1 l 642 463 q 618 566 642 536 q 536 596 594 596 q 450 581 493 596 q 350 522 407 565 l 350 107 l 475 61 l 443 -1 l 46 -1 l 46 49 l 169 147 l 169 983 l 46 1069 l 46 1119 l 290 1213 l 350 1213 l 350 597 l 533 743 q 611 754 565 754 q 765 697 708 754 q 822 540 822 639 l 822 108 l 947 61 l 915 -1 z "},"ħ":{"ha":978,"x_min":0,"x_max":947,"o":"m 915 0 l 642 0 l 642 464 q 618 567 642 538 q 536 597 594 597 q 450 582 493 597 q 350 524 407 567 l 350 108 l 475 63 l 443 0 l 46 0 l 46 50 l 169 149 l 169 932 l 0 932 l 0 996 l 169 996 l 169 1181 l 290 1238 l 350 1238 l 350 996 l 594 996 l 594 932 l 350 932 l 350 597 l 533 743 q 611 754 565 754 q 765 697 708 754 q 822 540 822 639 l 822 108 l 947 63 l 915 0 z "},"i":{"ha":546,"x_min":74,"x_max":503,"o":"m 471 0 l 74 0 l 74 50 l 197 149 l 197 538 l 74 622 l 74 672 l 318 767 l 378 767 l 378 108 l 503 63 l 471 0 m 282 1183 q 357 1151 328 1183 q 386 1071 386 1118 q 365 1008 386 1038 q 313 960 344 978 q 250 943 281 943 q 176 975 206 943 q 147 1056 147 1007 q 168 1119 147 1089 q 221 1166 189 1149 q 282 1183 253 1183 z "},"ı":{"ha":546,"x_min":74,"x_max":503,"o":"m 471 0 l 74 0 l 74 50 l 197 149 l 197 538 l 74 622 l 74 672 l 318 767 l 378 767 l 378 108 l 503 63 l 471 0 z "},"í":{"ha":546,"x_min":74,"x_max":554,"o":"m 471 0 l 74 0 l 74 50 l 197 149 l 197 538 l 74 622 l 74 672 l 318 767 l 378 767 l 378 108 l 503 63 l 471 0 m 554 1172 l 239 938 l 178 967 l 326 1239 l 526 1213 l 554 1172 z "},"î":{"ha":546,"x_min":-51,"x_max":586,"o":"m 471 0 l 74 0 l 74 50 l 197 149 l 197 538 l 74 622 l 74 672 l 318 767 l 378 767 l 378 108 l 503 63 l 471 0 m 558 944 l 371 918 l 218 1100 l -7 929 l -51 988 l 261 1228 l 586 985 l 558 944 z "},"ï":{"ha":546,"x_min":-31,"x_max":565,"o":"m 183 1074 q 165 1014 183 1042 q 117 969 146 986 q 63 953 89 953 q -4 983 22 953 q -31 1058 -31 1014 q -12 1118 -31 1090 q 35 1163 7 1146 q 90 1179 64 1179 q 157 1149 131 1179 q 183 1074 183 1118 m 472 1179 q 539 1149 513 1179 q 565 1074 565 1118 q 547 1014 565 1042 q 499 969 528 986 q 444 953 471 953 q 378 983 404 953 q 351 1058 351 1014 q 370 1118 351 1090 q 417 1163 389 1146 q 472 1179 446 1179 m 503 63 l 471 0 l 74 0 l 74 50 l 197 149 l 197 538 l 74 622 l 74 672 l 318 767 l 378 767 l 378 108 l 503 63 z "},"ì":{"ha":546,"x_min":-18,"x_max":503,"o":"m 471 0 l 74 0 l 74 50 l 197 149 l 197 538 l 74 622 l 74 672 l 318 767 l 378 767 l 378 108 l 503 63 l 471 0 m 299 938 l -18 1172 l 10 1213 l 210 1239 l 358 967 l 299 938 z "},"ĳ":{"ha":1074,"x_min":74,"x_max":932,"o":"m 250 943 q 176 975 206 943 q 147 1056 147 1007 q 168 1119 147 1089 q 221 1166 189 1149 q 282 1183 253 1183 q 357 1151 328 1183 q 386 1071 386 1118 q 365 1008 386 1038 q 313 960 344 978 q 250 943 281 943 m 792 940 q 718 972 747 940 q 689 1053 689 1004 q 710 1116 689 1086 q 763 1163 731 1146 q 824 1181 794 1181 q 899 1148 869 1181 q 928 1068 928 1115 q 907 1005 928 1035 q 854 958 886 975 q 792 940 822 940 m 503 63 l 471 0 l 74 0 l 74 50 l 197 149 l 197 538 l 74 622 l 74 672 l 318 767 l 378 767 l 378 108 l 503 63 m 919 138 q 923 35 919 82 q 932 -28 926 -11 l 658 -367 l 599 -319 q 710 -151 682 -221 q 739 21 739 -82 l 739 542 l 615 628 l 615 678 l 860 767 l 919 767 l 919 138 z "},"ī":{"ha":546,"x_min":-31,"x_max":564,"o":"m 471 0 l 74 0 l 74 50 l 197 149 l 197 538 l 74 622 l 74 672 l 318 767 l 378 767 l 378 108 l 503 63 l 471 0 m -31 1107 l 564 1107 l 564 1038 l -31 1038 l -31 1107 z "},"į":{"ha":546,"x_min":74,"x_max":503,"o":"m 250 943 q 176 975 206 943 q 147 1056 147 1007 q 168 1119 147 1089 q 221 1166 189 1149 q 282 1183 253 1183 q 357 1151 328 1183 q 386 1071 386 1118 q 365 1008 386 1038 q 313 960 344 978 q 250 943 281 943 m 471 0 q 389 -92 414 -56 q 364 -158 364 -129 q 379 -197 364 -183 q 428 -217 394 -211 l 428 -276 l 314 -367 q 178 -210 178 -322 q 189 -154 178 -179 l 385 0 l 74 0 l 74 50 l 197 149 l 197 538 l 74 622 l 74 672 l 318 767 l 378 767 l 378 108 l 503 63 l 471 0 z "},"j":{"ha":528,"x_min":53,"x_max":386,"o":"m 374 138 q 377 35 374 82 q 386 -28 381 -11 l 113 -367 l 53 -319 q 165 -151 136 -221 q 193 21 193 -82 l 193 542 l 69 628 l 69 678 l 314 767 l 374 767 l 374 138 m 278 1181 q 353 1148 324 1181 q 382 1068 382 1115 q 361 1005 382 1035 q 308 958 340 975 q 246 940 276 940 q 172 972 201 940 q 143 1053 143 1004 q 164 1116 143 1086 q 217 1163 185 1146 q 278 1181 249 1181 z "},"ȷ":{"ha":528,"x_min":53,"x_max":386,"o":"m 374 138 q 377 35 374 82 q 386 -28 381 -11 l 113 -367 l 53 -319 q 165 -151 136 -221 q 193 21 193 -82 l 193 542 l 69 628 l 69 678 l 314 767 l 374 767 l 374 138 z "},"k":{"ha":969,"x_min":46,"x_max":950,"o":"m 475 61 l 443 -1 l 46 -1 l 46 49 l 169 147 l 169 983 l 46 1069 l 46 1119 l 290 1213 l 350 1213 l 350 107 l 475 61 m 919 -1 l 674 -1 l 419 367 l 676 581 l 536 676 l 567 739 l 913 739 l 913 689 l 596 424 l 821 110 l 950 61 l 919 -1 z "},"ķ":{"ha":969,"x_min":46,"x_max":950,"o":"m 475 61 l 443 -1 l 46 -1 l 46 49 l 169 147 l 169 983 l 46 1069 l 46 1119 l 290 1213 l 350 1213 l 350 107 l 475 61 m 919 -1 l 674 -1 l 419 367 l 676 581 l 536 676 l 567 739 l 913 739 l 913 689 l 596 424 l 821 110 l 950 61 l 919 -1 m 674 -165 l 496 -422 l 429 -422 l 465 -254 l 356 -178 l 386 -115 l 674 -115 l 674 -165 z "},"l":{"ha":518,"x_min":46,"x_max":475,"o":"m 443 -1 l 46 -1 l 46 49 l 169 147 l 169 983 l 46 1069 l 46 1119 l 290 1213 l 350 1213 l 350 108 l 475 61 l 443 -1 z "},"ĺ":{"ha":518,"x_min":46,"x_max":540,"o":"m 443 -1 l 46 -1 l 46 49 l 169 147 l 169 983 l 46 1069 l 46 1119 l 290 1213 l 350 1213 l 350 108 l 475 61 l 443 -1 m 540 1576 l 225 1342 l 164 1371 l 313 1643 l 513 1617 l 540 1576 z "},"ľ":{"ha":518,"x_min":46,"x_max":686,"o":"m 443 -1 l 46 -1 l 46 49 l 169 147 l 169 983 l 46 1069 l 46 1119 l 290 1213 l 350 1213 l 350 108 l 475 61 l 443 -1 m 686 999 l 522 793 l 461 840 q 511 946 494 892 q 525 1047 528 1000 l 465 1099 l 465 1149 l 628 1213 l 686 1213 l 686 999 z "},"ļ":{"ha":518,"x_min":46,"x_max":475,"o":"m 443 -1 l 46 -1 l 46 49 l 169 147 l 169 983 l 46 1069 l 46 1119 l 290 1213 l 350 1213 l 350 108 l 475 61 l 443 -1 m 425 -165 l 247 -422 l 181 -422 l 217 -254 l 107 -178 l 138 -115 l 425 -115 l 425 -165 z "},"ŀ":{"ha":717,"x_min":46,"x_max":732,"o":"m 443 -1 l 46 -1 l 46 49 l 169 147 l 169 983 l 46 1069 l 46 1119 l 290 1213 l 350 1213 l 350 108 l 475 61 l 443 -1 m 628 694 q 703 663 674 694 q 732 583 732 631 q 711 519 732 549 q 658 472 690 489 q 596 454 626 454 q 522 487 551 454 q 493 567 493 519 q 514 630 493 600 q 567 677 535 660 q 628 694 599 694 z "},"ł":{"ha":506,"x_min":-32,"x_max":538,"o":"m 350 107 l 475 61 l 443 -1 l 46 -1 l 46 49 l 169 147 l 169 550 l -32 349 l -32 435 l 169 644 l 169 983 l 46 1069 l 46 1119 l 290 1213 l 350 1213 l 350 750 l 538 947 l 538 847 l 350 650 l 350 107 z "},"m":{"ha":1447,"x_min":74,"x_max":1415,"o":"m 1385 0 l 1110 0 l 1110 467 q 1087 568 1110 539 q 1007 597 1064 597 q 926 582 967 597 q 833 524 886 567 l 833 108 l 957 63 l 926 0 l 653 0 l 653 467 q 630 568 653 539 q 550 597 607 597 q 469 582 510 597 q 378 524 429 567 l 378 107 l 500 61 l 469 -1 l 74 -1 l 74 49 l 197 147 l 197 525 l 74 599 l 74 649 l 321 767 l 368 592 l 549 743 q 625 754 581 754 q 759 712 706 754 q 828 594 813 669 l 1006 743 q 1082 754 1038 754 q 1234 697 1178 754 q 1290 540 1290 639 l 1290 108 l 1415 63 l 1385 0 z "},"n":{"ha":1006,"x_min":74,"x_max":975,"o":"m 943 -1 l 669 -1 l 669 463 q 646 566 669 536 q 564 596 622 596 q 478 581 521 596 q 378 522 435 565 l 378 107 l 503 61 l 471 -1 l 74 -1 l 74 49 l 197 147 l 197 525 l 74 599 l 74 649 l 321 767 l 369 590 l 561 743 q 639 754 593 754 q 793 697 736 754 q 850 540 850 639 l 850 108 l 975 61 l 943 -1 z "},"ń":{"ha":1006,"x_min":74,"x_max":975,"o":"m 943 -1 l 669 -1 l 669 463 q 646 566 669 536 q 564 596 622 596 q 478 581 521 596 q 378 522 435 565 l 378 107 l 503 61 l 471 -1 l 74 -1 l 74 49 l 197 147 l 197 525 l 74 599 l 74 649 l 321 767 l 369 590 l 561 743 q 639 754 593 754 q 793 697 736 754 q 850 540 850 639 l 850 108 l 975 61 l 943 -1 m 776 1172 l 461 938 l 400 967 l 549 1239 l 749 1213 l 776 1172 z "},"ň":{"ha":1006,"x_min":74,"x_max":975,"o":"m 943 -1 l 669 -1 l 669 463 q 646 566 669 536 q 564 596 622 596 q 478 581 521 596 q 378 522 435 565 l 378 107 l 503 61 l 471 -1 l 74 -1 l 74 49 l 197 147 l 197 525 l 74 599 l 74 649 l 321 767 l 369 590 l 561 743 q 639 754 593 754 q 793 697 736 754 q 850 540 850 639 l 850 108 l 975 61 l 943 -1 m 496 929 l 171 1172 l 199 1213 l 386 1239 l 539 1057 l 764 1228 l 808 1169 l 496 929 z "},"ņ":{"ha":1006,"x_min":74,"x_max":975,"o":"m 943 -1 l 669 -1 l 669 463 q 646 566 669 536 q 564 596 622 596 q 478 581 521 596 q 378 522 435 565 l 378 107 l 503 61 l 471 -1 l 74 -1 l 74 49 l 197 147 l 197 525 l 74 599 l 74 649 l 321 767 l 369 590 l 561 743 q 639 754 593 754 q 793 697 736 754 q 850 540 850 639 l 850 108 l 975 61 l 943 -1 m 717 -165 l 539 -422 l 472 -422 l 508 -254 l 399 -178 l 429 -115 l 717 -115 l 717 -165 z "},"ŋ":{"ha":1004,"x_min":74,"x_max":863,"o":"m 850 136 q 853 34 850 81 q 863 -29 857 -12 l 589 -368 l 529 -321 q 641 -153 613 -222 q 669 19 669 -83 l 669 463 q 646 566 669 536 q 564 596 622 596 q 478 581 521 596 q 378 522 435 565 l 378 107 l 503 61 l 471 -1 l 74 -1 l 74 49 l 197 147 l 197 525 l 74 599 l 74 649 l 321 767 l 369 590 l 561 743 q 639 754 593 754 q 793 697 736 754 q 850 540 850 639 l 850 136 z "},"ñ":{"ha":1006,"x_min":74,"x_max":975,"o":"m 943 -1 l 669 -1 l 669 463 q 646 566 669 536 q 564 596 622 596 q 478 581 521 596 q 378 522 435 565 l 378 107 l 503 61 l 471 -1 l 74 -1 l 74 49 l 197 147 l 197 525 l 74 599 l 74 649 l 321 767 l 369 590 l 561 743 q 639 754 593 754 q 793 697 736 754 q 850 540 850 639 l 850 108 l 975 61 l 943 -1 m 425 1232 q 615 1125 531 1125 q 697 1153 658 1125 l 749 1190 l 793 1132 l 553 950 q 364 1057 447 1057 q 279 1028 318 1057 l 231 992 l 186 1050 l 425 1232 z "},"o":{"ha":939,"x_min":94,"x_max":846,"o":"m 519 754 q 688 706 614 754 q 804 576 763 658 q 846 394 846 494 q 780 192 846 286 q 614 42 714 99 q 421 -14 514 -14 q 253 34 328 -14 q 137 164 179 82 q 94 346 94 246 q 160 548 94 454 q 326 698 226 642 q 519 754 426 754 m 439 628 q 289 413 289 628 q 344 197 289 283 q 501 111 399 111 q 613 167 575 111 q 650 329 650 222 q 595 542 650 457 q 439 628 540 628 z "},"ó":{"ha":939,"x_min":94,"x_max":846,"o":"m 519 754 q 688 706 614 754 q 804 576 763 658 q 846 394 846 494 q 780 192 846 286 q 614 42 714 99 q 421 -14 514 -14 q 253 34 328 -14 q 137 164 179 82 q 94 346 94 246 q 160 548 94 454 q 326 698 226 642 q 519 754 426 754 m 439 628 q 289 413 289 628 q 344 197 289 283 q 501 111 399 111 q 613 167 575 111 q 650 329 650 222 q 595 542 650 457 q 439 628 540 628 m 757 1172 l 442 938 l 381 967 l 529 1239 l 729 1213 l 757 1172 z "},"ô":{"ha":939,"x_min":94,"x_max":846,"o":"m 519 754 q 688 706 614 754 q 804 576 763 658 q 846 394 846 494 q 780 192 846 286 q 614 42 714 99 q 421 -14 514 -14 q 253 34 328 -14 q 137 164 179 82 q 94 346 94 246 q 160 548 94 454 q 326 698 226 642 q 519 754 426 754 m 439 628 q 289 413 289 628 q 344 197 289 283 q 501 111 399 111 q 613 167 575 111 q 650 329 650 222 q 595 542 650 457 q 439 628 540 628 m 763 944 l 575 918 l 422 1100 l 197 929 l 153 988 l 465 1228 l 790 985 l 763 944 z "},"ö":{"ha":939,"x_min":94,"x_max":846,"o":"m 293 1179 q 360 1149 333 1179 q 386 1074 386 1118 q 367 1014 386 1042 q 320 969 349 986 q 265 953 292 953 q 199 983 225 953 q 172 1058 172 1014 q 191 1118 172 1090 q 238 1163 210 1146 q 293 1179 267 1179 m 675 1179 q 742 1149 715 1179 q 768 1074 768 1118 q 749 1014 768 1042 q 702 969 731 986 q 647 953 674 953 q 581 983 607 953 q 554 1058 554 1014 q 573 1118 554 1090 q 620 1163 592 1146 q 675 1179 649 1179 m 519 754 q 688 706 614 754 q 804 576 763 658 q 846 394 846 494 q 780 192 846 286 q 614 42 714 99 q 421 -14 514 -14 q 253 34 328 -14 q 137 164 179 82 q 94 346 94 246 q 160 548 94 454 q 326 698 226 642 q 519 754 426 754 m 439 628 q 289 413 289 628 q 344 197 289 283 q 501 111 399 111 q 613 167 575 111 q 650 329 650 222 q 595 542 650 457 q 439 628 540 628 z "},"ò":{"ha":939,"x_min":94,"x_max":846,"o":"m 519 754 q 688 706 614 754 q 804 576 763 658 q 846 394 846 494 q 780 192 846 286 q 614 42 714 99 q 421 -14 514 -14 q 253 34 328 -14 q 137 164 179 82 q 94 346 94 246 q 160 548 94 454 q 326 698 226 642 q 519 754 426 754 m 439 628 q 289 413 289 628 q 344 197 289 283 q 501 111 399 111 q 613 167 575 111 q 650 329 650 222 q 595 542 650 457 q 439 628 540 628 m 503 938 l 186 1172 l 214 1213 l 414 1239 l 563 967 l 503 938 z "},"ő":{"ha":939,"x_min":94,"x_max":886,"o":"m 519 754 q 688 706 614 754 q 804 576 763 658 q 846 394 846 494 q 780 192 846 286 q 614 42 714 99 q 421 -14 514 -14 q 253 34 328 -14 q 137 164 179 82 q 94 346 94 246 q 160 548 94 454 q 326 698 226 642 q 519 754 426 754 m 439 628 q 289 413 289 628 q 344 197 289 283 q 501 111 399 111 q 613 167 575 111 q 650 329 650 222 q 595 542 650 457 q 439 628 540 628 m 528 1172 l 267 938 l 206 967 l 310 1239 l 499 1213 l 528 1172 m 886 1172 l 626 938 l 565 967 l 669 1239 l 858 1213 l 886 1172 z "},"ō":{"ha":939,"x_min":94,"x_max":846,"o":"m 519 754 q 688 706 614 754 q 804 576 763 658 q 846 394 846 494 q 780 192 846 286 q 614 42 714 99 q 421 -14 514 -14 q 253 34 328 -14 q 137 164 179 82 q 94 346 94 246 q 160 548 94 454 q 326 698 226 642 q 519 754 426 754 m 439 628 q 289 413 289 628 q 344 197 289 283 q 501 111 399 111 q 613 167 575 111 q 650 329 650 222 q 595 542 650 457 q 439 628 540 628 m 174 1107 l 768 1107 l 768 1038 l 174 1038 l 174 1107 z "},"ø":{"ha":939,"x_min":96,"x_max":850,"o":"m 701 700 q 810 571 771 651 q 850 394 850 490 q 784 192 850 286 q 618 42 718 99 q 425 -14 518 -14 q 301 10 360 -14 l 176 -206 l 121 -174 l 244 42 q 135 169 175 89 q 96 346 96 250 q 162 548 96 454 q 328 698 228 642 q 521 754 428 754 q 640 731 585 754 l 764 946 l 819 913 l 697 700 l 701 700 m 293 411 q 343 207 293 289 l 561 586 q 443 628 511 628 q 293 413 293 628 l 293 411 m 506 111 q 617 167 579 111 q 654 329 654 222 q 604 533 654 453 l 385 154 q 506 110 436 110 l 506 111 z "},"õ":{"ha":939,"x_min":94,"x_max":846,"o":"m 519 754 q 688 706 614 754 q 804 576 763 658 q 846 394 846 494 q 780 192 846 286 q 614 42 714 99 q 421 -14 514 -14 q 253 34 328 -14 q 137 164 179 82 q 94 346 94 246 q 160 548 94 454 q 326 698 226 642 q 519 754 426 754 m 439 628 q 289 413 289 628 q 344 197 289 283 q 501 111 399 111 q 613 167 575 111 q 650 329 650 222 q 595 542 650 457 q 439 628 540 628 m 406 1232 q 596 1125 511 1125 q 678 1153 639 1125 l 729 1190 l 774 1132 l 533 950 q 344 1057 428 1057 q 260 1028 299 1057 l 211 992 l 167 1050 l 406 1232 z "},"œ":{"ha":1358,"x_min":93,"x_max":1265,"o":"m 982 114 q 1219 228 1067 114 l 1261 169 l 1046 -3 q 901 -15 986 -15 q 769 19 829 -15 q 667 114 708 53 q 534 19 607 54 q 393 -15 461 -15 q 239 33 307 -15 q 132 163 171 81 q 93 344 93 244 q 155 547 93 453 q 310 697 217 640 q 492 753 403 753 q 623 719 563 753 q 724 624 683 685 q 861 719 785 685 q 1008 754 938 754 q 1198 649 1131 754 q 1265 367 1265 543 l 793 367 q 851 186 801 257 q 983 115 900 115 l 982 114 m 474 110 q 596 328 596 110 q 548 541 596 456 q 411 626 500 626 q 288 411 288 626 q 336 196 288 282 q 474 110 385 110 m 926 626 q 790 429 797 626 l 1064 429 q 1043 539 1054 500 q 1005 602 1032 578 q 926 626 978 626 z "},"p":{"ha":1028,"x_min":74,"x_max":935,"o":"m 510 -15 q 378 26 439 -15 l 378 -233 l 575 -292 l 544 -354 l 74 -354 l 74 -304 l 197 -206 l 197 525 l 74 599 l 74 649 l 321 767 l 369 589 l 563 743 q 664 754 607 754 q 803 706 740 754 q 900 576 865 658 q 935 394 935 493 q 869 192 935 286 q 703 42 803 99 q 510 -14 603 -14 l 510 -15 m 589 608 q 490 590 538 608 q 378 517 442 571 l 378 283 q 433 160 378 210 q 590 110 488 110 q 703 165 665 110 q 740 326 740 219 q 701 527 740 446 q 589 608 661 608 z "},"þ":{"ha":999,"x_min":46,"x_max":906,"o":"m 481 -15 q 350 26 410 -15 l 350 -233 l 547 -292 l 517 -354 l 46 -354 l 46 -304 l 169 -206 l 169 983 l 46 1069 l 46 1119 l 290 1213 l 350 1213 l 350 601 l 528 743 q 635 754 572 754 q 774 706 711 754 q 871 576 836 658 q 906 394 906 493 q 840 192 906 286 q 674 42 774 99 q 481 -14 574 -14 l 481 -15 m 563 621 q 463 602 511 621 q 351 531 414 583 l 351 261 q 413 153 360 196 q 561 110 467 110 q 674 165 636 110 q 711 326 711 219 q 672 536 711 451 q 561 621 633 621 l 563 621 z "},"q":{"ha":986,"x_min":94,"x_max":957,"o":"m 925 -351 l 453 -351 l 453 -301 l 650 -200 l 650 100 l 521 -3 q 414 -14 476 -14 q 249 34 322 -14 q 135 164 176 82 q 94 344 94 246 q 160 547 94 453 q 323 698 225 642 q 513 754 421 754 q 700 675 621 754 l 771 765 l 831 765 l 831 -244 l 957 -289 l 925 -351 m 488 119 q 567 131 529 119 q 651 174 606 143 l 651 478 q 588 587 643 544 q 439 629 533 629 q 289 413 289 629 q 340 203 289 288 q 488 119 392 119 z "},"r":{"ha":735,"x_min":74,"x_max":729,"o":"m 511 597 q 450 582 482 597 q 378 526 418 567 l 378 119 l 575 61 l 544 -1 l 74 -1 l 74 49 l 197 147 l 197 525 l 74 599 l 74 649 l 321 767 l 367 599 l 507 743 q 582 754 539 754 q 672 728 633 754 q 729 653 710 701 l 629 528 l 569 528 q 550 581 564 565 q 511 597 536 597 z "},"ŕ":{"ha":735,"x_min":74,"x_max":729,"o":"m 511 597 q 450 582 482 597 q 378 526 418 567 l 378 119 l 575 61 l 544 -1 l 74 -1 l 74 49 l 197 147 l 197 525 l 74 599 l 74 649 l 321 767 l 367 599 l 507 743 q 582 754 539 754 q 672 728 633 754 q 729 653 710 701 l 629 528 l 569 528 q 550 581 564 565 q 511 597 536 597 m 672 1172 l 357 938 l 296 967 l 444 1239 l 644 1213 l 672 1172 z "},"ř":{"ha":735,"x_min":65,"x_max":729,"o":"m 511 597 q 450 582 482 597 q 378 526 418 567 l 378 119 l 575 61 l 544 -1 l 74 -1 l 74 49 l 197 147 l 197 525 l 74 599 l 74 649 l 321 767 l 367 599 l 507 743 q 582 754 539 754 q 672 728 633 754 q 729 653 710 701 l 629 528 l 569 528 q 550 581 564 565 q 511 597 536 597 m 390 929 l 65 1172 l 93 1213 l 281 1239 l 433 1057 l 658 1228 l 703 1169 l 390 929 z "},"ŗ":{"ha":735,"x_min":74,"x_max":729,"o":"m 511 597 q 450 582 482 597 q 378 526 418 567 l 378 119 l 575 61 l 544 -1 l 74 -1 l 74 49 l 197 147 l 197 525 l 74 599 l 74 649 l 321 767 l 367 599 l 507 743 q 582 754 539 754 q 672 728 633 754 q 729 653 710 701 l 629 528 l 569 528 q 550 581 564 565 q 511 597 536 597 m 464 -165 l 286 -422 l 219 -422 l 256 -254 l 146 -178 l 176 -115 l 464 -115 l 464 -165 z "},"s":{"ha":776,"x_min":111,"x_max":688,"o":"m 511 156 q 469 223 511 192 q 342 300 428 254 q 224 367 268 339 q 149 431 181 394 q 118 513 118 468 q 161 619 118 563 q 267 715 204 676 q 383 754 331 754 q 535 738 449 754 q 660 703 621 722 l 660 485 l 600 485 q 500 613 557 567 q 382 660 443 660 q 317 638 342 660 q 293 585 293 617 q 336 513 293 544 q 469 432 379 481 q 583 369 540 396 q 657 306 626 342 q 688 228 688 271 q 642 120 688 176 q 533 25 597 64 q 414 -14 468 -14 q 248 3 344 -14 q 111 38 151 19 l 111 257 l 171 257 q 283 127 218 174 q 415 81 349 81 q 485 103 458 81 q 511 156 511 125 z "},"ś":{"ha":776,"x_min":111,"x_max":689,"o":"m 511 156 q 469 223 511 192 q 342 300 428 254 q 224 367 268 339 q 149 431 181 394 q 118 513 118 468 q 161 619 118 563 q 267 715 204 676 q 383 754 331 754 q 535 738 449 754 q 660 703 621 722 l 660 485 l 600 485 q 500 613 557 567 q 382 660 443 660 q 317 638 342 660 q 293 585 293 617 q 336 513 293 544 q 469 432 379 481 q 583 369 540 396 q 657 306 626 342 q 688 228 688 271 q 642 120 688 176 q 533 25 597 64 q 414 -14 468 -14 q 248 3 344 -14 q 111 38 151 19 l 111 257 l 171 257 q 283 127 218 174 q 415 81 349 81 q 485 103 458 81 q 511 156 511 125 m 689 1172 l 374 938 l 313 967 l 461 1239 l 661 1213 l 689 1172 z "},"š":{"ha":776,"x_min":83,"x_max":721,"o":"m 511 156 q 469 223 511 192 q 342 300 428 254 q 224 367 268 339 q 149 431 181 394 q 118 513 118 468 q 161 619 118 563 q 267 715 204 676 q 383 754 331 754 q 535 738 449 754 q 660 703 621 722 l 660 485 l 600 485 q 500 613 557 567 q 382 660 443 660 q 317 638 342 660 q 293 585 293 617 q 336 513 293 544 q 469 432 379 481 q 583 369 540 396 q 657 306 626 342 q 688 228 688 271 q 642 120 688 176 q 533 25 597 64 q 414 -14 468 -14 q 248 3 344 -14 q 111 38 151 19 l 111 257 l 171 257 q 283 127 218 174 q 415 81 349 81 q 485 103 458 81 q 511 156 511 125 m 408 929 l 83 1172 l 111 1213 l 299 1239 l 451 1057 l 676 1228 l 721 1169 l 408 929 z "},"ş":{"ha":776,"x_min":111,"x_max":689,"o":"m 689 231 q 646 125 689 181 q 540 31 603 69 q 457 -40 540 31 l 425 -67 q 518 -153 493 -118 q 543 -226 543 -187 q 476 -325 543 -290 q 269 -367 410 -360 l 269 -317 q 392 -201 392 -278 q 372 -147 392 -171 q 303 -93 351 -124 l 399 -14 q 239 4 328 -11 q 111 38 150 19 l 111 257 l 171 257 q 283 127 218 174 q 415 81 349 81 q 485 103 458 81 q 511 156 511 125 q 469 223 511 192 q 342 300 428 254 q 224 367 268 339 q 149 431 181 394 q 118 513 118 468 q 161 619 118 563 q 267 715 204 676 q 383 754 331 754 q 535 738 449 754 q 660 703 621 722 l 660 485 l 600 485 q 500 613 557 567 q 382 660 443 660 q 317 638 342 660 q 293 585 293 617 q 336 513 293 544 q 469 432 379 481 q 583 369 540 396 q 657 306 626 342 q 688 228 688 271 l 689 231 z "},"ș":{"ha":776,"x_min":111,"x_max":688,"o":"m 511 156 q 469 223 511 192 q 342 300 428 254 q 224 367 268 339 q 149 431 181 394 q 118 513 118 468 q 161 619 118 563 q 267 715 204 676 q 383 754 331 754 q 535 738 449 754 q 660 703 621 722 l 660 485 l 600 485 q 500 613 557 567 q 382 660 443 660 q 317 638 342 660 q 293 585 293 617 q 336 513 293 544 q 469 432 379 481 q 583 369 540 396 q 657 306 626 342 q 688 228 688 271 q 642 120 688 176 q 533 25 597 64 q 414 -14 468 -14 q 248 3 344 -14 q 111 38 151 19 l 111 257 l 171 257 q 283 127 218 174 q 415 81 349 81 q 485 103 458 81 q 511 156 511 125 m 556 -165 l 378 -422 l 311 -422 l 347 -254 l 238 -178 l 268 -115 l 556 -115 l 556 -165 z "},"ß":{"ha":1093,"x_min":35,"x_max":1004,"o":"m 678 658 q 715 572 678 610 q 826 483 751 535 q 920 412 885 442 q 980 342 956 382 q 1004 256 1004 303 q 963 136 1004 200 q 863 29 922 72 q 754 -14 803 -14 q 614 -2 694 -14 q 500 24 533 10 l 500 243 l 560 243 q 652 124 597 167 q 761 81 707 81 q 813 110 793 81 q 833 179 833 139 q 798 256 833 221 q 692 342 763 292 q 596 415 632 385 q 534 487 560 446 q 508 576 508 528 q 538 671 508 628 q 619 767 567 714 q 686 844 664 813 q 708 908 708 875 q 678 990 708 943 q 600 1069 647 1036 q 506 1103 553 1103 q 379 886 379 1103 l 379 0 l 75 0 l 75 50 l 199 147 l 199 635 l 35 635 l 35 699 l 199 699 l 199 819 q 259 1021 199 926 q 411 1171 319 1115 q 589 1226 503 1226 q 711 1191 640 1226 q 833 1101 782 1156 q 883 993 883 1047 q 856 899 883 939 q 772 806 828 860 q 701 728 725 761 q 678 658 678 696 z "},"ſ":{"ha":624,"x_min":35,"x_max":747,"o":"m 579 1226 q 672 1218 619 1226 q 747 1200 724 1210 l 747 979 l 688 979 q 603 1069 653 1036 q 501 1101 553 1101 q 409 1047 440 1101 q 378 889 378 993 l 378 121 l 575 63 l 544 0 l 74 0 l 74 50 l 197 149 l 197 635 l 35 635 l 35 699 l 197 699 l 197 818 q 256 1020 197 926 q 405 1170 315 1114 q 579 1226 494 1226 z "},"t":{"ha":643,"x_min":19,"x_max":624,"o":"m 483 -3 q 399 -14 449 -14 q 224 47 279 -14 q 169 233 169 107 l 169 635 l 19 635 l 19 694 l 290 1006 l 350 1006 l 350 699 l 600 699 l 600 635 l 350 635 l 350 222 q 458 113 350 113 q 514 124 488 113 q 582 167 540 136 l 624 108 l 483 -3 z "},"ŧ":{"ha":643,"x_min":19,"x_max":624,"o":"m 483 -3 q 399 -14 449 -14 q 224 47 279 -14 q 169 233 169 107 l 169 635 l 19 635 l 19 694 l 290 1006 l 350 1006 l 350 699 l 600 699 l 600 635 l 350 635 l 350 222 q 458 113 350 113 q 514 124 488 113 q 582 167 540 136 l 624 108 l 483 -3 m 310 522 l 310 522 l 310 522 l 310 522 l 310 522 z "},"ť":{"ha":643,"x_min":19,"x_max":686,"o":"m 483 -3 q 399 -14 449 -14 q 224 47 279 -14 q 169 233 169 107 l 169 635 l 19 635 l 19 694 l 290 1006 l 350 1006 l 350 699 l 600 699 l 600 635 l 350 635 l 350 222 q 458 113 350 113 q 514 124 488 113 q 582 167 540 136 l 624 108 l 483 -3 m 686 999 l 522 793 l 461 840 q 511 946 494 892 q 525 1047 528 1000 l 465 1099 l 465 1149 l 628 1213 l 686 1213 l 686 999 z "},"ţ":{"ha":643,"x_min":19,"x_max":624,"o":"m 407 -64 q 500 -150 475 -115 q 525 -224 525 -185 q 458 -322 525 -287 q 251 -364 392 -357 l 251 -314 q 374 -199 374 -275 q 353 -144 374 -168 q 285 -90 333 -121 l 381 -11 q 220 53 271 -7 q 169 235 169 113 l 169 636 l 19 636 l 19 696 l 290 1007 l 350 1007 l 350 700 l 600 700 l 600 636 l 350 636 l 350 224 q 458 114 350 114 q 514 126 488 114 q 582 168 540 138 l 624 110 l 513 21 l 407 -67 l 407 -64 z "},"ț":{"ha":643,"x_min":19,"x_max":624,"o":"m 483 -3 q 399 -14 449 -14 q 224 47 279 -14 q 169 233 169 107 l 169 635 l 19 635 l 19 694 l 290 1006 l 350 1006 l 350 699 l 600 699 l 600 635 l 350 635 l 350 222 q 458 113 350 113 q 514 124 488 113 q 582 167 540 136 l 624 108 l 483 -3 m 540 -165 l 363 -422 l 296 -422 l 332 -254 l 222 -178 l 253 -115 l 540 -115 l 540 -165 z "},"u":{"ha":976,"x_min":43,"x_max":933,"o":"m 901 0 l 628 0 l 628 140 l 456 -3 q 378 -14 429 -14 q 224 44 281 -14 q 167 200 167 101 l 167 525 l 43 597 l 43 647 l 288 764 l 347 764 l 347 276 q 371 172 347 201 q 453 142 394 142 q 533 157 493 142 q 628 215 574 172 l 628 525 l 504 597 l 504 647 l 749 764 l 808 764 l 808 108 l 933 63 l 901 0 z "},"ú":{"ha":976,"x_min":43,"x_max":933,"o":"m 901 0 l 628 0 l 628 140 l 456 -3 q 378 -14 429 -14 q 224 44 281 -14 q 167 200 167 101 l 167 525 l 43 597 l 43 647 l 288 764 l 347 764 l 347 276 q 371 172 347 201 q 453 142 394 142 q 533 157 493 142 q 628 215 574 172 l 628 525 l 504 597 l 504 647 l 749 764 l 808 764 l 808 108 l 933 63 l 901 0 m 783 1172 l 468 938 l 407 967 l 556 1239 l 756 1213 l 783 1172 z "},"û":{"ha":976,"x_min":43,"x_max":933,"o":"m 901 0 l 628 0 l 628 140 l 456 -3 q 378 -14 429 -14 q 224 44 281 -14 q 167 200 167 101 l 167 525 l 43 597 l 43 647 l 288 764 l 347 764 l 347 276 q 371 172 347 201 q 453 142 394 142 q 533 157 493 142 q 628 215 574 172 l 628 525 l 504 597 l 504 647 l 749 764 l 808 764 l 808 108 l 933 63 l 901 0 m 789 944 l 601 918 l 449 1100 l 224 929 l 179 988 l 492 1228 l 817 985 l 789 944 z "},"ü":{"ha":976,"x_min":43,"x_max":933,"o":"m 292 953 q 225 983 251 953 q 199 1058 199 1014 q 217 1118 199 1090 q 265 1163 236 1146 q 319 1179 293 1179 q 386 1149 360 1179 q 413 1074 413 1118 q 394 1014 413 1042 q 347 969 375 986 q 292 953 318 953 m 674 953 q 607 983 633 953 q 581 1058 581 1014 q 599 1118 581 1090 q 647 1163 618 1146 q 701 1179 675 1179 q 768 1149 742 1179 q 794 1074 794 1118 q 776 1014 794 1042 q 728 969 757 986 q 674 953 700 953 m 901 0 l 628 0 l 628 140 l 456 -3 q 378 -14 429 -14 q 224 44 281 -14 q 167 200 167 101 l 167 525 l 43 597 l 43 647 l 288 764 l 347 764 l 347 276 q 371 172 347 201 q 453 142 394 142 q 533 157 493 142 q 628 215 574 172 l 628 525 l 504 597 l 504 647 l 749 764 l 808 764 l 808 108 l 933 63 l 901 0 z "},"ù":{"ha":976,"x_min":43,"x_max":933,"o":"m 901 0 l 628 0 l 628 140 l 456 -3 q 378 -14 429 -14 q 224 44 281 -14 q 167 200 167 101 l 167 525 l 43 597 l 43 647 l 288 764 l 347 764 l 347 276 q 371 172 347 201 q 453 142 394 142 q 533 157 493 142 q 628 215 574 172 l 628 525 l 504 597 l 504 647 l 749 764 l 808 764 l 808 108 l 933 63 l 901 0 m 529 938 l 213 1172 l 240 1213 l 440 1239 l 589 967 l 529 938 z "},"ű":{"ha":976,"x_min":43,"x_max":933,"o":"m 901 0 l 628 0 l 628 140 l 456 -3 q 378 -14 429 -14 q 224 44 281 -14 q 167 200 167 101 l 167 525 l 43 597 l 43 647 l 288 764 l 347 764 l 347 276 q 371 172 347 201 q 453 142 394 142 q 533 157 493 142 q 628 215 574 172 l 628 525 l 504 597 l 504 647 l 749 764 l 808 764 l 808 108 l 933 63 l 901 0 m 554 1172 l 293 938 l 232 967 l 336 1239 l 525 1213 l 554 1172 m 913 1172 l 653 938 l 592 967 l 696 1239 l 885 1213 l 913 1172 z "},"ū":{"ha":976,"x_min":43,"x_max":933,"o":"m 901 0 l 628 0 l 628 140 l 456 -3 q 378 -14 429 -14 q 224 44 281 -14 q 167 200 167 101 l 167 525 l 43 597 l 43 647 l 288 764 l 347 764 l 347 276 q 371 172 347 201 q 453 142 394 142 q 533 157 493 142 q 628 215 574 172 l 628 525 l 504 597 l 504 647 l 749 764 l 808 764 l 808 108 l 933 63 l 901 0 m 200 1107 l 794 1107 l 794 1038 l 200 1038 l 200 1107 z "},"ų":{"ha":976,"x_min":43,"x_max":933,"o":"m 901 0 q 819 -92 844 -56 q 794 -158 794 -129 q 810 -197 794 -183 q 858 -217 825 -211 l 858 -276 l 744 -367 q 608 -210 608 -322 q 619 -154 608 -179 l 815 0 l 628 0 l 628 140 l 456 -3 q 378 -14 429 -14 q 224 44 281 -14 q 167 200 167 101 l 167 525 l 43 597 l 43 647 l 288 764 l 347 764 l 347 276 q 371 172 347 201 q 453 142 394 142 q 533 157 493 142 q 628 215 574 172 l 628 525 l 504 597 l 504 647 l 749 764 l 808 764 l 808 108 l 933 63 l 901 0 z "},"ů":{"ha":976,"x_min":43,"x_max":933,"o":"m 901 0 l 628 0 l 628 140 l 456 -3 q 378 -14 429 -14 q 224 44 281 -14 q 167 200 167 101 l 167 525 l 43 597 l 43 647 l 288 764 l 347 764 l 347 276 q 371 172 347 201 q 453 142 394 142 q 533 157 493 142 q 628 215 574 172 l 628 525 l 504 597 l 504 647 l 749 764 l 808 764 l 808 108 l 933 63 l 901 0 m 546 1228 q 660 1188 614 1228 q 706 1090 706 1149 q 666 999 706 1042 q 566 930 626 956 q 447 904 506 904 q 333 944 379 904 q 288 1042 288 985 q 327 1133 288 1090 q 427 1202 367 1176 q 546 1228 488 1228 m 465 1163 q 414 1148 432 1163 q 396 1107 396 1133 q 431 1009 396 1047 q 528 971 465 971 q 580 985 561 971 q 599 1026 599 1000 q 564 1124 599 1085 q 465 1163 529 1163 z "},"v":{"ha":869,"x_min":4,"x_max":821,"o":"m 821 690 l 469 0 l 350 0 l 135 524 l 4 600 l 4 650 l 256 767 l 308 557 l 475 153 l 665 543 l 478 678 l 508 740 l 821 740 l 821 690 z "},"w":{"ha":1264,"x_min":4,"x_max":1215,"o":"m 1215 689 l 903 -1 l 783 -1 l 643 342 l 469 -1 l 350 -1 l 135 522 l 4 599 l 4 649 l 256 765 l 308 556 l 475 153 l 607 432 l 569 524 l 439 600 l 439 650 l 690 767 l 743 557 l 906 164 l 1068 538 l 872 678 l 903 740 l 1215 739 l 1215 689 z "},"ẃ":{"ha":1264,"x_min":4,"x_max":1215,"o":"m 1215 689 l 903 -1 l 783 -1 l 643 342 l 469 -1 l 350 -1 l 135 522 l 4 599 l 4 649 l 256 765 l 308 556 l 475 153 l 607 432 l 569 524 l 439 600 l 439 650 l 690 767 l 743 557 l 906 164 l 1068 538 l 872 678 l 903 740 l 1215 739 l 1215 689 m 918 1172 l 603 938 l 542 967 l 690 1239 l 890 1213 l 918 1172 z "},"ŵ":{"ha":1264,"x_min":4,"x_max":1215,"o":"m 1215 689 l 903 -1 l 783 -1 l 643 342 l 469 -1 l 350 -1 l 135 522 l 4 599 l 4 649 l 256 765 l 308 556 l 475 153 l 607 432 l 569 524 l 439 600 l 439 650 l 690 767 l 743 557 l 906 164 l 1068 538 l 872 678 l 903 740 l 1215 739 l 1215 689 m 924 944 l 736 918 l 583 1100 l 358 929 l 314 988 l 626 1228 l 951 985 l 924 944 z "},"ẅ":{"ha":1264,"x_min":4,"x_max":1215,"o":"m 426 953 q 360 983 386 953 q 333 1058 333 1014 q 352 1118 333 1090 q 399 1163 371 1146 q 454 1179 428 1179 q 521 1149 494 1179 q 547 1074 547 1118 q 528 1014 547 1042 q 481 969 510 986 q 426 953 453 953 m 808 953 q 742 983 768 953 q 715 1058 715 1014 q 734 1118 715 1090 q 781 1163 753 1146 q 836 1179 810 1179 q 903 1149 876 1179 q 929 1074 929 1118 q 910 1014 929 1042 q 863 969 892 986 q 808 953 835 953 m 1215 689 l 903 -1 l 783 -1 l 643 342 l 469 -1 l 350 -1 l 135 522 l 4 599 l 4 649 l 256 765 l 308 556 l 475 153 l 607 432 l 569 524 l 439 600 l 439 650 l 690 767 l 743 557 l 906 164 l 1068 538 l 872 678 l 903 740 l 1215 739 l 1215 689 z "},"ẁ":{"ha":1264,"x_min":4,"x_max":1215,"o":"m 1215 689 l 903 -1 l 783 -1 l 643 342 l 469 -1 l 350 -1 l 135 522 l 4 599 l 4 649 l 256 765 l 308 556 l 475 153 l 607 432 l 569 524 l 439 600 l 439 650 l 690 767 l 743 557 l 906 164 l 1068 538 l 872 678 l 903 740 l 1215 739 l 1215 689 m 664 938 l 347 1172 l 375 1213 l 575 1239 l 724 967 l 664 938 z "},"x":{"ha":871,"x_min":18,"x_max":849,"o":"m 818 -1 l 599 -1 l 385 288 l 236 149 l 364 60 l 333 -3 l 25 -3 l 25 47 l 340 346 l 143 603 l 18 678 l 50 740 l 269 740 l 482 456 l 625 589 l 496 678 l 528 740 l 835 740 l 835 690 l 525 397 l 722 142 l 849 61 l 818 -1 z "},"y":{"ha":869,"x_min":4,"x_max":821,"o":"m 821 690 l 469 0 l 172 -367 l 113 -319 q 230 -171 189 -235 q 288 -43 271 -107 q 306 107 304 21 l 135 524 l 4 600 l 4 650 l 256 767 l 308 557 l 475 153 l 665 543 l 478 678 l 508 740 l 821 740 l 821 690 z "},"ý":{"ha":869,"x_min":4,"x_max":821,"o":"m 821 690 l 469 0 l 172 -367 l 113 -319 q 230 -171 189 -235 q 288 -43 271 -107 q 306 107 304 21 l 135 524 l 4 600 l 4 650 l 256 767 l 308 557 l 475 153 l 665 543 l 478 678 l 508 740 l 821 740 l 821 690 m 708 1172 l 393 938 l 332 967 l 481 1239 l 681 1213 l 708 1172 z "},"ŷ":{"ha":869,"x_min":4,"x_max":821,"o":"m 821 690 l 469 0 l 172 -367 l 113 -319 q 230 -171 189 -235 q 288 -43 271 -107 q 306 107 304 21 l 135 524 l 4 600 l 4 650 l 256 767 l 308 557 l 475 153 l 665 543 l 478 678 l 508 740 l 821 740 l 821 690 m 714 944 l 526 918 l 374 1100 l 149 929 l 104 988 l 417 1228 l 742 985 l 714 944 z "},"ÿ":{"ha":869,"x_min":4,"x_max":821,"o":"m 217 953 q 150 983 176 953 q 124 1058 124 1014 q 142 1118 124 1090 q 190 1163 161 1146 q 244 1179 218 1179 q 311 1149 285 1179 q 338 1074 338 1118 q 319 1014 338 1042 q 272 969 300 986 q 217 953 243 953 m 599 953 q 532 983 558 953 q 506 1058 506 1014 q 524 1118 506 1090 q 572 1163 543 1146 q 626 1179 600 1179 q 693 1149 667 1179 q 719 1074 719 1118 q 701 1014 719 1042 q 653 969 682 986 q 599 953 625 953 m 821 690 l 469 0 l 172 -367 l 113 -319 q 230 -171 189 -235 q 288 -43 271 -107 q 306 107 304 21 l 135 524 l 4 600 l 4 650 l 256 767 l 308 557 l 475 153 l 665 543 l 478 678 l 508 740 l 821 740 l 821 690 z "},"ỳ":{"ha":869,"x_min":4,"x_max":821,"o":"m 821 690 l 469 0 l 172 -367 l 113 -319 q 230 -171 189 -235 q 288 -43 271 -107 q 306 107 304 21 l 135 524 l 4 600 l 4 650 l 256 767 l 308 557 l 475 153 l 665 543 l 478 678 l 508 740 l 821 740 l 821 690 m 454 938 l 138 1172 l 165 1213 l 365 1239 l 514 967 l 454 938 z "},"z":{"ha":858,"x_min":96,"x_max":763,"o":"m 638 181 l 697 296 l 746 281 l 746 -25 l 663 0 l 96 0 l 96 60 l 556 560 l 217 560 l 161 457 l 113 474 l 113 765 l 196 740 l 763 740 l 763 681 l 306 181 l 638 181 z "},"ź":{"ha":858,"x_min":96,"x_max":763,"o":"m 638 181 l 697 296 l 746 281 l 746 -25 l 663 0 l 96 0 l 96 60 l 556 560 l 217 560 l 161 457 l 113 474 l 113 765 l 196 740 l 763 740 l 763 681 l 306 181 l 638 181 m 724 1172 l 408 938 l 347 967 l 496 1239 l 696 1213 l 724 1172 z "},"ž":{"ha":858,"x_min":96,"x_max":763,"o":"m 638 181 l 697 296 l 746 281 l 746 -25 l 663 0 l 96 0 l 96 60 l 556 560 l 217 560 l 161 457 l 113 474 l 113 765 l 196 740 l 763 740 l 763 681 l 306 181 l 638 181 m 443 929 l 118 1172 l 146 1213 l 333 1239 l 486 1057 l 711 1228 l 756 1169 l 443 929 z "},"ż":{"ha":858,"x_min":96,"x_max":763,"o":"m 638 181 l 697 296 l 746 281 l 746 -25 l 663 0 l 96 0 l 96 60 l 556 560 l 217 560 l 161 457 l 113 474 l 113 765 l 196 740 l 763 740 l 763 681 l 306 181 l 638 181 m 451 1183 q 526 1151 497 1183 q 556 1071 556 1118 q 535 1008 556 1038 q 482 960 514 978 q 419 943 450 943 q 346 975 375 943 q 317 1056 317 1007 q 338 1119 317 1089 q 390 1166 358 1149 q 451 1183 422 1183 z "},"ﬁ":{"ha":1090,"x_min":35,"x_max":1046,"o":"m 1015 0 l 740 0 l 740 547 l 626 635 l 376 635 l 376 121 l 574 63 l 543 0 l 72 0 l 72 50 l 196 149 l 196 635 l 35 635 l 35 699 l 196 699 l 196 818 q 255 1020 196 926 q 404 1170 314 1114 q 579 1226 494 1226 q 745 1208 651 1226 q 872 1172 839 1190 q 916 1129 901 1156 q 931 1071 931 1103 q 910 1008 931 1038 q 857 960 889 978 q 794 943 825 943 q 744 958 768 943 q 703 1003 719 972 q 656 1067 681 1046 q 597 1094 632 1088 q 500 1101 563 1101 q 408 1047 439 1101 q 376 889 376 993 l 376 699 l 639 699 l 861 767 l 921 767 l 921 108 l 1046 63 l 1015 0 z "},"ﬂ":{"ha":1090,"x_min":35,"x_max":1046,"o":"m 1015 0 l 740 0 l 740 1018 q 648 1078 706 1056 q 538 1101 590 1101 q 422 1045 468 1101 q 376 889 376 989 l 376 699 l 622 699 l 622 635 l 376 635 l 376 121 l 574 63 l 543 0 l 72 0 l 72 50 l 196 149 l 196 635 l 35 635 l 35 699 l 196 699 l 196 818 q 263 1020 196 926 q 432 1170 331 1114 q 628 1226 533 1226 q 865 1213 735 1226 l 921 1213 l 921 108 l 1046 63 l 1015 0 z "},"ª":{"ha":761,"x_min":81,"x_max":729,"o":"m 703 576 l 469 576 l 469 667 l 336 574 q 277 566 312 566 q 127 611 173 566 q 81 721 81 657 q 110 796 81 759 q 197 866 140 833 l 469 866 l 469 922 q 322 1044 469 1044 q 135 970 247 1044 l 100 1014 l 269 1132 q 387 1142 323 1142 q 561 1094 499 1142 q 623 956 623 1046 l 623 660 l 729 623 l 703 576 m 319 665 q 469 720 389 665 l 469 818 l 264 818 q 244 787 250 802 q 238 752 238 771 q 260 690 238 716 q 319 665 283 665 z "},"º":{"ha":826,"x_min":93,"x_max":733,"o":"m 455 1142 q 599 1106 536 1142 q 697 1009 662 1070 q 733 872 733 947 q 677 721 733 791 q 536 608 621 650 q 372 566 451 566 q 229 602 292 566 q 130 699 166 638 q 94 836 94 761 q 150 987 94 917 q 291 1100 206 1058 q 455 1142 376 1142 m 387 1047 q 259 886 259 1047 q 306 724 259 789 q 440 660 353 660 q 534 701 503 660 q 566 823 566 743 q 520 983 566 919 q 387 1047 473 1047 z "},"Δ":{"ha":1206,"x_min":81,"x_max":1114,"o":"m 1114 0 l 81 0 l 81 50 l 511 1047 l 675 1118 l 1114 58 l 1114 0 m 553 940 l 179 71 l 913 71 l 553 940 z "},"Ω":{"ha":1301,"x_min":94,"x_max":1207,"o":"m 1179 250 l 1179 -25 l 1099 0 l 699 0 l 699 383 q 853 422 783 386 q 963 516 922 457 q 1003 647 1003 575 q 961 823 1003 744 q 833 948 919 901 q 619 994 746 994 q 457 960 531 994 q 341 865 383 925 q 299 731 299 804 q 376 502 299 599 q 603 383 453 406 l 603 0 l 203 0 l 122 -25 l 122 250 l 171 267 l 351 71 l 444 71 l 444 272 q 262 352 342 296 q 138 490 182 408 q 94 665 94 571 q 190 892 94 788 q 428 1059 286 997 q 700 1121 571 1121 q 965 1068 850 1121 q 1144 922 1081 1015 q 1207 714 1207 829 q 1158 549 1207 628 q 1030 410 1110 471 q 857 313 950 350 l 857 71 l 950 71 l 1131 267 l 1179 250 z "},"μ":{"ha":968,"x_min":89,"x_max":890,"o":"m 810 251 q 832 168 810 214 q 890 82 854 122 l 689 -14 l 629 -14 l 629 140 l 458 -3 q 381 -14 429 -14 q 350 -12 360 -14 l 350 -87 q 372 -170 349 -124 q 431 -257 394 -217 l 229 -353 l 169 -353 l 169 499 q 148 581 171 535 q 89 668 125 628 l 290 764 l 350 764 l 350 276 q 373 172 350 201 q 454 142 396 142 q 535 157 494 142 q 629 215 576 172 l 629 499 q 607 582 629 536 q 549 668 585 628 l 750 764 l 810 764 l 810 251 z "},"π":{"ha":1092,"x_min":0,"x_max":1014,"o":"m 835 239 q 857 156 835 201 q 915 69 879 110 l 742 -14 l 682 -14 l 682 558 l 468 558 l 468 0 l 235 0 l 235 50 q 293 136 271 90 q 315 219 315 182 l 315 558 l 253 558 q 46 504 163 558 l 0 571 l 214 740 l 1014 740 l 1014 558 l 835 558 l 835 239 z "},"ॲ":{"ha":1428,"x_min":118,"x_max":1692,"o":"m 1333 943 l 1333 -11 l 1274 -11 l 1107 126 l 1153 181 l 1153 458 q 1060 408 1108 424 q 953 393 1013 393 q 819 417 882 393 q 821 404 821 413 q 781 303 821 353 q 676 222 740 254 q 547 190 613 190 q 488 194 522 190 q 435 201 454 197 l 118 464 l 167 521 l 244 457 q 485 346 374 346 q 594 382 550 349 q 639 463 639 415 q 593 549 639 503 q 444 660 547 596 l 444 719 q 551 796 514 751 q 589 893 589 840 q 571 953 589 932 q 519 974 553 974 q 410 939 472 974 q 283 843 347 904 l 168 935 l 168 994 q 299 1078 229 1049 q 432 1108 369 1108 q 587 1063 507 1108 q 719 947 667 1017 q 772 814 772 878 q 735 704 772 757 q 636 617 699 651 q 704 567 669 594 q 858 511 790 511 q 1002 558 933 511 q 1151 710 1071 604 l 1151 940 l 949 940 l 833 1032 l 833 1092 l 1443 1092 l 1558 1000 l 1560 943 l 1333 943 m 1025 1624 q 1014 1535 1014 1574 q 1062 1447 1014 1475 q 1208 1419 1110 1419 q 1399 1478 1325 1419 q 1496 1642 1474 1538 l 1550 1692 l 1692 1576 q 1623 1433 1678 1497 q 1481 1333 1568 1369 q 1290 1296 1394 1296 q 1067 1338 1176 1296 q 888 1449 957 1381 q 818 1588 818 1517 q 829 1686 818 1638 l 876 1743 l 1025 1624 z "},"ऄ":{"ha":1428,"x_min":-221,"x_max":1560,"o":"m 1333 943 l 1333 -11 l 1274 -11 l 1107 126 l 1153 181 l 1153 458 q 1060 408 1108 424 q 953 393 1013 393 q 819 417 882 393 q 821 404 821 413 q 781 303 821 353 q 676 222 740 254 q 547 190 613 190 q 488 194 522 190 q 435 201 454 197 l 118 464 l 167 521 l 244 457 q 485 346 374 346 q 594 382 550 349 q 639 463 639 415 q 593 549 639 503 q 444 660 547 596 l 444 719 q 551 796 514 751 q 589 893 589 840 q 571 953 589 932 q 519 974 553 974 q 410 939 472 974 q 283 843 347 904 l 168 935 l 168 994 q 299 1078 229 1049 q 432 1108 369 1108 q 587 1063 507 1108 q 719 947 667 1017 q 772 814 772 878 q 735 704 772 757 q 636 617 699 651 q 704 567 669 594 q 858 511 790 511 q 1002 558 933 511 q 1151 710 1071 604 l 1151 940 l 949 940 l 833 1032 l 833 1092 l 1154 1092 l 946 1269 q 822 1346 883 1322 q 685 1369 760 1369 q 533 1351 618 1369 q 449 1338 481 1342 q 375 1333 418 1333 q 192 1368 271 1333 q 3 1494 113 1403 l -221 1685 l -174 1742 l 14 1583 q 139 1508 76 1532 q 276 1483 201 1483 q 349 1488 317 1483 q 428 1500 381 1492 q 585 1518 513 1518 q 771 1484 690 1518 q 957 1358 851 1450 l 1267 1092 l 1443 1092 l 1558 1000 l 1560 943 l 1333 943 z "},"अ":{"ha":1428,"x_min":118,"x_max":1560,"o":"m 1333 943 l 1333 -11 l 1274 -11 l 1107 126 l 1153 181 l 1153 458 q 1060 408 1108 424 q 953 393 1013 393 q 819 417 882 393 q 821 404 821 413 q 781 303 821 353 q 676 222 740 254 q 547 190 613 190 q 488 194 522 190 q 435 201 454 197 l 118 464 l 167 521 l 244 457 q 485 346 374 346 q 594 382 550 349 q 639 463 639 415 q 593 549 639 503 q 444 660 547 596 l 444 719 q 551 796 514 751 q 589 893 589 840 q 571 953 589 932 q 519 974 553 974 q 410 939 472 974 q 283 843 347 904 l 168 935 l 168 994 q 299 1078 229 1049 q 432 1108 369 1108 q 587 1063 507 1108 q 719 947 667 1017 q 772 814 772 878 q 735 704 772 757 q 636 617 699 651 q 704 567 669 594 q 858 511 790 511 q 1002 558 933 511 q 1151 710 1071 604 l 1151 940 l 949 940 l 833 1032 l 833 1092 l 1443 1092 l 1558 1000 l 1560 943 l 1333 943 z "},"आ":{"ha":1889,"x_min":118,"x_max":2021,"o":"m 1794 943 l 1794 -11 l 1735 -11 l 1568 126 l 1614 181 l 1614 943 l 1333 943 l 1333 -11 l 1274 -11 l 1107 126 l 1153 181 l 1153 458 q 1060 408 1108 424 q 953 393 1013 393 q 819 417 882 393 q 821 404 821 413 q 781 303 821 353 q 676 222 740 254 q 547 190 613 190 q 488 194 522 190 q 435 201 454 197 l 118 464 l 167 521 l 244 457 q 485 346 374 346 q 594 382 550 349 q 639 463 639 415 q 593 549 639 503 q 444 660 547 596 l 444 719 q 551 796 514 751 q 589 893 589 840 q 571 953 589 932 q 519 974 553 974 q 410 939 472 974 q 283 843 347 904 l 168 935 l 168 994 q 299 1078 229 1049 q 432 1108 369 1108 q 587 1063 507 1108 q 719 947 667 1017 q 772 814 772 878 q 735 704 772 757 q 636 617 699 651 q 704 567 669 594 q 858 511 790 511 q 1002 558 933 511 q 1151 710 1071 604 l 1151 940 l 949 940 l 833 1032 l 833 1092 l 1904 1092 l 2019 1000 l 2021 943 l 1794 943 z "},"इ":{"ha":1011,"x_min":-75,"x_max":1233,"o":"m 551 681 q 444 646 489 681 q 400 563 400 611 q 415 517 400 538 q 465 475 429 497 q 566 525 526 510 q 638 540 606 540 q 800 492 715 540 q 942 369 885 443 q 999 229 999 296 q 932 121 999 178 q 765 26 865 64 q 571 -11 664 -11 q 494 -4 536 -11 l 638 -124 q 756 -193 693 -171 q 896 -215 819 -215 q 1036 -197 958 -215 l 1149 -287 l 1149 -347 q 993 -364 1069 -364 q 810 -330 889 -364 q 621 -206 731 -296 l 268 86 q 142 203 189 138 q 94 335 94 269 q 114 406 94 382 q 164 429 133 429 q 368 183 268 429 q 539 143 443 143 q 670 167 606 143 q 775 228 735 190 q 815 304 815 265 q 789 357 815 332 q 735 382 763 382 q 581 324 672 382 q 410 387 494 335 q 271 509 325 439 q 217 639 217 579 q 250 733 217 689 q 340 803 283 776 q 460 829 396 829 l 683 829 l 683 940 l 40 940 l -75 1032 l -75 1092 l 1117 1092 l 1233 1000 l 1233 940 l 864 940 l 864 678 l 549 678 l 551 681 z "},"ई":{"ha":1011,"x_min":-75,"x_max":1233,"o":"m 551 681 q 444 646 489 681 q 400 563 400 611 q 415 517 400 538 q 465 475 429 497 q 566 525 526 510 q 638 540 606 540 q 800 492 715 540 q 942 369 885 443 q 999 229 999 296 q 932 121 999 178 q 765 26 865 64 q 571 -11 664 -11 q 494 -4 536 -11 l 638 -124 q 756 -193 693 -171 q 896 -215 819 -215 q 1036 -197 958 -215 l 1149 -287 l 1149 -347 q 993 -364 1069 -364 q 810 -330 889 -364 q 621 -206 731 -296 l 268 86 q 142 203 189 138 q 94 335 94 269 q 114 406 94 382 q 164 429 133 429 q 368 183 268 429 q 539 143 443 143 q 670 167 606 143 q 775 228 735 190 q 815 304 815 265 q 789 357 815 332 q 735 382 763 382 q 581 324 672 382 q 410 387 494 335 q 271 509 325 439 q 217 639 217 579 q 250 733 217 689 q 340 803 283 776 q 460 829 396 829 l 683 829 l 683 940 l 40 940 l -75 1032 l -75 1092 l 701 1092 l 451 1306 q 440 1426 440 1360 q 483 1597 440 1524 q 603 1711 525 1671 q 785 1751 681 1751 q 904 1742 847 1751 l 1118 1574 l 1076 1517 q 942 1589 1001 1567 q 831 1611 883 1611 q 688 1549 740 1611 q 636 1383 636 1486 q 744 1151 636 1243 l 814 1092 l 1117 1092 l 1233 1000 l 1233 940 l 864 940 l 864 678 l 549 678 l 551 681 z "},"उ":{"ha":856,"x_min":-110,"x_max":954,"o":"m 597 942 q 663 848 639 897 q 686 750 686 799 q 648 631 686 683 q 543 550 610 578 q 789 376 704 461 q 874 215 874 290 q 824 111 874 165 q 701 22 775 57 q 557 -14 626 -14 q 435 -3 482 -14 l 44 325 l 92 383 l 238 258 q 374 170 310 197 q 514 143 439 143 q 601 163 560 143 q 667 213 642 182 q 693 279 693 244 q 660 360 693 321 q 544 451 626 399 q 306 583 461 503 l 306 643 q 392 683 349 653 q 463 751 435 713 q 490 821 490 789 q 476 894 490 864 q 436 940 463 925 l 6 940 l -110 1032 l -110 1092 l 838 1092 l 954 1000 l 954 942 l 597 942 z "},"ऊ":{"ha":1494,"x_min":-110,"x_max":1596,"o":"m 597 939 q 663 845 639 894 q 686 747 686 796 q 648 628 686 681 q 543 547 610 575 l 604 514 l 631 547 q 732 665 690 622 q 835 734 774 707 q 982 761 896 761 q 1158 716 1068 761 q 1308 596 1249 671 q 1368 435 1368 521 q 1333 324 1368 375 q 1236 242 1299 274 q 1096 210 1174 211 l 982 301 l 982 361 q 1035 357 1010 357 q 1137 398 1101 357 q 1172 503 1172 439 q 1146 606 1172 569 q 1067 642 1119 642 q 963 619 1008 642 q 878 558 917 596 q 779 451 839 521 q 746 414 779 451 q 874 215 874 307 q 824 111 874 165 q 701 22 775 57 q 557 -14 626 -14 q 435 -3 482 -14 l 44 325 l 92 383 l 238 258 q 374 170 310 197 q 514 143 439 143 q 601 163 560 143 q 667 213 642 182 q 693 279 693 244 q 660 360 693 321 q 544 451 626 399 q 306 583 461 503 l 306 643 q 392 683 349 653 q 463 751 435 713 q 490 821 490 789 q 476 894 490 864 q 436 940 463 925 l 6 940 l -110 1032 l -110 1092 l 1481 1092 l 1596 1000 l 1596 940 l 597 939 z "},"ऋ":{"ha":1779,"x_min":-114,"x_max":1897,"o":"m 922 607 l 924 607 q 1001 592 947 592 q 1119 644 1067 592 q 1167 758 1133 708 q 1243 834 1200 807 q 1325 861 1286 861 q 1440 832 1375 861 q 1549 760 1504 803 q 1594 676 1594 717 q 1525 593 1594 625 q 1326 538 1456 561 q 1456 364 1340 458 l 1456 304 q 1404 310 1432 310 q 1301 267 1338 310 q 1265 160 1265 225 q 1292 55 1265 92 q 1371 18 1318 18 q 1484 73 1428 18 q 1586 219 1540 128 l 1700 129 l 1700 69 q 1597 -60 1653 -18 q 1457 -101 1542 -101 q 1281 -56 1371 -101 q 1131 65 1190 -11 q 1071 229 1071 142 q 1097 327 1071 282 q 1171 404 1124 372 q 1118 522 1132 464 q 1060 518 1092 518 q 921 563 994 518 l 921 -14 l 861 -14 l 694 124 l 740 178 l 740 433 q 400 215 565 301 l 285 307 l 285 367 q 606 556 440 439 q 539 600 568 588 q 481 613 510 613 q 349 578 414 613 q 164 457 283 544 l 53 547 l 53 607 q 244 717 171 685 q 374 750 317 750 q 485 730 435 750 q 613 646 535 710 l 667 600 l 740 658 l 740 940 l 1 940 l -114 1032 l -114 1092 l 1781 1092 l 1897 1000 l 1897 940 l 922 939 l 922 607 z "},"ॠ":{"ha":1779,"x_min":-114,"x_max":1897,"o":"m 924 606 l 925 606 q 1003 590 949 590 q 1121 643 1068 590 q 1168 756 1135 707 q 1244 833 1201 806 q 1326 860 1288 860 q 1441 831 1376 860 q 1551 758 1506 801 q 1596 675 1596 715 q 1526 592 1596 624 q 1328 536 1457 560 q 1368 451 1335 497 l 1393 451 l 1508 360 l 1508 300 q 1433 310 1471 310 q 1322 279 1363 310 q 1281 206 1282 249 q 1294 165 1281 185 q 1414 182 1349 179 l 1522 108 l 1522 49 q 1354 15 1415 47 q 1293 -78 1293 -18 q 1321 -119 1293 -104 q 1401 -133 1349 -133 q 1504 -103 1454 -132 q 1592 -24 1554 -74 l 1706 -114 l 1706 -174 q 1504 -243 1621 -243 q 1319 -206 1411 -243 q 1170 -111 1228 -169 q 1113 7 1113 -53 q 1137 76 1113 44 q 1206 132 1161 107 q 1124 199 1154 163 q 1094 275 1094 236 q 1172 400 1094 353 q 1118 522 1132 461 q 1060 518 1092 518 q 921 563 994 518 l 921 -14 l 861 -14 l 694 124 l 740 178 l 740 433 q 400 215 565 301 l 285 307 l 285 367 q 606 556 440 439 q 539 600 568 588 q 481 613 510 613 q 349 578 414 613 q 164 457 283 544 l 53 547 l 53 607 q 244 717 171 685 q 374 750 317 750 q 485 730 435 750 q 613 646 535 710 l 667 600 l 740 658 l 740 940 l 1 940 l -114 1032 l -114 1092 l 1781 1092 l 1897 1000 l 1897 940 l 1147 940 l 924 938 l 924 606 z "},"ऌ":{"ha":1293,"x_min":-101,"x_max":1394,"o":"m 939 726 q 1102 606 1036 683 q 1168 449 1168 529 q 1140 379 1168 413 q 1054 296 1113 346 q 946 185 983 233 q 908 78 908 138 q 986 -29 908 -29 q 1151 138 1069 -29 l 1276 46 l 1276 -14 q 1190 -112 1239 -78 q 1083 -146 1140 -146 q 917 -101 1001 -146 q 779 12 833 -57 q 725 149 725 81 q 757 240 725 197 q 856 347 789 282 q 946 442 915 403 q 976 525 976 482 q 948 611 976 576 q 867 646 919 646 q 766 607 807 646 q 678 497 725 568 q 668 481 674 490 q 654 461 663 472 l 547 549 l 547 608 q 472 644 524 644 q 364 596 404 644 q 324 478 324 547 q 348 385 324 429 q 432 292 372 342 l 550 190 l 503 135 l 139 446 q 128 533 128 483 q 161 649 128 596 q 253 733 194 701 q 388 764 313 764 q 504 744 444 764 q 617 690 564 725 q 679 740 646 722 q 758 761 713 758 l 758 940 l 14 940 l -101 1032 l -101 1092 l 1279 1092 l 1394 1000 l 1394 940 l 939 943 l 939 726 z "},"ॡ":{"ha":1293,"x_min":-101,"x_max":1394,"o":"m 938 722 q 1101 602 1035 679 q 1167 444 1167 525 q 1128 344 1167 385 q 1021 258 1090 303 q 940 196 965 221 q 914 139 914 171 q 925 103 914 119 q 992 110 965 108 l 1104 31 l 1104 -29 q 938 -56 1001 -25 q 875 -137 875 -86 q 902 -183 875 -168 q 981 -199 929 -199 q 1084 -171 1039 -199 q 1169 -90 1129 -143 l 1283 -182 l 1283 -242 q 1082 -308 1201 -308 q 900 -272 990 -308 q 752 -176 810 -235 q 694 -60 694 -118 q 728 19 694 -17 q 824 78 763 54 q 729 211 729 140 q 756 278 729 251 q 838 339 783 306 q 909 389 882 367 q 956 444 936 411 q 975 522 975 478 q 947 610 975 575 q 865 644 919 644 q 765 606 806 644 q 676 494 724 567 l 653 460 l 546 547 l 546 607 l 550 611 q 471 642 522 642 q 363 593 403 642 q 322 475 322 544 q 347 383 322 426 q 431 289 371 339 l 549 188 l 501 132 l 138 443 q 126 531 126 481 q 160 646 126 593 q 252 730 193 699 q 386 761 311 761 q 503 742 443 761 q 615 688 563 722 q 678 738 644 719 q 758 760 711 756 l 758 940 l 14 940 l -101 1032 l -101 1092 l 1279 1092 l 1394 1000 l 1394 940 l 938 939 l 938 722 z "},"ऍ":{"ha":869,"x_min":-101,"x_max":1146,"o":"m 779 940 q 820 747 810 815 q 831 633 831 679 q 682 333 831 401 l 568 425 l 568 485 q 623 560 608 517 q 638 685 638 603 q 621 940 638 764 l 353 940 q 310 624 310 747 q 342 431 310 511 q 450 290 374 351 l 640 126 q 780 -25 731 51 q 847 -182 829 -101 q 865 -367 865 -262 l 806 -367 l 685 -310 q 650 -60 690 -174 q 518 132 610 54 l 313 304 q 160 463 203 396 q 118 622 118 531 q 171 940 118 718 l 22 940 l -101 1032 l -101 1092 l 885 1092 l 1000 1000 l 1000 940 l 779 940 m 479 1624 q 468 1535 468 1574 q 516 1447 468 1475 q 663 1419 564 1419 q 853 1478 779 1419 q 950 1642 928 1538 l 1004 1692 l 1146 1576 q 1077 1433 1132 1497 q 935 1333 1022 1369 q 744 1296 849 1296 q 521 1338 631 1296 q 342 1449 411 1381 q 272 1588 272 1517 q 283 1686 272 1638 l 331 1743 l 479 1624 z "},"ऎ":{"ha":869,"x_min":-767,"x_max":1000,"o":"m 779 940 q 820 747 810 815 q 831 633 831 679 q 682 333 831 401 l 568 425 l 568 485 q 623 560 608 517 q 638 685 638 603 q 621 940 638 764 l 353 940 q 310 624 310 747 q 342 431 310 511 q 450 290 374 351 l 640 126 q 780 -25 731 51 q 847 -182 829 -101 q 865 -367 865 -262 l 806 -367 l 685 -310 q 650 -60 690 -174 q 518 132 610 54 l 313 304 q 160 463 203 396 q 118 622 118 531 q 171 940 118 718 l 22 940 l -101 1032 l -101 1092 l 608 1092 l 400 1269 q 276 1346 338 1322 q 139 1369 214 1369 q -12 1351 72 1369 q -97 1338 -65 1342 q -171 1333 -128 1333 q -354 1368 -275 1333 q -543 1494 -433 1403 l -767 1685 l -719 1742 l -532 1583 q -407 1508 -469 1532 q -269 1483 -344 1483 q -197 1488 -229 1483 q -118 1500 -165 1492 q 39 1518 -33 1518 q 225 1484 144 1518 q 411 1358 306 1450 l 721 1092 l 885 1092 l 1000 1000 l 1000 940 l 779 940 z "},"ए":{"ha":869,"x_min":-101,"x_max":1000,"o":"m 779 940 q 820 747 810 815 q 831 633 831 679 q 682 333 831 401 l 568 425 l 568 485 q 623 560 608 517 q 638 685 638 603 q 621 940 638 764 l 353 940 q 310 624 310 747 q 342 431 310 511 q 450 290 374 351 l 640 126 q 780 -25 731 51 q 847 -182 829 -101 q 865 -367 865 -262 l 806 -367 l 685 -310 q 650 -60 690 -174 q 518 132 610 54 l 313 304 q 160 463 203 396 q 118 622 118 531 q 171 940 118 718 l 22 940 l -101 1032 l -101 1092 l 885 1092 l 1000 1000 l 1000 940 l 779 940 z "},"ऐ":{"ha":869,"x_min":-201,"x_max":1000,"o":"m 779 940 q 820 747 810 815 q 831 633 831 679 q 682 333 831 401 l 568 425 l 568 485 q 623 560 608 517 q 638 685 638 603 q 621 940 638 764 l 353 940 q 310 624 310 747 q 342 431 310 511 q 450 290 374 351 l 640 126 q 780 -25 731 51 q 847 -182 829 -101 q 865 -367 865 -262 l 806 -367 l 685 -310 q 650 -60 690 -174 q 518 132 610 54 l 313 304 q 160 463 203 396 q 118 622 118 531 q 171 940 118 718 l 22 940 l -101 1032 l -101 1092 l 607 1092 l 322 1333 q 198 1410 260 1386 q 61 1433 136 1433 q -86 1415 -6 1433 l -201 1506 l -201 1565 q -39 1583 -114 1583 q 144 1549 65 1583 q 333 1422 224 1514 l 721 1092 l 885 1092 l 1000 1000 l 1000 940 l 779 940 z "},"ऑ":{"ha":1889,"x_min":118,"x_max":2153,"o":"m 2153 1576 q 2084 1433 2139 1497 q 1942 1333 2029 1369 q 1751 1296 1856 1296 q 1528 1338 1638 1296 q 1349 1449 1418 1381 q 1279 1588 1279 1517 q 1290 1686 1279 1638 l 1338 1743 l 1486 1624 q 1475 1535 1475 1574 q 1523 1447 1475 1475 q 1669 1419 1571 1419 q 1860 1478 1786 1419 q 1957 1642 1935 1538 l 2011 1692 l 2153 1576 m 2021 1003 l 2021 943 l 1794 943 l 1794 -11 l 1735 -11 l 1568 126 l 1614 181 l 1614 943 l 1333 943 l 1333 -11 l 1274 -11 l 1107 126 l 1153 181 l 1153 458 q 1060 408 1108 424 q 953 393 1013 393 q 819 417 882 393 q 821 404 821 413 q 781 303 821 353 q 676 222 740 254 q 547 190 613 190 q 488 194 522 190 q 435 201 454 197 l 118 464 l 167 521 l 244 457 q 485 346 374 346 q 594 382 550 349 q 639 463 639 415 q 593 549 639 503 q 444 660 547 596 l 444 719 q 551 796 514 751 q 589 893 589 840 q 571 953 589 932 q 519 974 553 974 q 410 939 472 974 q 283 843 347 904 l 168 935 l 168 994 q 299 1078 229 1049 q 432 1108 369 1108 q 587 1063 507 1108 q 719 947 667 1017 q 772 814 772 878 q 735 704 772 757 q 636 617 699 651 q 704 567 669 594 q 858 511 790 511 q 1002 558 933 511 q 1151 710 1071 604 l 1151 940 l 949 940 l 833 1032 l 833 1092 l 1793 1092 l 1906 1094 l 2021 1003 z "},"ऒ":{"ha":1889,"x_min":118,"x_max":2021,"o":"m 1794 943 l 1794 -11 l 1735 -11 l 1568 126 l 1614 181 l 1614 943 l 1333 943 l 1333 -11 l 1274 -11 l 1107 126 l 1153 181 l 1153 458 q 1060 408 1108 424 q 953 393 1013 393 q 819 417 882 393 q 821 404 821 413 q 781 303 821 353 q 676 222 740 254 q 547 190 613 190 q 488 194 522 190 q 435 201 454 197 l 118 464 l 167 521 l 244 457 q 485 346 374 346 q 594 382 550 349 q 639 463 639 415 q 593 549 639 503 q 444 660 547 596 l 444 719 q 551 796 514 751 q 589 893 589 840 q 571 953 589 932 q 519 974 553 974 q 410 939 472 974 q 283 843 347 904 l 168 935 l 168 994 q 299 1078 229 1049 q 432 1108 369 1108 q 587 1063 507 1108 q 719 947 667 1017 q 772 814 772 878 q 735 704 772 757 q 636 617 699 651 q 704 567 669 594 q 858 511 790 511 q 1002 558 933 511 q 1151 710 1071 604 l 1151 940 l 949 940 l 833 1032 l 833 1092 l 1615 1092 l 1407 1269 q 1283 1346 1344 1322 q 1146 1369 1221 1369 q 994 1351 1079 1369 q 910 1338 942 1342 q 836 1333 879 1333 q 653 1368 732 1333 q 464 1494 574 1403 l 240 1685 l 289 1742 l 475 1583 q 600 1508 538 1532 q 738 1483 663 1483 q 810 1488 778 1483 q 889 1500 842 1492 q 1046 1518 974 1518 q 1232 1484 1151 1518 q 1418 1358 1313 1450 l 1728 1092 l 1904 1092 l 2019 1000 l 2021 943 l 1794 943 z "},"ओ":{"ha":1889,"x_min":118,"x_max":2021,"o":"m 1794 943 l 1794 -11 l 1735 -11 l 1568 126 l 1614 181 l 1614 943 l 1333 943 l 1333 -11 l 1274 -11 l 1107 126 l 1153 181 l 1153 458 q 1060 408 1108 424 q 953 393 1013 393 q 819 417 882 393 q 821 404 821 413 q 781 303 821 353 q 676 222 740 254 q 547 190 613 190 q 488 194 522 190 q 435 201 454 197 l 118 464 l 167 521 l 244 457 q 485 346 374 346 q 594 382 550 349 q 639 463 639 415 q 593 549 639 503 q 444 660 547 596 l 444 719 q 551 796 514 751 q 589 893 589 840 q 571 953 589 932 q 519 974 553 974 q 410 939 472 974 q 283 843 347 904 l 168 935 l 168 994 q 299 1078 229 1049 q 432 1108 369 1108 q 587 1063 507 1108 q 719 947 667 1017 q 772 814 772 878 q 735 704 772 757 q 636 617 699 651 q 704 567 669 594 q 858 511 790 511 q 1002 558 933 511 q 1151 710 1071 604 l 1151 940 l 949 940 l 833 1032 l 833 1092 l 1614 1092 l 1329 1333 q 1205 1410 1267 1386 q 1068 1433 1143 1433 q 921 1415 1003 1433 l 806 1506 l 806 1565 q 968 1583 893 1583 q 1151 1549 1072 1583 q 1340 1422 1231 1514 l 1728 1092 l 1904 1092 l 2019 1000 l 2021 943 l 1794 943 z "},"औ":{"ha":1889,"x_min":118,"x_max":2021,"o":"m 1794 943 l 1794 -11 l 1735 -11 l 1568 126 l 1614 181 l 1614 943 l 1333 943 l 1333 -11 l 1274 -11 l 1107 126 l 1153 181 l 1153 458 q 1060 408 1108 424 q 953 393 1013 393 q 819 417 882 393 q 821 404 821 413 q 781 303 821 353 q 676 222 740 254 q 547 190 613 190 q 488 194 522 190 q 435 201 454 197 l 118 464 l 167 521 l 244 457 q 485 346 374 346 q 594 382 550 349 q 639 463 639 415 q 593 549 639 503 q 444 660 547 596 l 444 719 q 551 796 514 751 q 589 893 589 840 q 571 953 589 932 q 519 974 553 974 q 410 939 472 974 q 283 843 347 904 l 168 935 l 168 994 q 299 1078 229 1049 q 432 1108 369 1108 q 587 1063 507 1108 q 719 947 667 1017 q 772 814 772 878 q 735 704 772 757 q 636 617 699 651 q 704 567 669 594 q 858 511 790 511 q 1002 558 933 511 q 1151 710 1071 604 l 1151 940 l 949 940 l 833 1032 l 833 1092 l 1438 1092 l 1269 1235 q 1144 1311 1207 1288 q 1007 1335 1082 1335 q 860 1317 942 1335 l 744 1408 l 744 1468 q 908 1485 825 1485 q 1093 1450 1013 1485 q 1279 1324 1174 1415 l 1551 1092 l 1740 1092 l 1269 1492 q 1144 1568 1207 1544 q 1007 1592 1082 1592 q 860 1574 942 1592 l 744 1665 l 744 1725 q 908 1742 826 1742 q 1093 1707 1013 1742 q 1279 1581 1174 1672 l 1854 1092 l 1904 1092 l 2019 1000 l 2021 943 l 1794 943 z "},"ॳ":{"ha":1428,"x_min":118,"x_max":1560,"o":"m 1333 943 l 1333 -11 l 1274 -11 l 1107 126 l 1153 181 l 1153 458 q 1060 408 1108 424 q 953 393 1013 393 q 819 417 882 393 q 821 404 821 413 q 781 303 821 353 q 676 222 740 254 q 547 190 613 190 q 488 194 522 190 q 435 201 454 197 l 118 464 l 167 521 l 244 457 q 485 346 374 346 q 594 382 550 349 q 639 463 639 415 q 593 549 639 503 q 444 660 547 596 l 444 719 q 551 796 514 751 q 589 893 589 840 q 571 953 589 932 q 519 974 553 974 q 410 939 472 974 q 283 843 347 904 l 168 935 l 168 994 q 299 1078 229 1049 q 432 1108 369 1108 q 587 1063 507 1108 q 719 947 667 1017 q 772 814 772 878 q 735 704 772 757 q 636 617 699 651 q 704 567 669 594 q 858 511 790 511 q 1002 558 933 511 q 1151 710 1071 604 l 1151 940 l 949 940 l 833 1032 l 833 1092 l 1443 1092 l 1558 1000 l 1560 943 l 1333 943 m 1332 1264 l 1332 1804 l 1211 1861 l 1151 1861 l 1151 1321 l 1272 1264 l 1332 1264 z "},"ॴ":{"ha":1889,"x_min":118,"x_max":2021,"o":"m 1794 943 l 1794 -11 l 1735 -11 l 1568 126 l 1614 181 l 1614 943 l 1333 943 l 1333 -11 l 1274 -11 l 1107 126 l 1153 181 l 1153 458 q 1060 408 1108 424 q 953 393 1013 393 q 819 417 882 393 q 821 404 821 413 q 781 303 821 353 q 676 222 740 254 q 547 190 613 190 q 488 194 522 190 q 435 201 454 197 l 118 464 l 167 521 l 244 457 q 485 346 374 346 q 594 382 550 349 q 639 463 639 415 q 593 549 639 503 q 444 660 547 596 l 444 719 q 551 796 514 751 q 589 893 589 840 q 571 953 589 932 q 519 974 553 974 q 410 939 472 974 q 283 843 347 904 l 168 935 l 168 994 q 299 1078 229 1049 q 432 1108 369 1108 q 587 1063 507 1108 q 719 947 667 1017 q 772 814 772 878 q 735 704 772 757 q 636 617 699 651 q 704 567 669 594 q 858 511 790 511 q 1002 558 933 511 q 1151 710 1071 604 l 1151 940 l 949 940 l 833 1032 l 833 1092 l 1613 1092 l 1613 1583 l 1672 1583 l 1793 1526 l 1793 1092 l 1904 1092 l 2019 1000 l 2021 943 l 1794 943 z "},"ॵ":{"ha":1889,"x_min":119,"x_max":2022,"o":"m 1796 942 l 1796 -12 l 1736 -12 l 1569 125 l 1615 179 l 1615 942 l 1335 942 l 1335 -12 l 1275 -12 l 1108 125 l 1154 179 l 1154 457 q 1062 407 1110 422 q 954 392 1014 392 q 821 415 883 392 q 822 403 822 411 q 782 302 822 351 q 678 221 742 253 q 549 189 614 189 q 490 192 524 189 q 436 200 456 196 l 119 463 l 168 519 l 246 456 q 486 344 375 344 q 596 381 551 347 q 640 461 640 414 q 594 548 640 501 q 446 658 549 594 l 446 718 q 553 794 515 750 q 590 892 590 839 q 572 951 590 931 q 521 972 554 972 q 411 938 474 972 q 285 842 349 903 l 169 933 l 169 993 q 301 1077 231 1047 q 433 1107 371 1107 q 588 1061 508 1107 q 721 946 668 1015 q 774 813 774 876 q 737 703 774 756 q 638 615 700 650 q 706 565 671 593 q 860 510 792 510 q 1003 556 935 510 q 1153 708 1072 603 l 1153 939 l 950 939 l 835 1031 l 835 1090 l 1613 1090 l 1404 1268 q 1280 1344 1342 1321 q 1143 1368 1218 1368 q 992 1350 1076 1368 q 908 1336 939 1340 q 833 1332 876 1332 q 650 1367 729 1332 q 461 1493 571 1401 l 238 1683 l 286 1740 l 472 1582 q 597 1506 535 1531 q 735 1482 660 1482 q 807 1486 775 1482 q 886 1499 839 1490 q 1043 1517 971 1517 q 1229 1483 1149 1517 q 1415 1357 1310 1449 l 1721 1094 q 1794 1192 1794 1129 q 1764 1257 1794 1231 q 1672 1315 1733 1283 q 1560 1390 1599 1354 q 1521 1485 1521 1425 q 1563 1583 1521 1536 q 1676 1656 1606 1629 l 1790 1565 l 1790 1506 q 1738 1477 1758 1499 q 1717 1426 1717 1456 q 1749 1363 1717 1389 q 1847 1308 1782 1338 q 1953 1247 1917 1275 q 1989 1172 1989 1218 q 1933 1068 1989 1117 l 2019 1000 l 2022 942 l 1796 942 z "},"ॶ":{"ha":1428,"x_min":118,"x_max":1560,"o":"m 1333 943 l 1333 -11 l 1274 -11 l 1107 126 l 1153 181 l 1153 458 q 1060 408 1108 424 q 953 393 1013 393 q 819 417 882 393 q 821 404 821 413 q 781 303 821 353 q 676 222 740 254 q 547 190 613 190 q 488 194 522 190 q 435 201 454 197 l 118 464 l 167 521 l 244 457 q 485 346 374 346 q 594 382 550 349 q 639 463 639 415 q 593 549 639 503 q 444 660 547 596 l 444 719 q 551 796 514 751 q 589 893 589 840 q 571 953 589 932 q 519 974 553 974 q 410 939 472 974 q 283 843 347 904 l 168 935 l 168 994 q 299 1078 229 1049 q 432 1108 369 1108 q 587 1063 507 1108 q 719 947 667 1017 q 772 814 772 878 q 735 704 772 757 q 636 617 699 651 q 704 567 669 594 q 858 511 790 511 q 1002 558 933 511 q 1151 710 1071 604 l 1151 940 l 949 940 l 833 1032 l 833 1092 l 1443 1092 l 1558 1000 l 1560 943 l 1333 943 m 869 -208 q 1026 -182 947 -208 q 1175 -107 1104 -156 l 1290 -197 l 1290 -257 q 1121 -337 1214 -307 q 950 -367 1028 -367 q 811 -354 874 -367 l 600 -187 l 642 -129 q 869 -208 764 -208 z "},"ॷ":{"ha":1428,"x_min":118,"x_max":1560,"o":"m 1333 943 l 1333 -11 l 1274 -11 l 1107 126 l 1153 181 l 1153 458 q 1060 408 1108 424 q 953 393 1013 393 q 819 417 882 393 q 821 404 821 413 q 781 303 821 353 q 676 222 740 254 q 547 190 613 190 q 488 194 522 190 q 435 201 454 197 l 118 464 l 167 521 l 244 457 q 485 346 374 346 q 594 382 550 349 q 639 463 639 415 q 593 549 639 503 q 444 660 547 596 l 444 719 q 551 796 514 751 q 589 893 589 840 q 571 953 589 932 q 519 974 553 974 q 410 939 472 974 q 283 843 347 904 l 168 935 l 168 994 q 299 1078 229 1049 q 432 1108 369 1108 q 587 1063 507 1108 q 719 947 667 1017 q 772 814 772 878 q 735 704 772 757 q 636 617 699 651 q 704 567 669 594 q 858 511 790 511 q 1002 558 933 511 q 1151 710 1071 604 l 1151 940 l 949 940 l 833 1032 l 833 1092 l 1443 1092 l 1558 1000 l 1560 943 l 1333 943 m 871 -206 q 1027 -179 949 -206 q 1176 -104 1106 -153 l 1292 -194 l 1292 -254 q 1122 -334 1215 -304 q 951 -364 1029 -364 q 813 -351 875 -364 l 601 -185 l 643 -126 q 871 -206 765 -206 m 871 -504 q 1027 -478 949 -504 q 1176 -403 1106 -451 l 1292 -493 l 1292 -553 q 1122 -633 1215 -603 q 951 -662 1029 -662 q 813 -650 875 -662 l 601 -483 l 643 -425 q 871 -504 765 -504 z "},"ा":{"ha":461,"x_min":-17,"x_max":592,"o":"m 365 940 l 365 -14 l 306 -14 l 139 124 l 185 178 l 185 940 l 99 940 l -17 1032 l -17 1092 l 476 1092 l 592 1000 l 592 940 l 365 940 z "},"ि":{"ha":461,"x_min":-17,"x_max":697,"o":"m 217 1490 q 463 1395 351 1490 q 697 1078 575 1300 l 640 1022 q 292 1340 457 1340 q 222 1269 222 1340 q 242 1186 222 1233 q 297 1092 263 1139 l 365 1092 l 365 -14 l 306 -14 l 139 124 l 185 178 l 185 940 l 89 940 l -17 1032 l -17 1092 l 183 1092 q 73 1223 110 1158 q 36 1343 36 1288 q 85 1450 36 1410 q 217 1490 133 1490 z "},"ी":{"ha":461,"x_min":-382,"x_max":592,"o":"m 364 940 l 364 -14 l 304 -14 l 138 124 l 183 178 l 183 940 l 97 940 l -18 1032 l -18 1092 l 181 1092 q -128 1340 19 1340 q -179 1322 -162 1340 q -196 1271 -196 1303 q -158 1150 -196 1219 q -58 1022 -121 1081 l -147 1022 q -324 1190 -265 1106 q -382 1343 -382 1274 q -333 1450 -382 1410 q -201 1490 -285 1490 q 42 1399 -68 1490 q 272 1092 153 1307 l 476 1092 l 592 1000 l 590 940 l 364 940 z "},"ॉ":{"ha":461,"x_min":-149,"x_max":725,"o":"m 365 940 l 365 -14 l 306 -14 l 139 124 l 185 178 l 185 940 l 99 940 l -17 1032 l -17 1092 l 476 1092 l 592 1000 l 592 940 l 365 940 m 58 1624 q 47 1535 47 1574 q 95 1447 47 1475 q 242 1419 143 1419 q 433 1478 358 1419 q 529 1642 507 1538 l 583 1692 l 725 1576 q 656 1433 711 1497 q 515 1333 601 1369 q 324 1296 428 1296 q 100 1338 210 1296 q -79 1449 -10 1381 q -149 1588 -149 1517 q -137 1686 -149 1638 l -90 1743 l 58 1624 z "},"ॊ":{"ha":461,"x_min":-1187,"x_max":592,"o":"m 365 940 l 365 -14 l 306 -14 l 139 124 l 185 178 l 185 940 l 99 940 l -17 1032 l -17 1092 l 188 1092 l -21 1269 q -145 1346 -83 1322 q -282 1369 -207 1369 q -435 1351 -350 1369 q -519 1338 -489 1342 q -592 1333 -549 1333 q -775 1368 -696 1333 q -964 1494 -854 1403 l -1187 1685 l -1140 1742 l -953 1583 q -828 1508 -890 1532 q -690 1483 -765 1483 q -618 1488 -650 1483 q -539 1500 -586 1492 q -382 1518 -454 1518 q -197 1484 -276 1518 q -10 1358 -117 1450 l 300 1092 l 476 1092 l 592 1000 l 592 940 l 365 940 z "},"ो":{"ha":461,"x_min":-622,"x_max":592,"o":"m 365 940 l 365 -14 l 306 -14 l 139 124 l 185 178 l 185 940 l 99 940 l -17 1032 l -17 1092 l 186 1092 l -99 1333 q -224 1410 -161 1386 q -361 1433 -286 1433 q -507 1415 -426 1433 l -622 1506 l -622 1565 q -460 1583 -535 1583 q -276 1549 -356 1583 q -87 1422 -197 1514 l 300 1092 l 476 1092 l 592 1000 l 592 940 l 365 940 z "},"ौ":{"ha":461,"x_min":-683,"x_max":592,"o":"m 365 940 l 365 -14 l 306 -14 l 139 124 l 185 178 l 185 940 l 99 940 l -17 1032 l -17 1092 l 8 1092 l -160 1235 q -285 1311 -222 1288 q -422 1335 -347 1335 q -568 1317 -487 1335 l -683 1408 l -683 1468 q -521 1485 -601 1485 q -335 1450 -415 1485 q -149 1324 -256 1415 l 124 1092 l 311 1092 l -160 1492 q -285 1568 -222 1544 q -422 1592 -347 1592 q -568 1574 -487 1592 l -683 1665 l -683 1725 q -521 1742 -601 1742 q -335 1707 -415 1742 q -149 1581 -256 1672 l 426 1092 l 476 1092 l 592 1000 l 592 940 l 365 940 z "},"ॎ":{"ha":461,"x_min":139,"x_max":592,"o":"m 365 940 l 365 -14 l 306 -14 l 139 124 l 185 178 l 185 1092 l 476 1092 l 592 1000 l 592 940 l 365 940 z "},"ऻ":{"ha":461,"x_min":-17,"x_max":592,"o":"m 365 940 l 365 -14 l 306 -14 l 139 124 l 185 178 l 185 940 l 99 940 l -17 1032 l -17 1092 l 185 1092 l 185 1583 l 244 1583 l 365 1526 l 365 1092 l 476 1092 l 592 1000 l 592 940 l 365 940 z "},"ॏ":{"ha":461,"x_min":-1190,"x_max":593,"o":"m 367 939 l 367 -15 l 307 -15 l 140 122 l 186 176 l 186 939 l 100 939 l -15 1031 l -15 1090 l 185 1090 l -24 1268 q -148 1344 -86 1321 q -285 1368 -210 1368 q -437 1350 -353 1368 q -522 1336 -492 1340 q -594 1332 -551 1332 q -778 1367 -699 1332 q -967 1493 -857 1401 l -1190 1683 l -1143 1740 l -956 1582 q -831 1506 -893 1531 q -693 1482 -768 1482 q -621 1486 -653 1482 q -542 1499 -589 1490 q -385 1517 -457 1517 q -199 1483 -279 1517 q -12 1357 -119 1449 l 293 1094 q 367 1192 367 1129 q 336 1257 367 1231 q 244 1315 306 1283 q 132 1390 171 1354 q 93 1485 93 1425 q 135 1583 93 1536 q 249 1656 178 1629 l 363 1565 l 363 1506 q 310 1477 331 1499 q 289 1426 289 1456 q 322 1363 289 1389 q 419 1308 354 1338 q 525 1247 489 1275 q 561 1172 561 1218 q 506 1068 561 1117 l 592 1000 l 593 939 l 367 939 z "},"क":{"ha":1447,"x_min":-101,"x_max":1549,"o":"m 813 732 q 935 761 867 761 q 1110 716 1019 761 q 1261 596 1201 671 q 1321 435 1321 521 q 1285 324 1321 375 q 1188 242 1250 274 q 1049 210 1126 211 l 935 301 l 935 361 q 986 357 963 357 q 1091 399 1054 357 q 1128 507 1128 442 q 1022 644 1128 644 q 925 610 963 644 q 843 508 888 576 q 817 471 833 496 l 813 464 l 813 -14 l 753 -14 l 585 124 l 632 178 l 632 242 q 511 213 578 213 q 335 258 425 213 q 185 378 244 303 q 125 539 125 453 q 160 651 125 600 q 256 732 194 701 q 396 764 318 763 l 510 672 l 510 613 q 458 617 482 617 q 353 574 390 617 q 317 467 317 532 q 343 365 317 400 q 422 329 369 329 q 521 365 482 329 q 606 469 560 400 l 629 504 l 633 508 l 633 940 l 14 940 l -101 1032 l -101 1092 l 1433 1092 l 1549 1000 l 1549 940 l 813 940 l 813 732 z "},"ख":{"ha":1550,"x_min":-154,"x_max":1681,"o":"m 1681 938 l 1454 938 l 1454 -17 l 1394 -17 l 1228 121 l 1274 175 l 1274 247 q 1138 210 1217 210 q 961 255 1053 210 q 809 375 869 300 q 749 536 749 450 q 783 648 749 597 q 881 729 818 699 q 1021 761 943 760 l 1135 669 l 1135 610 q 1082 614 1108 614 q 978 572 1015 614 q 940 464 940 529 q 968 363 940 399 q 1050 326 996 326 q 1131 350 1096 326 q 1196 410 1167 374 q 1274 521 1225 447 l 1274 938 l 474 938 q 550 764 525 854 q 575 586 575 674 q 551 456 575 515 q 488 356 526 396 q 406 300 449 315 l 747 14 l 699 -43 l 235 344 q 135 442 176 386 q 93 538 93 497 q 124 597 93 576 q 211 617 156 617 q 368 592 279 617 q 376 682 376 633 q 360 818 376 749 q 319 940 344 888 l -31 940 l -154 1032 l -154 1092 l 1565 1092 l 1681 997 l 1681 938 z "},"ग":{"ha":1089,"x_min":-162,"x_max":1221,"o":"m 994 940 l 994 -14 l 935 -14 l 768 124 l 814 178 l 814 940 l 533 940 l 533 506 q 503 410 533 460 q 431 328 474 361 q 353 294 389 294 q 243 338 306 294 q 136 441 181 381 q 92 547 92 501 q 128 598 92 578 q 231 618 164 618 q 353 601 282 618 l 353 940 l -46 940 l -162 1032 l -162 1092 l 1106 1092 l 1221 1000 l 1221 940 l 994 940 z "},"घ":{"ha":1206,"x_min":-117,"x_max":1336,"o":"m 1336 940 l 1110 940 l 1110 -14 l 1050 -14 l 883 124 l 929 178 l 929 214 q 668 118 814 118 q 453 161 558 118 q 280 276 347 204 q 213 426 213 347 q 236 512 213 471 q 304 585 260 553 q 160 677 218 618 q 103 807 103 736 q 174 940 103 890 l -1 940 l -117 1032 l -117 1092 l 1221 1092 l 1336 1000 l 1336 940 m 474 939 l 515 906 l 515 846 q 442 856 478 856 q 337 823 375 854 q 299 751 299 792 q 400 632 299 683 q 549 654 471 654 l 664 564 l 664 504 q 613 507 646 507 q 459 463 511 506 q 407 353 407 419 q 447 267 407 297 q 568 236 486 236 q 699 264 640 236 q 802 333 757 292 q 929 463 847 375 l 929 939 l 474 939 z "},"ङ":{"ha":1178,"x_min":-164,"x_max":1417,"o":"m 1417 940 l 860 940 l 860 678 l 546 678 q 438 643 482 678 q 394 560 394 608 q 408 515 394 535 q 458 472 422 494 q 559 522 519 507 q 631 538 599 538 q 793 489 708 538 q 935 367 878 440 q 992 226 992 293 q 924 118 992 175 q 753 24 856 61 q 554 -14 650 -14 q 419 -3 489 -14 l 8 346 l 56 401 l 253 236 q 377 165 311 186 q 524 143 443 143 q 660 167 593 143 q 768 228 726 190 q 810 304 810 265 q 784 357 810 332 q 729 382 758 382 q 575 324 669 382 q 409 388 494 335 q 267 510 324 440 q 211 639 211 581 q 244 733 211 689 q 334 803 278 776 q 454 829 390 829 l 678 829 l 678 940 l -49 940 l -164 1032 l -164 1092 l 1299 1092 l 1417 1000 l 1417 940 m 1185 710 l 1185 518 l 1125 518 l 1004 574 l 1004 767 l 1064 767 l 1185 710 z "},"च":{"ha":1192,"x_min":-126,"x_max":1321,"o":"m 1321 940 l 1094 940 l 1094 -14 l 1035 -14 l 868 124 l 914 178 l 914 249 q 779 211 857 211 q 603 256 694 211 q 451 376 511 301 q 390 538 390 451 q 406 613 390 575 l 167 613 l 51 704 l 51 764 l 663 764 l 776 672 l 776 613 q 724 617 750 617 q 619 574 657 617 q 582 467 582 532 q 610 365 582 401 q 692 329 638 329 q 773 352 738 329 q 838 412 808 375 q 915 521 867 449 l 915 940 l -10 940 l -126 1032 l -126 1092 l 1207 1092 l 1321 1000 l 1321 940 z "},"छ":{"ha":1406,"x_min":-117,"x_max":1568,"o":"m 1151 764 q 1264 674 1213 732 q 1346 539 1315 615 q 1376 381 1376 463 q 1294 183 1376 274 q 1072 40 1213 93 q 763 -12 932 -12 q 519 32 638 -12 q 325 152 400 76 q 250 315 250 228 q 301 460 250 396 q 170 551 222 494 q 118 674 118 608 q 153 770 118 726 q 248 839 188 814 q 383 864 308 864 q 415 863 400 864 l 531 771 l 531 711 q 456 721 493 721 q 352 690 390 721 q 314 615 314 658 q 374 524 314 557 q 558 574 456 574 l 586 572 l 703 481 l 703 421 q 647 424 683 424 q 497 372 549 424 q 446 244 446 321 q 497 140 446 176 q 651 104 547 104 q 907 147 793 104 q 1092 260 1021 189 q 969 317 1028 275 q 873 418 910 358 q 836 544 836 478 q 873 690 836 626 q 971 778 910 753 l 971 940 l -1 940 l -117 1032 l -117 1092 l 1451 1092 l 1568 1000 l 1568 940 l 1151 942 l 1151 764 m 1179 431 q 1181 456 1181 439 q 1160 615 1181 557 q 1100 674 1140 674 q 1050 619 1068 674 q 1032 478 1032 564 q 1043 399 1032 426 q 1076 372 1054 372 q 1179 429 1135 372 l 1179 431 z "},"ज":{"ha":1164,"x_min":-101,"x_max":1294,"o":"m 1068 940 l 1068 -14 l 1008 -14 l 842 124 l 888 178 l 888 467 l 485 467 l 722 264 q 733 186 733 231 q 698 86 733 132 q 601 13 663 40 q 463 -14 539 -14 q 322 -1 381 -14 l 50 213 l 92 271 q 281 147 214 179 q 406 115 349 115 q 501 149 465 115 q 538 238 538 182 q 512 320 538 274 q 431 415 486 367 l 261 561 l 308 618 l 888 618 l 888 940 l 14 940 l -101 1032 l -101 1092 l 1179 1092 l 1294 1000 l 1294 940 l 1068 940 z "},"झ":{"ha":1453,"x_min":-75,"x_max":1585,"o":"m 1358 942 l 1358 -12 l 1299 -12 l 1132 125 l 1178 179 l 1178 481 q 1062 409 1114 426 q 926 392 1010 392 l 922 392 q 978 310 958 351 q 999 229 999 268 q 932 121 999 178 q 765 26 865 64 q 571 -11 664 -11 q 494 -4 536 -11 l 638 -124 q 756 -193 693 -171 q 896 -215 819 -215 q 1036 -197 958 -215 l 1149 -287 l 1149 -347 q 993 -364 1069 -364 q 810 -330 889 -364 q 621 -206 731 -296 l 268 86 q 142 203 189 138 q 94 335 94 269 q 114 406 94 382 q 164 429 133 429 q 368 183 268 429 q 539 143 443 143 q 670 167 606 143 q 775 228 735 190 q 815 304 815 265 q 789 357 815 332 q 735 382 763 382 q 581 324 672 382 q 410 387 494 335 q 271 509 325 439 q 217 639 217 579 q 250 733 217 689 q 340 803 283 776 q 460 829 396 829 l 683 829 l 683 940 l 40 940 l -75 1032 l -75 1092 l 1468 1092 l 1583 1000 l 1585 942 l 1358 942 m 843 511 q 942 527 900 511 q 1037 585 985 543 q 1179 718 1089 628 l 1179 942 l 867 942 l 867 679 l 551 679 q 444 644 489 679 q 400 561 400 610 q 415 516 400 536 q 465 474 429 496 q 566 524 526 508 q 638 539 606 539 q 732 521 681 539 q 842 511 769 511 l 843 511 z "},"ञ":{"ha":1129,"x_min":-101,"x_max":1260,"o":"m 1033 942 l 1033 -12 l 974 -12 l 807 125 l 853 179 l 853 435 q 785 406 819 414 q 704 394 751 397 q 652 288 693 336 q 547 213 611 240 q 406 185 483 185 q 303 197 343 185 l 92 364 l 133 422 q 338 325 267 325 q 469 380 424 326 q 514 528 514 433 q 488 624 514 586 q 417 663 463 661 q 322 635 368 663 q 242 563 275 608 l 128 654 l 128 714 q 230 765 171 742 q 335 788 289 788 q 477 754 404 788 q 607 664 550 721 q 690 536 664 607 q 761 586 724 553 q 853 681 799 619 l 853 940 l 14 940 l -101 1032 l -101 1092 l 1144 1092 l 1260 1000 l 1260 942 l 1033 942 z "},"ट":{"ha":990,"x_min":-101,"x_max":1129,"o":"m 547 586 q 390 515 450 586 q 331 328 331 444 q 385 168 331 228 q 526 108 439 108 q 683 154 608 108 q 843 303 758 200 l 957 211 l 957 151 q 794 29 881 72 q 615 -14 707 -14 q 391 47 503 -14 q 208 206 279 107 q 136 411 136 304 q 180 569 136 494 q 297 690 224 644 q 456 736 371 736 l 519 736 l 519 940 l 13 940 l -101 1032 l -101 1092 l 1015 1092 l 1129 1000 l 1129 940 l 700 940 l 700 586 l 547 586 z "},"ठ":{"ha":1143,"x_min":-101,"x_max":1244,"o":"m 700 728 q 856 633 785 693 q 967 499 926 574 q 1008 349 1008 425 q 958 163 1008 246 q 819 33 907 81 q 622 -14 731 -14 q 391 47 504 -14 q 207 206 278 108 q 136 404 136 303 q 180 569 136 493 q 297 691 224 646 q 456 736 371 736 l 519 736 l 519 940 l 13 940 l -101 1032 l -101 1092 l 1131 1092 l 1244 1000 l 1244 940 l 700 940 l 700 728 m 813 419 q 700 625 813 582 l 700 586 l 547 586 q 390 516 450 586 q 331 326 331 446 q 386 165 331 221 q 535 108 442 108 q 738 192 663 108 q 813 419 813 276 z "},"ड":{"ha":1010,"x_min":-164,"x_max":1149,"o":"m 546 678 q 438 643 482 678 q 394 560 394 608 q 408 515 394 535 q 458 472 422 494 q 559 522 519 507 q 631 538 599 538 q 793 489 708 538 q 935 367 878 440 q 992 226 992 293 q 924 118 992 175 q 753 24 856 61 q 554 -14 650 -14 q 419 -3 489 -14 l 8 346 l 56 401 l 253 236 q 377 165 311 186 q 524 143 443 143 q 660 167 593 143 q 768 228 726 190 q 810 304 810 265 q 784 357 810 332 q 729 382 758 382 q 575 324 669 382 q 409 388 494 335 q 267 510 324 440 q 211 639 211 581 q 244 733 211 689 q 334 803 278 776 q 454 829 390 829 l 678 829 l 678 940 l -49 940 l -164 1032 l -164 1092 l 1032 1092 l 1149 1000 l 1149 940 l 858 940 l 858 678 l 546 678 z "},"ढ":{"ha":986,"x_min":-101,"x_max":1124,"o":"m 531 586 q 372 526 431 586 q 314 363 314 465 q 390 188 314 256 q 596 111 467 119 q 511 201 543 149 q 479 308 479 254 q 522 402 479 367 q 633 438 564 438 q 790 396 713 438 q 915 288 867 354 q 964 153 964 221 q 895 31 964 75 q 706 -14 826 -14 q 430 50 561 -14 q 219 219 299 114 q 140 440 140 324 q 181 588 140 519 q 288 696 221 656 q 435 736 356 736 l 546 736 l 546 940 l 13 940 l -101 1032 l -101 1092 l 1010 1092 l 1124 1000 l 1124 940 l 726 940 l 726 586 l 531 586 m 735 315 q 693 286 711 315 q 675 217 675 257 q 724 156 675 156 q 771 171 747 156 q 783 221 783 192 q 769 288 783 261 q 735 315 756 315 z "},"ण":{"ha":1258,"x_min":-101,"x_max":1390,"o":"m 1164 940 l 1164 -14 l 1104 -14 l 938 124 l 983 178 l 983 940 l 757 940 l 757 606 q 717 476 756 539 q 617 375 679 414 q 482 336 554 336 q 317 377 401 336 q 176 487 232 418 q 121 635 121 556 l 121 940 l 14 940 l -101 1032 l -101 1092 l 1275 1092 l 1390 1000 l 1390 940 l 1164 940 m 301 940 l 301 586 q 397 454 301 454 q 480 474 439 454 q 548 535 521 494 q 576 636 575 576 l 576 940 l 301 940 z "},"त":{"ha":935,"x_min":-101,"x_max":1065,"o":"m 839 940 l 839 -14 l 779 -14 l 613 124 l 658 178 l 658 467 l 433 467 q 331 433 363 467 q 299 332 299 399 q 319 238 299 279 q 399 146 339 197 l 533 31 l 485 -26 l 114 285 q 103 374 103 325 q 170 557 103 496 q 368 618 238 618 l 658 618 l 658 940 l 19 940 l -101 1032 l -101 1092 l 950 1092 l 1065 1000 l 1065 940 l 839 940 z "},"थ":{"ha":1110,"x_min":71,"x_max":1240,"o":"m 1013 939 l 1013 -15 l 953 -15 l 786 122 l 832 176 l 832 301 q 726 246 785 265 q 588 226 667 226 q 370 268 483 226 q 178 372 257 310 q 90 494 99 435 l 138 550 q 167 547 151 547 q 291 572 239 547 q 374 640 343 596 q 231 690 301 650 q 116 793 161 731 q 71 925 71 856 q 103 1022 71 976 q 188 1093 135 1067 q 299 1119 240 1119 q 440 1063 368 1119 q 560 912 513 1006 q 608 711 608 818 q 569 577 608 639 q 458 475 529 515 q 293 422 386 435 q 504 344 343 344 q 624 369 571 344 q 719 433 676 393 q 833 553 761 474 l 833 940 l 747 940 l 632 1032 l 632 1092 l 1125 1092 l 1240 1000 l 1239 939 l 1013 939 m 267 857 q 281 781 267 807 q 324 754 296 754 q 413 803 374 754 q 396 947 410 896 q 357 999 382 999 q 290 958 314 999 q 267 857 267 918 z "},"द":{"ha":960,"x_min":-101,"x_max":1097,"o":"m 531 586 q 374 527 435 586 q 314 374 314 468 q 360 204 314 264 q 486 144 407 144 q 553 154 519 144 q 539 254 539 213 q 622 354 539 354 q 746 315 681 354 q 856 217 811 276 q 900 103 900 158 q 867 31 900 63 q 779 -10 835 0 l 1014 -204 l 965 -261 l 664 -11 q 403 69 524 1 q 211 238 282 136 q 140 456 140 340 q 182 593 140 528 q 292 697 224 658 q 435 736 360 736 l 539 736 l 539 940 l 13 940 l -101 1032 l -101 1092 l 983 1092 l 1097 1000 l 1097 940 l 719 940 l 719 586 l 531 586 z "},"ध":{"ha":1222,"x_min":144,"x_max":1353,"o":"m 1125 939 l 1125 -15 l 1065 -15 l 899 122 l 944 176 l 944 343 q 835 276 885 294 q 725 257 785 257 q 528 300 622 257 q 376 413 433 343 q 318 556 318 482 q 382 694 318 635 q 208 839 271 756 q 144 1015 144 922 q 206 1167 144 1108 q 375 1226 267 1226 q 538 1193 457 1226 q 672 1106 619 1160 q 724 1000 724 1053 q 669 908 724 944 q 540 871 615 871 q 508 874 531 871 l 415 946 l 415 1006 q 458 996 435 996 q 509 1014 490 996 q 528 1058 528 1032 q 474 1101 528 1101 q 377 1058 414 1101 q 340 942 340 1014 q 370 834 340 881 q 467 749 400 788 q 610 775 532 775 l 721 696 l 721 636 q 671 640 692 640 q 555 598 596 640 q 514 482 514 556 q 544 403 514 428 q 628 378 575 378 q 724 393 683 378 q 813 449 764 408 q 946 578 861 490 l 946 940 l 860 940 l 744 1032 l 744 1092 l 1238 1092 l 1353 1000 l 1351 939 l 1125 939 z "},"न":{"ha":951,"x_min":-162,"x_max":1082,"o":"m 854 940 l 854 -14 l 794 -14 l 628 124 l 674 178 l 674 467 l 476 467 q 412 349 458 403 q 325 294 365 294 q 227 342 283 294 q 131 452 171 389 q 90 558 90 515 q 142 605 90 592 q 329 618 194 618 l 675 618 l 675 940 l -39 940 l -162 1032 l -162 1092 l 967 1092 l 1082 1000 l 1081 940 l 854 940 z "},"ऩ":{"ha":951,"x_min":-162,"x_max":1082,"o":"m 854 940 l 854 -14 l 794 -14 l 628 124 l 674 178 l 674 467 l 476 467 q 412 349 458 403 q 325 294 365 294 q 227 342 283 294 q 131 452 171 389 q 90 558 90 515 q 142 605 90 592 q 329 618 194 618 l 675 618 l 675 940 l -39 940 l -162 1032 l -162 1092 l 967 1092 l 1082 1000 l 1081 940 l 854 940 m 433 -146 l 374 -146 l 253 -89 l 253 104 l 313 104 l 433 47 l 433 -146 z "},"प":{"ha":914,"x_min":-101,"x_max":1044,"o":"m 1044 940 l 818 940 l 818 -14 l 758 -14 l 592 124 l 638 178 l 638 372 q 506 336 581 336 q 331 381 421 336 q 181 501 240 426 q 121 663 121 576 l 121 940 l 14 940 l -101 1032 l -101 1092 l 929 1092 l 1044 1000 l 1044 940 m 300 940 l 300 614 q 419 454 300 454 q 499 477 464 454 q 561 535 533 500 q 638 643 589 569 l 636 940 l 300 940 z "},"फ":{"ha":1454,"x_min":-101,"x_max":1556,"o":"m 818 732 q 940 761 869 761 q 1117 716 1026 761 q 1267 596 1207 671 q 1326 435 1326 521 q 1292 324 1326 375 q 1195 242 1257 274 q 1056 210 1133 211 l 940 301 l 940 361 q 993 357 969 357 q 1096 398 1060 357 q 1132 503 1132 439 q 1106 606 1132 569 q 1026 642 1079 642 q 949 619 982 642 q 891 565 915 597 q 818 460 867 533 l 818 -14 l 758 -14 l 592 124 l 638 178 l 638 372 q 506 336 581 336 q 331 381 421 336 q 181 501 240 426 q 121 663 121 576 l 121 940 l 14 940 l -101 1032 l -101 1092 l 1442 1092 l 1556 1000 l 1556 940 l 818 940 l 818 732 m 419 454 q 499 477 464 454 q 561 535 533 500 q 638 643 589 569 l 638 940 l 301 940 l 301 614 q 421 454 301 454 l 419 454 z "},"ब":{"ha":918,"x_min":-101,"x_max":1050,"o":"m 1050 940 l 824 940 l 824 -14 l 764 -14 l 597 124 l 643 178 l 643 250 q 507 213 586 213 q 331 258 422 213 q 178 378 239 303 q 118 539 118 453 q 153 651 118 600 q 250 732 188 701 q 390 764 313 763 l 504 672 l 504 613 q 451 617 478 617 q 374 597 406 617 l 576 428 q 642 524 597 456 l 642 940 l 14 940 l -101 1032 l -101 1092 l 933 1092 l 1050 1000 l 1050 940 m 421 329 q 526 372 479 329 l 325 540 q 310 467 310 506 q 338 365 310 401 q 419 329 365 329 l 421 329 z "},"भ":{"ha":1074,"x_min":56,"x_max":1204,"o":"m 978 942 l 978 -12 l 918 -12 l 751 125 l 797 179 l 797 468 l 524 468 q 458 350 504 404 q 371 296 411 296 q 265 341 325 296 q 163 449 206 386 q 119 560 119 513 q 172 605 119 592 q 360 618 225 618 l 360 719 q 218 760 289 725 q 101 850 147 794 q 56 968 56 906 q 103 1076 56 1032 q 229 1119 150 1119 q 381 1074 308 1119 q 497 949 453 1028 q 540 779 540 871 l 540 618 l 797 618 l 797 940 l 711 940 l 596 1032 l 596 1092 l 1089 1092 l 1204 1000 l 1204 942 l 978 942 m 250 900 q 262 853 250 869 q 296 838 274 838 q 360 863 331 838 q 318 1001 357 1001 q 268 973 286 1001 q 250 900 250 944 z "},"म":{"ha":1111,"x_min":-162,"x_max":1242,"o":"m 1015 942 l 1015 -12 l 956 -12 l 789 125 l 835 179 l 835 468 l 494 468 q 428 350 475 404 q 342 296 382 296 q 236 341 296 296 q 133 449 176 386 q 90 560 90 513 q 143 605 90 592 q 331 618 196 618 l 331 940 l -42 940 l -162 1032 l -162 1092 l 1126 1092 l 1242 1000 l 1242 942 l 1015 942 m 835 942 l 511 942 l 511 619 l 835 619 l 835 942 z "},"य":{"ha":1026,"x_min":-111,"x_max":1156,"o":"m 1156 942 l 929 942 l 929 -12 l 869 -12 l 703 125 l 749 179 l 749 379 q 642 322 700 342 q 506 301 583 301 q 330 342 419 301 q 174 442 240 382 q 89 561 108 503 l 136 618 q 253 685 206 629 q 301 825 301 740 q 271 940 301 904 l 4 940 l -111 1032 l -111 1092 l 1042 1092 l 1156 1001 l 1156 942 m 413 942 q 496 732 496 842 q 438 587 496 650 q 285 503 379 524 q 419 421 315 421 q 538 446 485 421 q 635 510 592 471 q 749 624 678 549 l 749 942 l 413 942 z "},"र":{"ha":642,"x_min":-154,"x_max":781,"o":"m 474 938 q 550 764 525 854 q 575 586 575 674 q 551 456 575 515 q 488 356 526 396 q 406 300 449 315 l 747 14 l 699 -43 l 235 344 q 135 442 176 386 q 93 538 93 497 q 124 597 93 576 q 211 617 156 617 q 368 592 279 617 q 376 682 376 633 q 360 818 376 749 q 319 940 344 888 l -31 940 l -154 1032 l -154 1092 l 657 1092 l 781 1000 l 781 938 l 474 938 z "},"ऱ":{"ha":642,"x_min":-154,"x_max":781,"o":"m 474 938 q 550 764 525 854 q 575 586 575 674 q 551 456 575 515 q 488 356 526 396 q 406 300 449 315 l 747 14 l 699 -43 l 235 344 q 135 442 176 386 q 93 538 93 497 q 124 597 93 576 q 211 617 156 617 q 368 592 279 617 q 376 682 376 633 q 360 818 376 749 q 319 940 344 888 l -31 940 l -154 1032 l -154 1092 l 657 1092 l 781 1000 l 781 938 l 474 938 m 360 -146 l 300 -146 l 179 -89 l 179 104 l 239 104 l 360 47 l 360 -146 z "},"ल":{"ha":1225,"x_min":-101,"x_max":1356,"o":"m 1129 940 l 1129 -14 l 1069 -14 l 903 124 l 949 178 l 949 486 q 663 335 817 393 l 549 425 l 549 485 l 590 501 q 554 610 581 576 q 478 643 528 643 q 369 594 410 643 q 328 482 328 546 q 349 388 328 428 q 433 296 371 347 l 554 196 l 508 138 l 143 438 q 132 532 132 478 q 165 647 132 594 q 258 731 199 700 q 393 763 318 763 q 583 710 486 763 q 733 574 679 657 q 949 731 849 642 l 949 940 l 14 940 l -101 1032 l -101 1092 l 1240 1092 l 1356 1000 l 1356 940 l 1129 940 z "},"ळ":{"ha":1447,"x_min":-101,"x_max":1549,"o":"m 1069 733 q 1248 611 1175 693 q 1321 433 1321 529 q 1278 313 1321 364 q 1168 236 1235 263 q 1031 210 1101 210 q 985 213 1015 210 l 864 306 l 864 375 q 989 353 922 353 q 1092 395 1056 353 q 1128 506 1128 438 q 1101 608 1128 572 q 1022 644 1075 644 q 951 626 982 644 q 895 577 919 607 q 836 493 871 547 l 801 442 q 763 383 788 422 q 693 289 722 324 q 619 231 664 254 q 511 208 575 208 q 335 253 425 208 q 185 374 244 299 q 125 538 125 450 q 168 658 125 608 q 278 734 211 708 q 417 760 346 760 q 461 757 433 760 l 581 664 l 581 596 q 456 617 521 617 q 353 574 390 617 q 317 464 317 531 q 343 361 317 397 q 422 325 369 325 q 500 346 467 325 q 558 397 533 367 q 615 478 582 426 l 632 504 l 668 561 q 735 661 707 625 q 800 724 763 697 q 889 760 838 751 l 889 940 l 14 940 l -101 1032 l -101 1092 l 1433 1092 l 1549 1000 l 1549 940 l 1069 939 l 1069 733 z "},"ऴ":{"ha":1447,"x_min":-101,"x_max":1549,"o":"m 1069 733 q 1248 611 1175 693 q 1321 433 1321 529 q 1278 313 1321 364 q 1168 236 1235 263 q 1031 210 1101 210 q 985 213 1015 210 l 864 306 l 864 375 q 989 353 922 353 q 1092 395 1056 353 q 1128 506 1128 438 q 1101 608 1128 572 q 1022 644 1075 644 q 951 626 982 644 q 895 577 919 607 q 836 493 871 547 l 801 442 q 763 383 788 422 q 693 289 722 324 q 619 231 664 254 q 511 208 575 208 q 335 253 425 208 q 185 374 244 299 q 125 538 125 450 q 168 658 125 608 q 278 734 211 708 q 417 760 346 760 q 461 757 433 760 l 581 664 l 581 596 q 456 617 521 617 q 353 574 390 617 q 317 464 317 531 q 343 361 317 397 q 422 325 369 325 q 500 346 467 325 q 558 397 533 367 q 615 478 582 426 l 632 504 l 668 561 q 735 661 707 625 q 800 724 763 697 q 889 760 838 751 l 889 940 l 14 940 l -101 1032 l -101 1092 l 1433 1092 l 1549 1000 l 1549 940 l 1069 939 l 1069 733 m 826 -139 l 767 -139 l 646 -82 l 646 111 l 706 111 l 826 54 l 826 -139 z "},"व":{"ha":918,"x_min":-101,"x_max":1049,"o":"m 1049 940 l 822 940 l 822 -14 l 763 -14 l 596 124 l 642 178 l 642 250 q 506 213 585 213 q 329 258 421 213 q 177 378 238 303 q 117 539 117 453 q 151 651 117 600 q 249 732 186 701 q 389 764 311 763 l 503 672 l 503 613 q 450 617 475 617 q 346 574 383 617 q 308 467 308 532 q 336 365 308 401 q 418 329 364 329 q 499 353 464 329 q 564 413 535 376 q 642 524 593 450 l 642 940 l 14 940 l -101 1032 l -101 1092 l 933 1092 l 1049 1000 l 1049 940 z "},"श":{"ha":1179,"x_min":153,"x_max":1308,"o":"m 643 681 q 628 544 643 610 q 589 426 614 479 l 786 275 l 738 219 l 550 363 q 433 294 497 294 q 317 337 382 294 q 208 439 253 379 q 163 543 163 499 q 194 599 163 578 q 285 619 225 619 q 438 594 353 619 q 464 718 463 646 q 320 757 393 722 q 200 848 247 792 q 153 968 153 904 q 200 1076 153 1033 q 328 1119 247 1119 q 482 1068 410 1119 q 599 917 554 1017 q 644 681 644 818 l 643 681 m 1082 940 l 1082 -14 l 1022 -14 l 856 124 l 901 178 l 901 940 l 815 940 l 700 1032 l 700 1092 l 1193 1092 l 1308 1000 l 1308 940 l 1082 940 m 349 899 q 393 836 349 836 q 460 863 431 836 q 443 969 454 939 q 414 1000 432 1000 q 365 972 383 1000 q 347 899 347 943 l 349 899 z "},"ष":{"ha":914,"x_min":-101,"x_max":1044,"o":"m 1044 940 l 818 940 l 818 -14 l 758 -14 l 592 124 l 638 178 l 638 372 q 506 336 581 336 q 331 381 421 336 q 181 501 240 426 q 121 663 121 576 l 121 940 l 14 940 l -101 1032 l -101 1092 l 929 1092 l 1044 1000 l 1044 940 m 301 940 l 301 910 l 638 643 l 638 940 l 301 940 m 422 454 q 516 488 476 454 q 603 592 556 521 l 301 832 l 301 614 q 421 454 301 454 l 422 454 z "},"स":{"ha":1171,"x_min":-154,"x_max":1301,"o":"m 1301 938 l 1075 938 l 1075 -17 l 1015 -17 l 849 121 l 894 175 l 894 467 q 747 429 815 429 q 668 442 699 429 l 569 521 q 508 379 554 439 q 406 300 461 319 l 747 14 l 699 -43 l 235 344 q 135 442 176 386 q 93 538 93 497 q 124 597 93 576 q 211 617 156 617 q 368 592 279 617 q 376 682 376 633 q 360 818 376 749 q 319 940 344 888 l -31 940 l -154 1032 l -154 1092 l 1186 1092 l 1301 997 l 1301 938 m 474 936 q 574 625 563 790 q 710 599 653 599 q 794 618 750 599 q 894 681 839 638 l 894 936 l 474 936 z "},"ह":{"ha":821,"x_min":-17,"x_max":951,"o":"m 474 638 q 381 612 413 638 q 349 539 349 586 q 376 447 349 489 l 385 447 q 584 403 483 447 q 750 291 685 360 q 815 150 815 222 q 776 44 815 94 q 671 -36 736 -7 l 556 56 l 556 115 q 619 224 619 158 q 492 331 619 331 q 356 285 406 331 q 307 157 307 239 q 340 45 307 96 q 444 -64 372 -6 l 736 -311 l 689 -367 l 121 103 q 111 186 111 142 q 153 338 111 274 q 272 429 194 401 l 165 515 q 154 589 154 546 q 186 692 154 646 q 274 763 218 738 q 400 789 331 789 l 482 789 l 482 940 l 97 940 l -17 1032 l -17 1092 l 838 1092 l 951 1000 l 951 940 l 663 940 l 663 638 l 474 638 z "},"क़":{"ha":1447,"x_min":-101,"x_max":1549,"o":"m 813 732 q 935 761 867 761 q 1110 716 1019 761 q 1261 596 1201 671 q 1321 435 1321 521 q 1285 324 1321 375 q 1188 242 1250 274 q 1049 210 1126 211 l 935 301 l 935 361 q 986 357 963 357 q 1091 399 1054 357 q 1128 507 1128 442 q 1022 644 1128 644 q 925 610 963 644 q 843 508 888 576 q 817 471 833 496 l 813 464 l 813 -14 l 753 -14 l 585 124 l 632 178 l 632 242 q 511 213 578 213 q 335 258 425 213 q 185 378 244 303 q 125 539 125 453 q 160 651 125 600 q 256 732 194 701 q 396 764 318 763 l 510 672 l 510 613 q 458 617 482 617 q 353 574 390 617 q 317 467 317 532 q 343 365 317 400 q 422 329 369 329 q 521 365 482 329 q 606 469 560 400 l 629 504 l 633 508 l 633 940 l 14 940 l -101 1032 l -101 1092 l 1433 1092 l 1549 1000 l 1549 940 l 813 940 l 813 732 m 365 -137 l 306 -137 l 185 -81 l 185 113 l 244 113 l 365 56 l 365 -137 z "},"ख़":{"ha":1550,"x_min":-154,"x_max":1681,"o":"m 1681 938 l 1454 938 l 1454 -17 l 1394 -17 l 1228 121 l 1274 175 l 1274 247 q 1138 210 1217 210 q 961 255 1053 210 q 809 375 869 300 q 749 536 749 450 q 783 648 749 597 q 881 729 818 699 q 1021 761 943 760 l 1135 669 l 1135 610 q 1082 614 1108 614 q 978 572 1015 614 q 940 464 940 529 q 968 363 940 399 q 1050 326 996 326 q 1131 350 1096 326 q 1196 410 1167 374 q 1274 521 1225 447 l 1274 938 l 474 938 q 550 764 525 854 q 575 586 575 674 q 551 456 575 515 q 488 356 526 396 q 406 300 449 315 l 747 14 l 699 -43 l 235 344 q 135 442 176 386 q 93 538 93 497 q 124 597 93 576 q 211 617 156 617 q 368 592 279 617 q 376 682 376 633 q 360 818 376 749 q 319 940 344 888 l -31 940 l -154 1032 l -154 1092 l 1565 1092 l 1681 997 l 1681 938 m 272 -146 l 213 -146 l 92 -89 l 92 104 l 151 104 l 272 47 l 272 -146 z "},"ग़":{"ha":1089,"x_min":-162,"x_max":1221,"o":"m 994 940 l 994 -14 l 935 -14 l 768 124 l 814 178 l 814 940 l 533 940 l 533 506 q 503 410 533 460 q 431 328 474 361 q 353 294 389 294 q 243 338 306 294 q 136 441 181 381 q 92 547 92 501 q 128 598 92 578 q 231 618 164 618 q 353 601 282 618 l 353 940 l -46 940 l -162 1032 l -162 1092 l 1106 1092 l 1221 1000 l 1221 940 l 994 940 m 433 -146 l 374 -146 l 253 -89 l 253 104 l 313 104 l 433 47 l 433 -146 z "},"ज़":{"ha":1164,"x_min":-101,"x_max":1294,"o":"m 1068 940 l 1068 -14 l 1008 -14 l 842 124 l 888 178 l 888 467 l 485 467 l 722 264 q 733 186 733 231 q 698 86 733 132 q 601 13 663 40 q 463 -14 539 -14 q 322 -1 381 -14 l 50 213 l 92 271 q 281 147 214 179 q 406 115 349 115 q 501 149 465 115 q 538 238 538 182 q 512 320 538 274 q 431 415 486 367 l 261 561 l 308 618 l 888 618 l 888 940 l 14 940 l -101 1032 l -101 1092 l 1179 1092 l 1294 1000 l 1294 940 l 1068 940 m 540 -424 l 481 -424 l 360 -367 l 360 -174 l 419 -174 l 540 -231 l 540 -424 z "},"ड़":{"ha":1010,"x_min":-164,"x_max":1149,"o":"m 546 678 q 438 643 482 678 q 394 560 394 608 q 408 515 394 535 q 458 472 422 494 q 559 522 519 507 q 631 538 599 538 q 793 489 708 538 q 935 367 878 440 q 992 226 992 293 q 924 118 992 175 q 753 24 856 61 q 554 -14 650 -14 q 419 -3 489 -14 l 8 346 l 56 401 l 253 236 q 377 165 311 186 q 524 143 443 143 q 660 167 593 143 q 768 228 726 190 q 810 304 810 265 q 784 357 810 332 q 729 382 758 382 q 575 324 669 382 q 409 388 494 335 q 267 510 324 440 q 211 639 211 581 q 244 733 211 689 q 334 803 278 776 q 454 829 390 829 l 678 829 l 678 940 l -49 940 l -164 1032 l -164 1092 l 1032 1092 l 1149 1000 l 1149 940 l 858 940 l 858 678 l 546 678 m 211 -236 l 151 -236 l 31 -179 l 31 14 l 90 14 l 211 -43 l 211 -236 z "},"ढ़":{"ha":986,"x_min":-101,"x_max":1124,"o":"m 531 586 q 372 526 431 586 q 314 363 314 465 q 390 188 314 256 q 596 111 467 119 q 511 201 543 149 q 479 308 479 254 q 522 402 479 367 q 633 438 564 438 q 790 396 713 438 q 915 288 867 354 q 964 153 964 221 q 895 31 964 75 q 706 -14 826 -14 q 430 50 561 -14 q 219 219 299 114 q 140 440 140 324 q 181 588 140 519 q 288 696 221 656 q 435 736 356 736 l 546 736 l 546 940 l 13 940 l -101 1032 l -101 1092 l 1010 1092 l 1124 1000 l 1124 940 l 726 940 l 726 586 l 531 586 m 735 315 q 693 286 711 315 q 675 217 675 257 q 724 156 675 156 q 771 171 747 156 q 783 221 783 192 q 769 288 783 261 q 735 315 756 315 m 349 -292 l 289 -292 l 168 -235 l 168 -42 l 228 -42 l 349 -99 l 349 -292 z "},"फ़":{"ha":1454,"x_min":-101,"x_max":1556,"o":"m 818 732 q 940 761 869 761 q 1117 716 1026 761 q 1267 596 1207 671 q 1326 435 1326 521 q 1292 324 1326 375 q 1195 242 1257 274 q 1056 210 1133 211 l 940 301 l 940 361 q 993 357 969 357 q 1096 398 1060 357 q 1132 503 1132 439 q 1106 606 1132 569 q 1026 642 1079 642 q 949 619 982 642 q 891 565 915 597 q 818 460 867 533 l 818 -14 l 758 -14 l 592 124 l 638 178 l 638 372 q 506 336 581 336 q 331 381 421 336 q 181 501 240 426 q 121 663 121 576 l 121 940 l 14 940 l -101 1032 l -101 1092 l 1442 1092 l 1556 1000 l 1556 940 l 818 940 l 818 732 m 419 454 q 499 477 464 454 q 561 535 533 500 q 638 643 589 569 l 638 940 l 301 940 l 301 614 q 421 454 301 454 l 419 454 m 411 -78 l 351 -78 l 231 -21 l 231 172 l 290 172 l 411 115 l 411 -78 z "},"य़":{"ha":1026,"x_min":-111,"x_max":1156,"o":"m 1156 942 l 929 942 l 929 -12 l 869 -12 l 703 125 l 749 179 l 749 379 q 642 322 700 342 q 506 301 583 301 q 330 342 419 301 q 174 442 240 382 q 89 561 108 503 l 136 618 q 253 685 206 629 q 301 825 301 740 q 271 940 301 904 l 4 940 l -111 1032 l -111 1092 l 1042 1092 l 1156 1001 l 1156 942 m 413 942 q 496 732 496 842 q 438 587 496 650 q 285 503 379 524 q 419 421 315 421 q 538 446 485 421 q 635 510 592 471 q 749 624 678 549 l 749 942 l 413 942 m 411 -111 l 351 -111 l 231 -54 l 231 139 l 290 139 l 411 82 l 411 -111 z "},"ॹ":{"ha":1115,"x_min":-101,"x_max":1294,"o":"m 1068 940 l 1068 -14 l 1008 -14 l 842 124 l 888 178 l 888 467 l 485 467 l 722 264 q 733 186 733 231 q 698 86 733 132 q 601 13 663 40 q 463 -14 539 -14 q 322 -1 381 -14 l 50 213 l 92 271 q 281 147 214 179 q 406 115 349 115 q 501 149 465 115 q 538 238 538 182 q 512 320 538 274 q 431 415 486 367 l 261 561 l 308 618 l 888 618 l 888 940 l 14 940 l -101 1032 l -101 1092 l 1179 1092 l 1294 1000 l 1294 940 l 1068 940 m 232 -308 l 172 -308 l 51 -251 l 51 -58 l 111 -58 l 232 -115 l 232 -308 m 506 -506 l 446 -506 l 325 -449 l 325 -256 l 385 -256 l 506 -312 l 506 -506 m 743 -308 l 683 -308 l 563 -251 l 563 -58 l 622 -58 l 743 -115 l 743 -308 z "},"ॻ":{"ha":1067,"x_min":-162,"x_max":1197,"o":"m 971 940 l 971 -240 l 160 -240 l 47 -149 l 47 -89 l 790 -89 l 790 940 l 533 940 l 533 506 q 503 410 533 460 q 431 328 474 361 q 353 294 389 294 q 243 338 306 294 q 136 441 181 381 q 92 547 92 501 q 128 598 92 578 q 231 618 164 618 q 353 601 282 618 l 353 940 l -46 940 l -162 1032 l -162 1092 l 1082 1092 l 1197 1000 l 1197 940 l 971 940 z "},"ॼ":{"ha":1186,"x_min":-101,"x_max":1317,"o":"m 1090 940 l 1090 -240 l 200 -240 l 88 -149 l 88 -89 l 910 -89 l 910 467 l 485 467 l 722 264 q 733 186 733 231 q 698 86 733 132 q 601 13 663 40 q 463 -14 539 -14 q 322 -1 381 -14 l 50 213 l 92 271 q 281 147 214 179 q 406 115 349 115 q 501 149 465 115 q 538 238 538 182 q 512 320 538 274 q 431 415 486 367 l 261 561 l 308 618 l 910 618 l 910 940 l 14 940 l -101 1032 l -101 1092 l 1201 1092 l 1317 1000 l 1317 940 l 1090 940 z "},"ॾ":{"ha":1010,"x_min":-164,"x_max":1149,"o":"m 546 678 q 438 643 482 678 q 394 560 394 608 q 408 515 394 535 q 458 472 422 494 q 559 522 519 507 q 631 538 599 538 q 793 489 708 538 q 935 367 878 440 q 992 226 992 293 q 924 118 992 175 q 753 24 856 61 q 554 -14 650 -14 q 419 -3 489 -14 l 8 346 l 56 401 l 253 236 q 377 165 311 186 q 524 143 443 143 q 660 167 593 143 q 768 228 726 190 q 810 304 810 265 q 784 357 810 332 q 729 382 758 382 q 575 324 669 382 q 409 388 494 335 q 267 510 324 440 q 211 639 211 581 q 244 733 211 689 q 334 803 278 776 q 454 829 390 829 l 678 829 l 678 940 l -49 940 l -164 1032 l -164 1092 l 1032 1092 l 1149 1000 l 1149 940 l 858 940 l 858 678 l 546 678 m 1061 -240 l 251 -240 l 139 -149 l 139 -89 l 949 -89 l 1061 -181 l 1061 -240 z "},"ॿ":{"ha":921,"x_min":-101,"x_max":1053,"o":"m 825 942 l 825 -239 l 247 -239 l 135 -147 l 135 -87 l 644 -87 l 644 253 q 506 213 586 213 q 329 258 421 213 q 177 378 238 303 q 117 539 117 453 q 151 651 117 600 q 249 732 186 701 q 389 764 311 763 l 503 672 l 503 613 q 450 617 475 617 q 372 597 404 617 l 575 428 q 644 528 597 457 l 644 940 l 14 940 l -101 1032 l -101 1092 l 936 1092 l 1053 1000 l 1053 942 l 825 942 m 419 331 q 525 374 478 331 l 324 542 q 308 468 308 507 q 336 367 308 403 q 418 331 364 331 l 419 331 z "},"ꣻ":{"ha":1217,"x_min":208,"x_max":1008,"o":"m 1008 940 l 324 940 l 208 1032 l 208 1092 l 893 1092 l 1008 1000 l 1008 940 z "},"⁄":{"ha":321,"x_min":-301,"x_max":621,"o":"m -243 -268 l -301 -239 l 561 1385 l 621 1357 l -243 -268 z "},"½":{"ha":1579,"x_min":104,"x_max":1507,"o":"m 464 576 l 117 576 l 117 626 l 225 700 l 225 1042 l 104 1076 l 129 1133 l 476 1133 l 476 1085 l 369 1011 l 369 668 l 489 635 l 464 576 m 350 -268 l 292 -239 l 1154 1385 l 1214 1357 l 350 -268 m 1507 -128 l 1431 -110 l 943 -110 l 943 -60 q 1155 94 1082 36 q 1257 190 1228 153 q 1286 257 1286 226 q 1249 324 1286 297 q 1153 351 1211 351 q 976 282 1081 351 l 943 338 l 1101 447 q 1183 457 1135 457 q 1375 417 1303 457 q 1447 313 1447 378 q 1381 197 1447 271 q 1171 18 1314 124 l 1422 18 l 1460 101 l 1507 86 l 1507 -128 z "},"⅓":{"ha":1560,"x_min":104,"x_max":1471,"o":"m 464 576 l 117 576 l 117 626 l 225 700 l 225 1042 l 104 1076 l 129 1133 l 476 1133 l 476 1085 l 369 1011 l 369 668 l 489 635 l 464 576 m 350 -268 l 292 -239 l 1154 1385 l 1214 1357 l 350 -268 m 1294 140 q 1432 54 1393 92 q 1471 -29 1471 17 q 1353 -214 1471 -133 q 978 -368 1236 -294 l 960 -303 q 1178 -226 1104 -260 q 1283 -158 1253 -193 q 1314 -75 1314 -124 q 1283 -12 1314 -40 q 1165 57 1251 15 l 1165 100 q 1246 191 1225 158 q 1267 256 1267 224 q 1234 326 1267 299 q 1151 353 1201 353 q 982 283 1088 353 l 949 336 l 1108 447 q 1157 456 1132 456 q 1290 436 1229 456 q 1388 383 1351 417 q 1424 311 1424 350 q 1392 236 1421 275 q 1294 142 1363 197 l 1294 140 z "},"⅔":{"ha":1663,"x_min":60,"x_max":1572,"o":"m 624 558 l 547 576 l 60 576 l 60 626 q 272 781 199 722 q 374 876 344 839 q 403 943 403 913 q 365 1010 403 983 q 269 1038 328 1038 q 93 968 197 1038 l 60 1024 l 218 1133 q 300 1143 253 1143 q 492 1103 419 1143 q 564 999 564 1064 q 497 883 564 957 q 288 704 431 810 l 539 704 l 576 788 l 624 772 l 624 558 m 453 -268 l 394 -239 l 1257 1385 l 1317 1357 l 453 -268 m 1396 140 q 1533 54 1494 92 q 1572 -29 1572 17 q 1455 -214 1572 -133 q 1079 -368 1338 -294 l 1061 -303 q 1280 -226 1206 -260 q 1385 -158 1354 -193 q 1415 -75 1415 -124 q 1384 -12 1415 -40 q 1267 57 1353 15 l 1267 100 q 1347 191 1326 158 q 1368 256 1368 224 q 1335 326 1368 299 q 1253 353 1303 353 q 1083 283 1189 353 l 1050 336 l 1210 447 q 1258 456 1233 456 q 1392 436 1331 456 q 1489 383 1453 417 q 1525 311 1525 350 q 1493 236 1522 275 q 1396 142 1464 197 l 1396 140 z "},"¼":{"ha":1454,"x_min":104,"x_max":1426,"o":"m 464 576 l 117 576 l 117 626 l 225 700 l 225 1042 l 104 1076 l 129 1133 l 476 1133 l 476 1085 l 369 1011 l 369 668 l 489 635 l 464 576 m 350 -268 l 292 -239 l 1154 1385 l 1214 1357 l 350 -268 m 1257 -67 l 1257 -260 l 1113 -318 l 1113 -67 l 701 -67 l 701 -18 l 1113 418 l 1257 475 l 1257 21 l 1426 21 l 1388 -67 l 1257 -67 m 1113 301 l 854 21 l 1113 21 l 1113 301 z "},"¾":{"ha":1508,"x_min":35,"x_max":1481,"o":"m 381 826 q 518 740 479 778 q 557 657 557 703 q 440 472 557 553 q 64 318 322 392 l 46 385 q 265 460 190 428 q 369 528 339 493 q 400 611 400 563 q 369 674 400 647 q 251 743 339 701 l 251 786 q 332 877 311 844 q 353 942 353 910 q 320 1012 353 985 q 238 1039 288 1039 q 68 969 174 1039 l 35 1022 l 194 1133 q 243 1142 217 1142 q 376 1122 315 1142 q 474 1069 438 1103 q 510 997 510 1036 q 478 922 507 961 q 381 828 449 883 l 381 826 m 404 -268 l 346 -239 l 1208 1385 l 1268 1357 l 404 -268 m 1311 -67 l 1311 -260 l 1167 -318 l 1167 -67 l 756 -67 l 756 -18 l 1167 418 l 1311 475 l 1311 21 l 1481 21 l 1442 -67 l 1311 -67 m 1167 301 l 908 21 l 1167 21 l 1167 301 z "},"⅛":{"ha":1761,"x_min":104,"x_max":1676,"o":"m 464 576 l 117 576 l 117 626 l 225 700 l 225 1042 l 104 1076 l 129 1133 l 476 1133 l 476 1085 l 369 1011 l 369 668 l 489 635 l 464 576 m 350 -268 l 292 -239 l 1154 1385 l 1214 1357 l 350 -268 m 1464 356 q 1621 253 1565 301 q 1676 138 1676 204 q 1625 24 1676 85 q 1500 -78 1574 -36 q 1367 -119 1426 -119 q 1180 -89 1263 -119 q 1051 -5 1097 -58 q 1004 113 1004 49 q 1050 216 1004 164 q 1200 343 1096 268 q 1098 426 1135 383 q 1061 522 1061 469 q 1109 623 1061 569 q 1226 713 1157 676 q 1353 750 1294 750 q 1485 726 1426 750 q 1577 661 1544 701 q 1610 574 1610 621 q 1575 481 1606 529 q 1463 356 1544 433 l 1464 356 m 1329 664 q 1250 636 1282 664 q 1218 567 1218 608 q 1264 476 1218 515 q 1397 390 1310 436 q 1454 468 1442 442 q 1467 526 1467 494 q 1428 624 1467 585 q 1329 663 1389 663 l 1329 664 m 1372 -33 q 1480 4 1439 -33 q 1521 93 1521 42 q 1469 187 1521 146 q 1310 283 1417 228 l 1267 306 q 1181 226 1201 257 q 1161 160 1161 196 q 1191 65 1161 110 q 1269 -6 1221 21 q 1372 -32 1318 -32 l 1372 -33 z "},"⅜":{"ha":1815,"x_min":35,"x_max":1729,"o":"m 381 826 q 518 740 479 778 q 557 657 557 703 q 440 472 557 553 q 64 318 322 392 l 46 385 q 265 460 190 428 q 369 528 339 493 q 400 611 400 563 q 369 674 400 647 q 251 743 339 701 l 251 786 q 332 877 311 844 q 353 942 353 910 q 320 1012 353 985 q 238 1039 288 1039 q 68 969 174 1039 l 35 1022 l 194 1133 q 243 1142 217 1142 q 376 1122 315 1142 q 474 1069 438 1103 q 510 997 510 1036 q 478 922 507 961 q 381 828 449 883 l 381 826 m 404 -268 l 346 -239 l 1208 1385 l 1268 1357 l 404 -268 m 1517 356 q 1674 253 1618 301 q 1729 138 1729 204 q 1678 24 1729 85 q 1553 -78 1626 -36 q 1419 -119 1479 -119 q 1233 -89 1315 -119 q 1103 -5 1150 -58 q 1057 113 1057 49 q 1103 216 1057 164 q 1253 343 1149 268 q 1151 426 1188 383 q 1114 522 1114 469 q 1162 623 1114 569 q 1278 713 1210 676 q 1406 750 1347 750 q 1538 726 1479 750 q 1630 661 1597 701 q 1663 574 1663 621 q 1628 481 1658 529 q 1515 356 1597 433 l 1517 356 m 1382 664 q 1303 636 1335 664 q 1271 567 1271 608 q 1317 476 1271 515 q 1450 390 1363 436 q 1507 468 1494 442 q 1519 526 1519 494 q 1481 624 1519 585 q 1382 663 1442 663 l 1382 664 m 1425 -33 q 1533 4 1492 -33 q 1574 93 1574 42 q 1522 187 1574 146 q 1363 283 1469 228 l 1319 306 q 1234 226 1254 257 q 1214 160 1214 196 q 1244 65 1214 110 q 1322 -6 1274 21 q 1425 -32 1371 -32 l 1425 -33 z "},"⅝":{"ha":1910,"x_min":64,"x_max":1825,"o":"m 179 926 q 426 823 340 867 q 544 740 511 779 q 578 656 578 701 q 506 506 578 569 q 331 401 435 443 q 82 319 226 360 l 64 386 q 292 464 215 431 q 394 530 368 497 q 421 610 421 563 q 396 678 421 649 q 301 744 371 708 q 90 832 231 781 l 163 1133 l 476 1133 l 514 1217 l 563 1201 l 563 988 l 486 1006 l 197 1006 l 179 926 m 499 -268 l 440 -239 l 1303 1385 l 1363 1357 l 499 -268 m 1613 356 q 1769 253 1714 301 q 1825 138 1825 204 q 1774 24 1825 85 q 1649 -78 1722 -36 q 1515 -119 1575 -119 q 1328 -89 1411 -119 q 1199 -5 1246 -58 q 1153 113 1153 49 q 1199 216 1153 164 q 1349 343 1244 268 q 1247 426 1283 383 q 1210 522 1210 469 q 1258 623 1210 569 q 1374 713 1306 676 q 1501 750 1443 750 q 1634 726 1575 750 q 1726 661 1693 701 q 1758 574 1758 621 q 1724 481 1754 529 q 1611 356 1693 433 l 1613 356 m 1478 664 q 1399 636 1431 664 q 1367 567 1367 608 q 1413 476 1367 515 q 1546 390 1458 436 q 1603 468 1590 442 q 1615 526 1615 494 q 1576 624 1615 585 q 1478 663 1538 663 l 1478 664 m 1521 -33 q 1628 4 1588 -33 q 1669 93 1669 42 q 1617 187 1669 146 q 1458 283 1565 228 l 1415 306 q 1330 226 1350 257 q 1310 160 1310 196 q 1340 65 1310 110 q 1418 -6 1369 21 q 1521 -32 1467 -32 l 1521 -33 z "},"⅞":{"ha":1833,"x_min":96,"x_max":1749,"o":"m 690 1074 l 242 319 l 167 343 l 565 1006 l 181 1006 l 144 929 l 96 944 l 96 1150 l 172 1133 l 690 1133 l 690 1074 m 422 -268 l 364 -239 l 1226 1385 l 1286 1357 l 422 -268 m 1536 356 q 1693 253 1638 301 q 1749 138 1749 204 q 1697 24 1749 85 q 1572 -78 1646 -36 q 1439 -119 1499 -119 q 1252 -89 1335 -119 q 1123 -5 1169 -58 q 1076 113 1076 49 q 1122 216 1076 164 q 1272 343 1168 268 q 1170 426 1207 383 q 1133 522 1133 469 q 1181 623 1133 569 q 1298 713 1229 676 q 1425 750 1367 750 q 1558 726 1499 750 q 1649 661 1617 701 q 1682 574 1682 621 q 1647 481 1678 529 q 1535 356 1617 433 l 1536 356 m 1401 664 q 1322 636 1354 664 q 1290 567 1290 608 q 1336 476 1290 515 q 1469 390 1382 436 q 1526 468 1514 442 q 1539 526 1539 494 q 1500 624 1539 585 q 1401 663 1461 663 l 1401 664 m 1444 -33 q 1552 4 1511 -33 q 1593 93 1593 42 q 1541 187 1593 146 q 1382 283 1489 228 l 1339 306 q 1253 226 1274 257 q 1233 160 1233 196 q 1263 65 1233 110 q 1342 -6 1293 21 q 1444 -32 1390 -32 l 1444 -33 z "},"₀":{"ha":879,"x_min":94,"x_max":785,"o":"m 479 457 q 638 421 568 457 q 746 323 707 385 q 785 186 785 261 q 724 34 785 104 q 574 -78 664 -36 q 400 -119 483 -119 q 242 -84 313 -119 q 133 14 172 -49 q 94 153 94 76 q 154 303 94 233 q 304 415 214 374 q 479 457 394 457 m 414 357 q 250 199 250 357 q 305 43 250 106 q 464 -19 360 -19 q 629 140 629 -19 q 574 295 629 233 q 414 357 518 357 z "},"₁":{"ha":547,"x_min":61,"x_max":446,"o":"m 421 -108 l 74 -108 l 74 -60 l 182 15 l 182 357 l 61 392 l 86 449 l 433 449 l 433 400 l 326 326 l 326 -18 l 446 -51 l 421 -108 z "},"₂":{"ha":696,"x_min":60,"x_max":624,"o":"m 624 -128 l 547 -110 l 60 -110 l 60 -60 q 272 94 199 36 q 374 190 344 153 q 403 257 403 226 q 365 324 403 297 q 269 351 328 351 q 93 282 197 351 l 60 338 l 218 447 q 300 457 251 457 q 492 417 419 457 q 564 313 564 378 q 497 197 564 271 q 288 18 431 124 l 539 18 l 576 101 l 624 86 l 624 -128 z "},"₃":{"ha":647,"x_min":35,"x_max":557,"o":"m 381 140 q 518 54 479 92 q 557 -29 557 17 q 440 -214 557 -133 q 64 -368 322 -294 l 46 -303 q 265 -226 190 -260 q 369 -158 339 -193 q 400 -75 400 -124 q 369 -12 400 -40 q 251 57 338 15 l 251 100 q 332 191 311 158 q 353 256 353 224 q 320 326 353 299 q 238 353 288 353 q 68 283 174 353 l 35 336 l 194 447 q 243 456 218 456 q 376 436 315 456 q 474 383 438 417 q 510 311 510 350 q 478 236 507 275 q 381 142 449 197 l 381 140 z "},"₄":{"ha":794,"x_min":42,"x_max":767,"o":"m 597 -67 l 597 -260 l 453 -318 l 453 -67 l 42 -67 l 42 -18 l 453 418 l 597 475 l 597 21 l 767 21 l 728 -67 l 597 -67 m 453 301 l 194 21 l 453 21 l 453 301 z "},"₅":{"ha":742,"x_min":64,"x_max":578,"o":"m 179 240 q 426 137 340 181 q 544 54 511 93 q 578 -31 578 15 q 506 -180 578 -117 q 331 -285 435 -243 q 82 -367 226 -326 l 64 -301 q 292 -223 215 -257 q 394 -156 368 -189 q 421 -76 421 -124 q 396 -8 421 -37 q 301 58 371 22 q 90 146 231 94 l 163 447 l 476 447 l 514 531 l 563 515 l 563 301 l 486 319 l 197 319 l 179 240 z "},"₆":{"ha":854,"x_min":117,"x_max":765,"o":"m 678 690 q 368 458 463 569 q 274 226 274 346 q 326 51 274 122 q 476 -19 378 -19 q 575 16 542 -19 q 608 121 608 51 q 545 270 608 208 q 385 360 482 332 l 422 422 q 597 389 518 422 q 720 297 675 356 q 765 167 765 239 q 713 32 765 99 q 579 -77 661 -35 q 413 -119 497 -119 q 260 -80 328 -119 q 154 28 192 -40 q 117 182 117 97 q 161 381 117 290 q 322 562 206 471 q 649 749 439 653 l 678 690 z "},"₇":{"ha":765,"x_min":96,"x_max":690,"o":"m 690 388 l 242 -367 l 167 -343 l 565 319 l 181 319 l 144 243 l 96 258 l 96 464 l 172 447 l 690 447 l 690 388 z "},"₈":{"ha":849,"x_min":90,"x_max":763,"o":"m 550 356 q 707 253 651 301 q 763 138 763 204 q 711 24 763 85 q 586 -78 660 -36 q 453 -119 513 -119 q 266 -89 349 -119 q 137 -5 183 -58 q 90 113 90 49 q 136 216 90 164 q 286 343 182 268 q 184 426 221 383 q 147 522 147 469 q 195 623 147 569 q 312 713 243 676 q 439 750 381 750 q 572 726 513 750 q 663 661 631 701 q 696 574 696 621 q 661 481 692 529 q 549 356 631 433 l 550 356 m 415 664 q 336 636 368 664 q 304 567 304 608 q 350 476 304 515 q 483 390 396 436 q 540 468 528 442 q 553 526 553 494 q 514 624 553 585 q 415 663 475 663 l 415 664 m 458 -33 q 566 4 525 -33 q 607 93 607 42 q 555 187 607 146 q 396 283 503 228 l 353 306 q 267 226 288 257 q 247 160 247 196 q 277 65 247 110 q 356 -6 307 21 q 458 -32 404 -32 l 458 -33 z "},"₉":{"ha":840,"x_min":93,"x_max":740,"o":"m 444 457 q 597 421 529 457 q 702 322 664 385 q 740 182 740 258 q 696 -11 740 76 q 535 -187 651 -99 q 210 -367 419 -275 l 181 -308 q 489 -85 394 -193 q 583 136 583 24 q 531 294 583 231 q 379 357 479 357 q 282 322 315 357 q 249 217 249 286 q 309 68 249 129 q 463 -22 369 7 l 421 -86 q 254 -52 329 -86 q 136 41 179 -18 q 93 172 93 100 q 144 306 93 240 q 278 415 196 372 q 444 457 360 457 z "},"⁰":{"ha":879,"x_min":94,"x_max":785,"o":"m 479 1143 q 638 1107 568 1143 q 746 1009 707 1071 q 785 872 785 947 q 724 720 785 790 q 574 608 664 650 q 400 567 483 567 q 242 602 313 567 q 133 700 172 638 q 94 839 94 763 q 154 990 94 919 q 304 1101 214 1060 q 479 1143 394 1143 m 414 1043 q 250 885 250 1043 q 305 730 250 792 q 464 668 360 668 q 629 826 629 668 q 574 981 629 919 q 414 1043 518 1043 z "},"¹":{"ha":593,"x_min":104,"x_max":489,"o":"m 464 576 l 117 576 l 117 626 l 225 700 l 225 1042 l 104 1076 l 129 1133 l 476 1133 l 476 1085 l 369 1011 l 369 668 l 489 635 l 464 576 z "},"²":{"ha":696,"x_min":60,"x_max":624,"o":"m 624 558 l 547 576 l 60 576 l 60 626 q 272 781 199 722 q 374 876 344 839 q 403 943 403 913 q 365 1010 403 983 q 269 1038 328 1038 q 93 968 197 1038 l 60 1024 l 218 1133 q 300 1143 253 1143 q 492 1103 419 1143 q 564 999 564 1064 q 497 883 564 957 q 288 704 431 810 l 539 704 l 576 788 l 624 772 l 624 558 z "},"³":{"ha":647,"x_min":35,"x_max":557,"o":"m 381 826 q 518 740 479 778 q 557 657 557 703 q 440 472 557 553 q 64 318 322 392 l 46 385 q 265 460 190 428 q 369 528 339 493 q 400 611 400 563 q 369 674 400 647 q 251 743 339 701 l 251 786 q 332 877 311 844 q 353 942 353 910 q 320 1012 353 985 q 238 1039 288 1039 q 68 969 174 1039 l 35 1022 l 194 1133 q 243 1142 217 1142 q 376 1122 315 1142 q 474 1069 438 1103 q 510 997 510 1036 q 478 922 507 961 q 381 828 449 883 l 381 826 z "},"⁴":{"ha":794,"x_min":42,"x_max":767,"o":"m 597 619 l 597 426 l 453 368 l 453 619 l 42 619 l 42 668 l 453 1104 l 597 1161 l 597 707 l 767 707 l 728 619 l 597 619 m 453 988 l 194 707 l 453 707 l 453 988 z "},"⁵":{"ha":742,"x_min":64,"x_max":578,"o":"m 179 926 q 426 823 340 867 q 544 740 511 779 q 578 656 578 701 q 506 506 578 569 q 331 401 435 443 q 82 319 226 360 l 64 386 q 292 464 215 431 q 394 530 368 497 q 421 610 421 563 q 396 678 421 649 q 301 744 371 708 q 90 832 231 781 l 163 1133 l 476 1133 l 514 1217 l 563 1201 l 563 988 l 486 1006 l 197 1006 l 179 926 z "},"⁶":{"ha":854,"x_min":117,"x_max":765,"o":"m 678 1376 q 368 1144 463 1256 q 274 913 274 1032 q 326 738 274 808 q 476 668 378 668 q 608 807 608 668 q 545 956 608 894 q 385 1046 482 1018 l 422 1108 q 597 1075 518 1108 q 720 983 675 1042 q 765 853 765 925 q 713 718 765 785 q 579 609 661 651 q 413 567 497 567 q 260 606 328 567 q 154 715 192 646 q 117 868 117 783 q 161 1067 117 976 q 322 1248 206 1157 q 649 1435 439 1339 l 678 1376 z "},"⁷":{"ha":765,"x_min":96,"x_max":690,"o":"m 690 1074 l 242 319 l 167 343 l 565 1006 l 181 1006 l 144 929 l 96 944 l 96 1150 l 172 1133 l 690 1133 l 690 1074 z "},"⁸":{"ha":849,"x_min":90,"x_max":763,"o":"m 550 1042 q 707 939 651 988 q 763 824 763 890 q 711 710 763 771 q 586 608 660 650 q 453 567 513 567 q 266 597 349 567 q 137 681 183 628 q 90 799 90 735 q 136 902 90 850 q 286 1029 182 954 q 184 1113 221 1069 q 147 1208 147 1156 q 195 1309 147 1256 q 312 1399 243 1363 q 439 1436 381 1436 q 572 1412 513 1436 q 663 1347 631 1388 q 696 1260 696 1307 q 661 1167 692 1215 q 549 1042 631 1119 l 550 1042 m 415 1350 q 336 1322 368 1350 q 304 1253 304 1294 q 350 1162 304 1201 q 483 1076 396 1122 q 540 1154 528 1128 q 553 1213 553 1181 q 514 1310 553 1271 q 415 1349 475 1349 l 415 1350 m 458 654 q 566 691 525 654 q 607 779 607 728 q 555 873 607 832 q 396 969 503 914 l 353 992 q 267 913 288 943 q 247 846 247 882 q 276 752 247 796 q 355 682 306 708 q 458 656 404 656 l 458 654 z "},"⁹":{"ha":840,"x_min":93,"x_max":740,"o":"m 444 1143 q 597 1107 529 1143 q 702 1008 664 1071 q 740 868 740 944 q 696 676 740 764 q 535 499 651 588 q 210 319 418 411 l 181 379 q 489 602 394 494 q 583 822 583 710 q 531 980 583 917 q 379 1043 479 1043 q 282 1008 315 1043 q 249 903 249 972 q 309 754 249 815 q 463 664 369 693 l 421 600 q 254 635 329 601 q 136 728 179 669 q 93 858 93 786 q 144 992 93 926 q 278 1101 196 1058 q 444 1143 360 1143 z "},"०":{"ha":925,"x_min":126,"x_max":799,"o":"m 408 813 q 584 765 492 813 q 738 638 676 717 q 799 472 799 558 q 763 343 799 401 q 663 252 726 285 q 518 219 599 219 q 342 267 433 219 q 188 394 250 315 q 126 560 126 472 q 163 689 126 631 q 263 780 199 747 q 408 813 328 813 m 485 694 q 406 672 443 694 q 346 602 369 649 q 322 489 322 556 q 442 338 322 338 q 519 360 482 338 q 580 430 557 383 q 603 543 603 476 q 485 694 603 694 z "},"१":{"ha":779,"x_min":47,"x_max":568,"o":"m 260 1106 q 417 1044 346 1106 q 528 874 488 982 q 568 635 568 767 q 539 311 568 511 q 482 -14 510 111 l 422 -14 l 301 43 q 385 624 367 365 l 376 624 q 222 667 299 624 q 96 776 144 710 q 47 911 47 843 q 77 1007 47 963 q 156 1078 107 1051 q 261 1106 206 1106 l 260 1106 m 304 742 q 346 754 326 742 q 388 797 365 767 q 319 986 381 986 q 264 942 288 986 q 240 839 240 899 q 304 742 240 742 z "},"२":{"ha":914,"x_min":124,"x_max":1000,"o":"m 549 353 q 410 288 469 288 q 294 329 358 288 q 183 429 229 371 q 138 533 138 488 q 281 600 138 600 q 449 574 365 600 q 542 713 513 644 q 571 843 571 782 q 545 919 571 892 q 472 946 519 946 q 363 917 428 946 q 240 840 297 888 l 124 932 l 124 992 q 256 1075 185 1044 q 388 1106 326 1106 q 558 1049 468 1106 q 707 910 647 993 q 767 750 767 826 q 719 578 767 674 q 603 406 672 483 l 1000 74 l 950 17 l 549 353 z "},"३":{"ha":1031,"x_min":122,"x_max":911,"o":"m 910 213 q 861 108 910 163 q 739 19 813 54 q 597 -17 665 -17 q 515 -10 561 -17 l 799 -246 l 749 -301 l 275 94 q 164 208 206 146 q 122 332 122 271 q 142 403 122 379 q 192 426 161 426 q 295 365 253 426 q 363 158 338 303 q 486 126 425 126 q 609 148 553 126 q 698 205 665 169 q 731 279 731 240 q 704 360 731 321 q 615 450 678 399 q 432 583 551 501 l 432 643 q 519 683 476 653 q 590 756 563 714 q 618 836 618 797 q 595 915 618 885 q 526 946 572 946 q 405 915 468 946 q 286 840 342 885 l 171 932 l 171 992 q 302 1074 231 1043 q 432 1106 374 1106 q 608 1049 518 1106 q 756 908 697 992 q 814 749 814 824 q 772 626 814 681 q 658 544 731 572 q 846 373 781 457 q 911 215 911 289 l 910 213 z "},"४":{"ha":1011,"x_min":142,"x_max":853,"o":"m 597 592 q 765 410 715 469 q 833 310 815 350 q 850 218 850 269 q 811 102 850 156 q 706 17 772 49 q 564 -14 640 -14 q 368 35 463 -14 q 215 164 274 85 q 156 328 156 243 q 185 443 156 385 q 285 579 215 501 l 386 690 l 286 792 q 176 937 211 869 q 142 1075 142 1004 q 153 1171 142 1124 l 200 1226 l 349 1107 q 338 1010 338 1047 q 439 749 338 858 l 535 854 q 635 1000 610 939 q 660 1135 660 1061 q 653 1176 660 1153 l 706 1226 l 847 1111 q 853 1064 853 1094 q 812 933 853 999 q 667 749 771 867 l 560 629 l 597 592 m 475 107 q 604 155 554 107 q 654 278 654 203 q 504 569 654 403 l 446 504 q 350 258 350 403 q 381 144 350 181 q 475 107 411 107 z "},"५":{"ha":1049,"x_min":175,"x_max":1147,"o":"m 728 86 q 619 -14 679 -14 q 485 29 561 -14 q 356 132 410 72 q 301 238 301 192 q 342 283 301 265 q 453 300 382 300 q 607 282 518 300 q 627 467 621 375 q 635 689 633 560 q 536 671 585 671 q 372 712 456 671 q 231 822 288 753 q 175 969 175 890 l 175 1106 l 235 1106 l 356 1049 l 356 922 q 451 789 356 789 q 536 806 494 789 q 606 859 578 824 q 633 947 633 894 l 633 1106 l 693 1106 l 814 1049 l 814 644 q 757 160 814 340 l 1147 -167 l 1097 -222 l 728 86 z "},"६":{"ha":1129,"x_min":103,"x_max":1321,"o":"m 846 350 q 692 272 772 301 q 547 242 613 242 q 363 287 458 242 q 206 407 268 332 q 143 568 143 482 q 174 669 143 621 q 258 750 204 717 q 146 835 189 786 q 103 942 103 885 q 137 1033 103 992 q 231 1097 171 1074 q 368 1119 292 1119 q 399 1118 385 1119 l 515 1026 l 515 967 q 439 976 476 976 q 335 949 374 976 q 297 883 297 921 q 335 828 297 849 q 476 803 372 807 l 481 803 l 596 713 l 596 653 q 540 656 578 656 q 391 611 443 656 q 339 499 339 567 q 371 415 339 444 q 463 385 403 385 q 617 418 550 385 q 725 503 683 451 q 696 678 696 593 q 764 821 696 821 q 868 775 810 821 q 968 665 926 729 q 1010 549 1010 600 q 982 476 1010 515 q 907 396 954 436 l 1321 50 l 1271 -6 l 846 350 z "},"७":{"ha":1322,"x_min":124,"x_max":1161,"o":"m 840 983 q 1001 924 926 983 q 1118 763 1075 864 q 1161 544 1161 663 q 1099 263 1161 390 q 929 60 1036 135 q 693 -14 822 -14 q 408 81 539 -14 q 200 335 276 176 q 124 675 124 493 q 246 1171 124 918 l 294 1226 l 442 1107 q 344 808 369 939 q 319 543 319 678 q 394 229 319 347 q 608 111 468 111 q 839 214 749 111 q 957 503 929 317 q 802 545 879 503 q 676 653 725 588 q 626 788 626 719 q 656 884 626 839 q 735 956 685 929 q 842 983 785 983 l 840 983 m 882 622 q 925 634 906 622 q 967 676 944 646 q 903 865 964 865 q 844 823 868 865 q 821 719 821 781 q 882 621 821 621 l 882 622 z "},"८":{"ha":1026,"x_min":-97,"x_max":996,"o":"m 549 940 q 392 872 451 940 q 333 688 333 803 q 371 578 333 621 q 463 512 408 536 q 615 457 518 488 q 788 394 724 424 q 898 308 853 364 q 943 163 943 253 q 899 49 943 97 q 796 -26 856 0 l 682 65 l 682 125 q 729 163 711 136 q 747 231 747 189 q 716 306 747 275 q 638 357 685 336 q 508 406 592 378 q 317 482 390 446 q 190 585 243 518 q 138 758 138 653 q 190 940 138 857 l 26 940 l -97 1032 l -97 1092 l 872 1092 l 996 1000 l 996 940 l 549 940 z "},"९":{"ha":972,"x_min":119,"x_max":875,"o":"m 875 153 q 712 38 811 89 q 522 -14 613 -14 q 339 41 433 -14 q 182 186 244 96 q 119 378 119 276 q 179 521 119 454 q 336 625 239 588 q 216 749 261 679 q 171 896 171 818 q 202 1001 171 953 q 290 1078 233 1050 q 421 1106 347 1106 q 578 1072 501 1106 q 702 985 654 1039 q 750 875 750 932 q 694 787 750 824 q 560 750 639 750 l 535 753 l 442 825 l 442 885 q 488 875 461 875 q 536 893 518 875 q 554 940 554 911 q 501 981 554 981 q 404 941 442 981 q 367 844 367 901 q 465 656 367 735 q 528 660 497 660 l 643 568 l 643 508 q 588 513 624 513 q 440 484 504 513 q 339 404 375 456 q 303 285 303 353 q 340 179 303 222 q 436 136 378 136 q 619 184 542 136 q 758 303 696 232 l 875 213 l 875 153 z "},"Ⅰ":{"ha":690,"x_min":104,"x_max":586,"o":"m 554 0 l 119 0 l 119 50 l 254 156 l 254 685 l 104 733 l 136 796 l 569 796 l 569 746 l 435 640 l 435 111 l 586 63 l 554 0 z "},"Ⅱ":{"ha":1381,"x_min":104,"x_max":1276,"o":"m 554 0 l 119 0 l 119 50 l 254 156 l 254 685 l 104 733 l 136 796 l 569 796 l 569 746 l 435 640 l 435 111 l 586 63 l 554 0 m 1244 0 l 810 0 l 810 50 l 944 156 l 944 685 l 794 733 l 826 796 l 1260 796 l 1260 746 l 1125 640 l 1125 111 l 1276 63 l 1244 0 z "},"Ⅲ":{"ha":2071,"x_min":104,"x_max":1967,"o":"m 554 0 l 119 0 l 119 50 l 254 156 l 254 685 l 104 733 l 136 796 l 569 796 l 569 746 l 435 640 l 435 111 l 586 63 l 554 0 m 1244 0 l 810 0 l 810 50 l 944 156 l 944 685 l 794 733 l 826 796 l 1260 796 l 1260 746 l 1125 640 l 1125 111 l 1276 63 l 1244 0 m 1935 0 l 1500 0 l 1500 50 l 1635 156 l 1635 685 l 1485 733 l 1517 796 l 1950 796 l 1950 746 l 1815 640 l 1815 111 l 1967 63 l 1935 0 z "},"Ⅳ":{"ha":1779,"x_min":104,"x_max":1781,"o":"m 554 0 l 119 0 l 119 50 l 254 156 l 254 685 l 104 733 l 136 796 l 569 796 l 569 746 l 435 640 l 435 111 l 586 63 l 554 0 m 1649 644 l 1329 44 l 1165 -26 l 825 654 l 690 733 l 721 796 l 1150 796 l 1150 746 l 1029 653 l 1289 132 l 1564 644 l 1332 733 l 1364 796 l 1779 796 l 1781 746 l 1649 644 z "},"Ⅴ":{"ha":1089,"x_min":0,"x_max":1090,"o":"m 958 644 l 639 44 l 475 -26 l 135 654 l 0 733 l 31 796 l 460 796 l 460 746 l 339 653 l 599 132 l 874 644 l 642 733 l 674 796 l 1089 796 l 1090 746 l 958 644 z "},"Ⅵ":{"ha":1779,"x_min":0,"x_max":1675,"o":"m 958 644 l 639 44 l 475 -26 l 135 654 l 0 733 l 31 796 l 460 796 l 460 746 l 339 653 l 599 132 l 874 644 l 642 733 l 674 796 l 1089 796 l 1090 746 l 958 644 m 1643 0 l 1208 0 l 1208 50 l 1343 156 l 1343 685 l 1193 733 l 1225 796 l 1658 796 l 1658 746 l 1524 640 l 1524 111 l 1675 63 l 1643 0 z "},"Ⅶ":{"ha":2469,"x_min":0,"x_max":2365,"o":"m 958 644 l 639 44 l 475 -26 l 135 654 l 0 733 l 31 796 l 460 796 l 460 746 l 339 653 l 599 132 l 874 644 l 642 733 l 674 796 l 1089 796 l 1090 746 l 958 644 m 1643 0 l 1208 0 l 1208 50 l 1343 156 l 1343 685 l 1193 733 l 1225 796 l 1658 796 l 1658 746 l 1524 640 l 1524 111 l 1675 63 l 1643 0 m 2333 0 l 1899 0 l 1899 50 l 2033 156 l 2033 685 l 1883 733 l 1915 796 l 2349 796 l 2349 746 l 2214 640 l 2214 111 l 2365 63 l 2333 0 z "},"Ⅷ":{"ha":3160,"x_min":0,"x_max":3056,"o":"m 958 644 l 639 44 l 475 -26 l 135 654 l 0 733 l 31 796 l 460 796 l 460 746 l 339 653 l 599 132 l 874 644 l 642 733 l 674 796 l 1089 796 l 1090 746 l 958 644 m 1643 0 l 1208 0 l 1208 50 l 1343 156 l 1343 685 l 1193 733 l 1225 796 l 1658 796 l 1658 746 l 1524 640 l 1524 111 l 1675 63 l 1643 0 m 2333 0 l 1899 0 l 1899 50 l 2033 156 l 2033 685 l 1883 733 l 1915 796 l 2349 796 l 2349 746 l 2214 640 l 2214 111 l 2365 63 l 2333 0 m 3024 0 l 2589 0 l 2589 50 l 2724 156 l 2724 685 l 2574 733 l 2606 796 l 3039 796 l 3039 746 l 2904 640 l 2904 111 l 3056 63 l 3024 0 z "}}}
